<?xml version="1.0" encoding="UTF-8" standalone="no"?>
<!-- Created with Inkscape (http://www.inkscape.org/) -->

<svg
   width="24"
   height="24"
   viewBox="0 0 24 24"
   version="1.1"
   id="svg5"
   xml:space="preserve"
   inkscape:version="1.2.2 (b0a84865, 2022-12-01)"
   sodipodi:docname="chef.svg"
   xmlns:inkscape="http://www.inkscape.org/namespaces/inkscape"
   xmlns:sodipodi="http://sodipodi.sourceforge.net/DTD/sodipodi-0.dtd"
   xmlns="http://www.w3.org/2000/svg"
   xmlns:svg="http://www.w3.org/2000/svg"><sodipodi:namedview
     id="namedview7"
     pagecolor="#ffffff"
     bordercolor="#000000"
     borderopacity="0.25"
     inkscape:showpageshadow="2"
     inkscape:pageopacity="0.0"
     inkscape:pagecheckerboard="0"
     inkscape:deskcolor="#d1d1d1"
     inkscape:document-units="px"
     showgrid="false"
     inkscape:zoom="11.778783"
     inkscape:cx="10.060462"
     inkscape:cy="20.120925"
     inkscape:window-width="1278"
     inkscape:window-height="872"
     inkscape:window-x="162"
     inkscape:window-y="0"
     inkscape:window-maximized="0"
     inkscape:current-layer="layer1" /><defs
     id="defs2" /><g
     inkscape:label="Layer 1"
     inkscape:groupmode="layer"
     id="layer1"><path
       style="fill:#000000;fill-opacity:1;stroke-width:0.062673"
       d="M 2.4163894,23.910715 C 1.9474902,23.784623 1.6227117,23.421508 1.5323786,22.922343 c -0.05267,-0.291185 0.049787,-1.132728 0.2167314,-1.779979 0.16373,-0.63476 0.651496,-1.628862 1.0689047,-2.178539 0.6091157,-0.802124 1.6080651,-1.541822 2.64853,-1.96117 l 0.5094278,-0.205315 0.017382,-0.879783 c 0.00961,-0.483888 0.035812,-0.879792 0.058347,-0.879792 0.05529,0 4.7427805,1.193896 4.7616645,1.212772 0.0079,0.0079 -0.625607,0.264693 -1.4084536,0.569985 -0.7828555,0.305291 -1.5918275,0.642473 -1.7977193,0.749297 -0.8054432,0.417889 -1.4547992,1.311761 -1.6008591,2.203659 -0.033541,0.204669 -0.061055,1.239369 -0.061317,2.29933 L 5.9446414,24 4.3308115,23.9956 C 3.2228282,23.993 2.6227702,23.96608 2.416398,23.91053 Z m 5.1061828,-1.963257 c 0.018343,-1.858984 0.03127,-2.073226 0.1370545,-2.271894 0.1615726,-0.303353 0.4057656,-0.554202 0.6736644,-0.692034 0.1627954,-0.08376 8.6724829,-3.523483 9.5491919,-3.859913 0.08245,-0.03162 0.09536,0.07739 0.09536,0.804788 v 0.841377 l 0.531644,0.206801 c 1.071717,0.416884 2.186286,1.273652 2.830192,2.175569 0.642054,0.899314 1.066337,2.122445 1.12726,3.249688 0.03092,0.571566 0.02096,0.651505 -0.112405,0.90825 -0.175129,0.337068 -0.447465,0.531404 -0.872385,0.622532 -0.213177,0.04568 -2.510471,0.06734 -7.146977,0.06734 H 7.5023516 Z m 4.2653298,-1.138642 c 0.1892,-0.169049 0.204678,-0.212076 0.204678,-0.569199 0,-0.357113 -0.01546,-0.40014 -0.204678,-0.569189 -0.253312,-0.22634 -0.683543,-0.252255 -0.9986,-0.06018 -0.410194,0.250124 -0.410194,1.008593 0,1.258708 0.315057,0.1921 0.745288,0.166184 0.9986,-0.06018 z m 4.512449,0 c 0.1892,-0.169049 0.204677,-0.212076 0.204677,-0.569199 0,-0.357113 -0.01546,-0.40014 -0.204677,-0.569189 -0.165189,-0.147606 -0.261916,-0.182833 -0.501384,-0.182649 -0.600398,4.71e-4 -0.922679,0.423479 -0.765989,1.005395 0.135692,0.503916 0.855903,0.68329 1.267373,0.315642 z M 10.833123,14.067299 C 8.1433923,13.465485 6.3754928,11.513216 6.0743066,8.8121907 6.0374466,8.4817347 6.0073122,7.3243748 6.0073122,6.2402805 V 4.2692057 L 5.7384352,4.1390428 C 4.9406348,3.752834 4.4066803,2.7156445 4.5679384,1.8653667 4.7759178,0.76866847 5.5521001,0.07114989 6.6327965,0.00977189 c 0.5456764,-0.031008 1.058004,0.1153578 1.4250491,0.4070933 0.1209567,0.096133 0.2549891,0.2003104 0.2978672,0.2315017 0.052495,0.03817 0.1749015,-0.017294 0.3750285,-0.1701325 0.4769351,-0.3641714 0.9123547,-0.4988414 1.5143607,-0.4683751 0.629118,0.031794 1.100375,0.2481498 1.493738,0.6856657 l 0.266483,0.29639099 0.374059,-0.36376099 c 0.258999,-0.251862 0.484281,-0.4049969 0.732387,-0.4978195 0.673176,-0.2518707 1.567624,-0.1292894 2.090792,0.2865297 0.120947,0.096133 0.254989,0.2003104 0.297858,0.2315017 0.0525,0.03817 0.174901,-0.017294 0.375037,-0.1701325 0.476193,-0.3636037 0.913036,-0.4990685 1.506989,-0.467327 0.866725,0.046293 1.529279,0.4968238 1.903058,1.29396911 0.137841,0.2939802 0.165154,0.4403109 0.165154,0.8849454 0,0.4446258 -0.02734,0.5909565 -0.165154,0.8849367 -0.218199,0.4653356 -0.542986,0.8151212 -0.959242,1.033058 l -0.339645,0.1778276 -0.02568,2.4774368 c -0.02411,2.3311323 -0.03398,2.507047 -0.16601,2.9788199 -0.585471,2.0914031 -2.052018,3.5895081 -4.114212,4.2027471 -0.470769,0.139989 -0.709905,0.170307 -1.500141,0.190169 -0.670345,0.01686 -1.056982,-0.0026 -1.347468,-0.06752 z m 2.114881,-2.194637 c 1.735355,-0.409164 2.836281,-1.8847862 2.836281,-3.8016104 V 7.4543455 H 11.983024 8.1817633 l 0.041315,0.7050652 c 0.049001,0.8359444 0.1462957,1.2347835 0.4525568,1.8548173 0.430039,0.870639 1.3027211,1.565877 2.2901149,1.824465 0.564682,0.147886 1.435809,0.162813 1.982263,0.03398 z"
       id="path238" /></g></svg>
