<?xml version="1.0" encoding="UTF-8" standalone="no"?>
<svg
   width="40.000008"
   height="5.9999995"
   version="1.1"
   id="svg24"
   sodipodi:docname="logo-simple.svg"
   inkscape:version="1.2.2 (b0a84865, 2022-12-01)"
   xmlns:inkscape="http://www.inkscape.org/namespaces/inkscape"
   xmlns:sodipodi="http://sodipodi.sourceforge.net/DTD/sodipodi-0.dtd"
   xmlns="http://www.w3.org/2000/svg"
   xmlns:svg="http://www.w3.org/2000/svg">
  <defs
     id="defs13">
    <filter
       style="color-interpolation-filters:sRGB"
       inkscape:label="Drop Shadow"
       id="filter3499"
       x="0"
       y="0"
       width="1.0083513"
       height="1.0541799">
      <feFlood
         flood-opacity="0.14902"
         flood-color="rgb(26,26,26)"
         result="flood"
         id="feFlood3489" />
      <feComposite
         in="flood"
         in2="SourceGraphic"
         operator="in"
         result="composite1"
         id="feComposite3491" />
      <feGaussianBlur
         in="composite1"
         stdDeviation="0"
         result="blur"
         id="feGaussianBlur3493" />
      <feOffset
         dx="4"
         dy="4"
         result="offset"
         id="feOffset3495" />
      <feComposite
         in="SourceGraphic"
         in2="offset"
         operator="over"
         result="composite2"
         id="feComposite3497" />
    </filter>
  </defs>
  <sodipodi:namedview
     id="namedview26"
     pagecolor="#ffffff"
     bordercolor="#000000"
     borderopacity="0.25"
     inkscape:showpageshadow="2"
     inkscape:pageopacity="0.0"
     inkscape:pagecheckerboard="0"
     inkscape:deskcolor="#d1d1d1"
     showgrid="false"
     showguides="true"
     inkscape:zoom="13.021004"
     inkscape:cx="19.698942"
     inkscape:cy="-6.2207184"
     inkscape:window-width="1278"
     inkscape:window-height="872"
     inkscape:window-x="162"
     inkscape:window-y="0"
     inkscape:window-maximized="0"
     inkscape:current-layer="svg24" />
  <g
     id="g5318"
     transform="matrix(0.02004808,0,0,0.01862205,7.6945831,-3.8754703)">
    <path
       style="display:inline;fill:#141414;fill-opacity:0.14902"
       d="m 22.44545,521.90529 c 0.40193,-4.62291 0.9227,-8.59935 1.15725,-8.83653 0.9677,-0.97857 53.12519,-2.15216 83.14784,-1.87089 L 139.00108,511.5 139.00054,494.95033 139,478.40067 l 7.47892,-2.20034 c 4.1134,-1.21018 7.8259,-2.20035 8.25,-2.20037 0.42409,-3e-5 0.68906,12.03747 0.58882,26.75 l -0.18226,26.75004 -54.81774,0.59926 c -30.14976,0.3296 -60.16944,0.96198 -66.71041,1.40529 l -11.89267,0.80602 z m 151.87763,0.0611 c 0.35031,-4.54283 0.87749,-8.50025 1.17151,-8.79426 1.07295,-1.07295 51.85081,-2.27771 83.40618,-1.9789 L 291.30154,511.5 290.88169,489 c -0.23092,-12.375 -0.2773,-19.9125 -0.10306,-16.75 0.17424,3.1625 0.63283,5.74656 1.01909,5.74236 0.38625,-0.004 3.62728,-0.90076 7.20228,-1.99236 3.575,-1.0916 6.8375,-1.98816 7.25,-1.99236 0.4125,-0.004 0.75,12.08194 0.75,26.85809 v 26.86574 l -58.25,0.66126 c -32.0375,0.3637 -62.03312,0.92497 -66.65693,1.24728 l -8.40693,0.58601 0.63694,-8.25968 z M 685.5,527.56865 c -8.3103,-1.64206 -13.017,-3.28644 -21.1324,-7.38307 -9.3667,-4.72832 -20.7723,-13.85712 -25.5025,-20.41178 -1.9126,-2.65022 -1.8196,-2.62876 3.3338,0.76985 12.5238,8.25936 27.86,12.04616 45.3061,11.18694 18.1401,-0.8934 31.7695,-6.44308 44.0607,-17.94093 10.4254,-9.75245 16.5824,-20.9409 20.4881,-37.23102 2.4227,-10.10454 2.5843,-32.7599 0.4462,-62.55864 -0.809,-11.275 -1.4774,-22.4125 -1.4855,-24.75 L 751,365 l 8.75,-0.002 8.75,-0.002 -0.3372,12.75182 c -0.1854,7.0135 0.4361,24.90182 1.3811,39.75182 2.1232,33.36094 1.6466,47.49563 -2.0214,59.96277 -3.9819,13.53374 -8.7497,21.77962 -18.0077,31.14436 -12.7636,12.91067 -26.8056,18.85441 -46.8831,19.84486 -6.5606,0.32364 -12.599,0.0123 -17.1317,-0.88334 z m 222,-1.07069 c -1.1,-0.18925 -7.224,-0.87542 -13.6089,-1.52481 -6.3849,-0.6494 -12.1646,-1.52417 -12.8438,-1.94394 -0.9009,-0.55679 -1.0418,-2.56707 -0.5208,-7.43226 l 0.7142,-6.66903 6.1297,0.72819 c 3.3713,0.4005 16.2546,0.74474 28.6296,0.76497 24.8872,0.0407 35.2063,-1.26477 51.146,-6.47048 33.8335,-11.04964 53.596,-32.17374 60.3544,-64.51298 4.0689,-19.46956 0.21,-45.57222 -8.9977,-60.86312 l -3.4172,-5.67486 3.8151,3.0216 c 8.6944,6.88615 16.5815,17.80794 20.6332,28.57234 9.2087,24.46535 8.1427,50.58895 -2.9791,73.00642 -2.4558,4.95 -6.5069,11.57482 -9.0024,14.72183 -12.1498,15.32172 -32.1239,26.27661 -59.0523,32.38761 -5.1611,1.17124 -13.8301,1.67314 -33,1.91058 -14.3,0.17712 -26.9,0.16719 -28,-0.0221 z M -105,525.31341 c -5.69618,-0.94379 -15.91288,-4.69396 -22,-8.07536 -3.98805,-2.21538 -10.17131,-7.24842 -16,-13.02369 -5.225,-5.17711 -7.91348,-8.26686 -5.9744,-6.86611 5.07289,3.66454 15.44687,8.31368 22.9744,10.29606 8.6874,2.28784 26.23666,2.29965 35,0.0235 31.85065,-8.27257 56.61145,-40.89942 66.91135,-88.16785 8.22494,-37.74597 7.80119,-89.08865 -1.03167,-125 C -29.98215,274.73345 -38.03373,255.7261 -46.08868,245 l -4.13032,-5.5 7.20881,7 c 10.30976,10.01112 16.43346,18.42843 22.55289,31 14.25127,29.27736 20.4408,68.25537 18.30589,115.27963 -3.71358,81.7965 -38.96672,133.77646 -90.25855,133.08419 -5.54952,-0.0749 -11.21504,-0.32258 -12.59004,-0.55041 z m 1294.9045,-1.99602 c -0.053,-0.44957 -0.165,-4.92414 -0.25,-9.94351 l -0.1545,-9.12611 6.5,-0.61678 c 3.575,-0.33922 11.0859,-0.61997 16.691,-0.62388 5.605,-0.004 10.3949,-0.34461 10.6442,-0.75711 0.2493,-0.4125 -0.1421,-11.1 -0.8697,-23.75 -2.7367,-47.57539 -3.7504,-86.91694 -3.8563,-149.66662 -0.06,-35.56664 0.1501,-64.92593 0.467,-65.24286 0.3169,-0.31693 11.2294,-0.87628 24.25,-1.243 L 1267,261.68076 v -11.6966 -11.69661 l 8.163,-0.68077 c 4.4897,-0.37442 8.4792,-0.32662 8.8657,0.10623 0.7,0.7841 -0.9277,39.37815 -1.6972,40.24019 -0.2225,0.24927 -10.6256,0.69927 -23.118,1 L 1236.5,279.5 l -0.6511,5.5 c -1.0402,8.78641 -0.9226,102.39668 0.1739,138.5 0.9039,29.76103 1.546,44.55974 3.6054,83.08958 l 0.6462,12.08957 -13.3872,0.61171 c -11.7585,0.53729 -30.0448,2.784 -35.1372,4.31708 -0.9625,0.28976 -1.793,0.15901 -1.8455,-0.29055 z m 318.0602,-1.25938 c -17.1119,-3.61125 -30.8046,-11.36931 -40.9208,-23.18521 -3.0009,-3.50504 -4.5759,-5.63583 -3.5,-4.73509 3.9541,3.31045 15.0542,8.13171 24.3781,10.58846 7.9937,2.10625 11.8937,2.53037 23.578,2.56413 48.9177,0.14133 77.6496,-24.73933 83.4802,-72.2903 2.4569,-20.03769 -2.4909,-42.11292 -12.8938,-57.52715 -1.6603,-2.46007 -2.6261,-4.47285 -2.1462,-4.47285 1.3992,0 13.9464,13.96146 18.3001,20.3628 4.8699,7.16038 9.0092,16.12137 11.4072,24.69505 1.4166,5.06503 1.79,9.96931 1.7467,22.94215 -0.048,14.46048 -0.3729,17.68526 -2.6262,26.08896 -6.9143,25.78704 -24.2924,44.99393 -47.268,52.24216 -15.4518,4.87466 -37.9322,6.01973 -53.5353,2.72689 z M 329.19463,514.5133 c 0.245,-4.66769 0.74613,-8.7874 1.11364,-9.1549 0.36751,-0.36751 7.98599,-1.39635 16.92996,-2.2863 L 363.5,501.45399 363.289,497.477 c -0.11605,-2.18735 -0.90619,-16.352 -1.75587,-31.477 -3.14764,-56.03079 -4.63606,-166.26305 -2.87267,-212.75 l 0.65434,-17.25 8.0926,-1.6e-4 8.0926,-1.7e-4 -0.34459,82.75017 c -0.34811,83.59463 0.42255,122.09322 3.44449,172.07112 0.87533,14.47653 1.40054,26.51193 1.16714,26.74534 -0.38198,0.38198 -46.32684,5.40248 -49.64244,5.42455 -1.09461,0.007 -1.28447,-1.72343 -0.92997,-8.47755 z M 1072,514.11129 v -8.88871 l 3.25,-0.55817 c 1.7875,-0.307 9.2617,-1.12351 16.6094,-1.81447 9.0921,-0.85501 13.5189,-1.6722 13.859,-2.55838 0.2748,-0.71616 -0.2382,-13.78723 -1.1401,-29.04683 -0.9018,-15.2596 -2.0674,-40.56973 -2.5902,-56.24473 -1.0527,-31.56109 -1.3249,-169.32912 -0.3463,-175.25 l 0.6199,-3.75 h 8.5072 8.5073 l -0.6104,6.25 c -1.3585,13.91145 -1.8456,114.47747 -0.7764,160.28315 1.0244,43.88308 3.104,91.73478 4.7248,108.71685 0.3543,3.7125 0.2486,6.75412 -0.235,6.75915 -0.4836,0.005 -11.6236,1.13004 -24.7557,2.5 -13.132,1.36997 -24.2695,2.49085 -24.75,2.49085 -0.4804,0 -0.8735,-3.99992 -0.8735,-8.88871 z m 230.4488,-0.24496 c 0.4001,-4.60148 0.9209,-8.56199 1.1575,-8.80113 1.098,-1.11026 55.347,-2.18039 85.7649,-1.69182 l 33.8712,0.54403 -0.5707,-3.7087 c -0.3139,-2.03979 -0.8732,-7.55834 -1.2429,-12.26344 l -0.6722,-8.55473 6.5888,-1.21402 c 3.6238,-0.66772 7.2084,-1.45182 7.9658,-1.74245 1.115,-0.42787 1.5066,2.38222 2.0583,14.76876 0.3747,8.41344 0.9539,18.27527 1.2872,21.91518 l 0.606,6.61801 -60.8814,0.64691 c -33.4847,0.35579 -64.4315,0.91754 -68.7706,1.24832 l -7.8892,0.60142 z m -1533.61883,6.18118 C -240.33855,519.74638 -248.04691,519.275 -248.29973,519 -249.50099,517.69334 -254,507.89302 -254,506.58293 c 0,-0.81595 -0.7875,-1.93826 -1.75,-2.49401 -1.68409,-0.97241 24.69468,-0.71408 40.5,0.39662 3.4375,0.24156 6.25,0.1836 6.25,-0.12881 0,-0.31241 -1.19585,-1.98298 -2.65744,-3.71237 -4.79474,-5.67327 -10.17357,-19.88816 -12.83561,-33.92131 -0.83994,-4.42781 -2.20966,-17.31436 -3.04382,-28.6368 -0.83416,-11.32244 -2.23695,-24.63625 -3.11732,-29.58625 -1.6233,-9.1272 -5.37179,-20.6132 -7.61542,-23.33489 -2.95617,-3.58605 3.99381,1.40123 8.76961,6.29304 11.81031,12.09721 15.92196,26.10836 18.5,63.04185 0.57587,8.25 1.51405,18.53242 2.08486,22.84981 1.90843,14.43483 7.94779,32.07101 13.45495,39.29128 1.35311,1.774 2.46019,3.48049 2.46019,3.79219 0,0.60716 -11.46632,0.49128 -38.17003,-0.38577 z M -366.51729,511.25 c 0.3329,-2.6125 0.83086,-6.2125 1.10659,-8 l 0.50133,-3.25 -5.29532,-0.22107 c -2.91242,-0.12159 4.82969,-0.45909 17.20469,-0.75 l 22.5,-0.52893 0.25785,-60.37194 0.25786,-60.37195 8.86898,0.42403 c 11.71308,0.56001 19.48275,4.20906 27.57671,12.95151 3.10422,3.35293 5.46551,6.27477 5.24731,6.49297 -0.2182,0.21821 -2.37943,-0.3155 -4.80272,-1.18602 -2.42329,-0.87051 -8.00599,-1.66282 -12.40599,-1.76068 l -8,-0.17792 -0.25775,60.09969 -0.25774,60.09968 -9.74226,0.64514 c -5.35824,0.35483 -17.30732,0.64747 -26.55352,0.65032 L -367.12255,516 Z M 513.54499,514 c -1.38341,-4.81482 -2.70982,-14.16824 -2.09603,-14.78055 0.39665,-0.3957 11.15991,-0.71945 23.91835,-0.71945 h 23.19716 L 558.15622,420 c -0.25326,-48.69604 0.0665,-95.77491 0.8421,-124 1.21844,-44.33832 2.5171,-75.30799 2.84098,-67.75 L 562,232 h 8.45289 8.45288 l -0.46595,4.75 c -2.72978,27.82816 -4.87504,164.57196 -3.59651,229.25 0.5273,26.675 0.89077,48.56704 0.80771,48.64898 -0.0831,0.082 -13.99393,0.30695 -30.91303,0.5 -26.68878,0.30454 -30.81908,0.1524 -31.193,-1.14898 z M 418.75,514.25669 411,513.91587 v -8.07741 -8.07741 l 16,0.40719 16,0.40719 -0.002,-2.53772 C 442.997,494.64197 442.33905,487.2 441.5361,479.5 c -3.75693,-36.02761 -3.94327,-94.16528 -0.5064,-158 0.53302,-9.9 0.96938,-19.7625 0.9697,-21.91667 3.2e-4,-2.15416 0.25796,-3.65929 0.57253,-3.34472 0.31457,0.31457 3.81706,11.30207 7.78332,24.41667 l 7.2114,23.84472 -0.70354,10.5 c -0.38696,5.775 -1.02206,27.825 -1.41134,49 -0.73152,39.79107 0.1959,68.81063 3.08401,96.5 0.80314,7.7 1.46114,14.1125 1.46224,14.25 0.003,0.32321 -31.15396,-0.0494 -41.24802,-0.49331 z m -409,-0.96242 c 1.2375,-0.23836 3.2625,-0.23836 4.5,0 1.2375,0.23835 0.225,0.43337 -2.25,0.43337 -2.475,0 -3.4875,-0.19502 -2.25,-0.43337 z m 151.51375,-0.0118 c 1.52006,-0.22986 3.77006,-0.22371 5,0.0136 1.22994,0.23736 -0.0137,0.42542 -2.76375,0.41792 -2.75,-0.008 -3.75631,-0.20172 -2.23625,-0.43157 z M 5.19495,507.5 c 0.0204,-1.65 0.2445,-2.20394 0.49804,-1.23097 0.25354,0.97297 0.23687,2.32297 -0.0371,3 C 5.38196,509.94606 5.17452,509.15 5.1949,507.5 Z m 152,-1 c 0.0204,-1.65 0.2445,-2.20394 0.49804,-1.23097 0.25354,0.97297 0.23687,2.32297 -0.0371,3 -0.27393,0.67703 -0.48137,-0.11903 -0.46099,-1.76903 z M 874.75,508.33772 c 0.6875,-0.27741 1.8125,-0.27741 2.5,0 0.6875,0.27741 0.125,0.50439 -1.25,0.50439 -1.375,0 -1.9375,-0.22698 -1.25,-0.50439 z m -6.9375,-1.02083 c 0.7219,-0.28887 1.5844,-0.25335 1.9167,0.0789 0.3323,0.33229 -0.2584,0.56864 -1.3125,0.52522 -1.165,-0.048 -1.4019,-0.28494 -0.6042,-0.60416 z m 304.5326,-0.86002 c -0.3257,-0.84872 -0.3687,-1.76657 -0.096,-2.03966 0.2731,-0.2731 0.7365,0.42131 1.0299,1.54313 0.6231,2.38293 -0.069,2.75089 -0.9343,0.49653 z M 312.18908,500.75 l 0.18909,-6.25 0.35893,5.68674 c 0.31075,4.92343 0.6545,5.74407 2.56092,6.11382 1.82948,0.35483 1.73677,0.45011 -0.54802,0.56326 -2.73997,0.13568 -2.74931,0.11339 -2.56092,-6.11382 z m 551.06312,2.75 c 0.011,-2.2 0.2159,-2.98225 0.4551,-1.73834 0.2392,1.24391 0.2301,3.04391 -0.02,4 -0.2503,0.95609 -0.446,-0.0617 -0.4349,-2.26166 z m 193.0168,2.80701 c 0.973,-0.25354 2.323,-0.23687 3,0.0371 0.6771,0.27393 -0.119,0.48137 -1.769,0.46099 -1.65,-0.0204 -2.2039,-0.2445 -1.231,-0.49804 z m 121.5435,0.01 c 0.7219,-0.28887 1.5844,-0.25335 1.9167,0.0789 0.3323,0.33229 -0.2584,0.56864 -1.3125,0.52522 -1.165,-0.048 -1.4019,-0.28494 -0.6042,-0.60416 z m -854.54347,-1.00988 c 0.97297,-0.25354 2.32297,-0.23687 3,0.0371 0.67703,0.27393 -0.11903,0.48137 -1.76903,0.46099 -1.65,-0.0204 -2.20394,-0.2445 -1.23097,-0.49804 z m 742.99997,0 c 0.973,-0.25354 2.323,-0.23687 3,0.0371 0.6771,0.27393 -0.119,0.48137 -1.769,0.46099 -1.65,-0.0204 -2.2039,-0.2445 -1.231,-0.49804 z m 117.5435,0.01 c 0.7219,-0.28887 1.5844,-0.25335 1.9167,0.0789 0.3323,0.33229 -0.2584,0.56864 -1.3125,0.52522 -1.165,-0.048 -1.4019,-0.28494 -0.6042,-0.60416 z m 105.9492,-0.0242 c 1.2439,-0.23919 3.0439,-0.23011 4,0.0202 0.956,0.25029 -0.062,0.446 -2.2617,0.4349 -2.2,-0.0111 -2.9823,-0.21589 -1.7383,-0.45508 z M 1055.3818,492.5 c 0,-6.6 0.1638,-9.16987 0.3596,-5.71081 0.1958,3.45905 0.1942,8.85905 0,12 -0.1978,3.14094 -0.358,0.31081 -0.356,-6.28919 z m 229.8502,7.5 c 0,-1.925 0.2058,-2.7125 0.4573,-1.75 0.2516,0.9625 0.2516,2.5375 0,3.5 -0.2515,0.9625 -0.4573,0.175 -0.4573,-1.75 z m -1669.03705,-2.5 c 0.0204,-1.65 0.2445,-2.20394 0.49804,-1.23097 0.25354,0.97297 0.23687,2.32297 -0.0371,3 -0.27393,0.67703 -0.48137,-0.11903 -0.46099,-1.76903 z m 884.07408,1.80701 c 0.97297,-0.25354 2.32297,-0.23687 3,0.0371 0.67703,0.27393 -0.11903,0.48137 -1.76903,0.46099 -1.65,-0.0204 -2.20394,-0.2445 -1.23097,-0.49804 z M 6.232,496 c 0,-1.925 0.2058,-2.7125 0.45733,-1.75 0.25152,0.9625 0.25152,2.5375 0,3.5 C 6.4378,498.7125 6.232,497.925 6.232,496 Z m 152,-1 c 0,-1.925 0.2058,-2.7125 0.45733,-1.75 0.25152,0.9625 0.25152,2.5375 0,3.5 -0.25153,0.9625 -0.45733,0.175 -0.45733,-1.75 z m 236.13323,-6.5 c 0.003,-5.5 0.17053,-7.62242 0.37317,-4.71648 0.20265,2.90594 0.20052,7.40594 -0.005,10 -0.20525,2.59406 -0.37104,0.21648 -0.36844,-5.28352 z m 101.71372,6.91667 c 0.048,-1.16495 0.28494,-1.4019 0.60416,-0.60417 0.28887,0.72187 0.25335,1.58438 -0.0789,1.91667 -0.33229,0.33229 -0.56864,-0.25834 -0.52522,-1.3125 z M 632.8724,494.25 c -1.2438,-1.58606 -1.2085,-1.62143 0.3776,-0.37756 1.6657,1.30637 2.1955,2.12756 1.3724,2.12756 -0.2076,0 -0.9951,-0.7875 -1.75,-1.75 z m 540.4136,-3.75 c 0.01,-2.75 0.2017,-3.75631 0.4316,-2.23625 0.2298,1.52006 0.2237,3.77006 -0.014,5 -0.2373,1.22994 -0.4254,-0.0138 -0.4179,-2.76375 z m -309.0338,0 c 0.011,-2.2 0.2159,-2.98225 0.4551,-1.73834 0.2392,1.24391 0.2301,3.04391 -0.02,4 -0.2503,0.95609 -0.446,-0.0617 -0.4349,-2.26166 z m -1024.78979,-2.75 -4.96241,-5.25 5.25,4.96241 c 4.87839,4.61116 5.7086,5.53759 4.96241,5.53759 -0.15818,0 -2.52068,-2.3625 -5.25,-5.25 z m 1619.40999,3.5 c -1.2438,-1.58606 -1.2085,-1.62143 0.3776,-0.37756 1.6657,1.30637 2.1955,2.12756 1.3724,2.12756 -0.2076,0 -0.9951,-0.7875 -1.75,-1.75 z M -382.80505,489.5 c 0.0204,-1.65 0.2445,-2.20394 0.49804,-1.23097 0.25354,0.97297 0.23687,2.32297 -0.0371,3 -0.27393,0.67703 -0.48137,-0.11903 -0.46099,-1.76903 z m 877.884,0.91667 c 0.048,-1.16495 0.28494,-1.4019 0.60416,-0.60417 0.28887,0.72187 0.25335,1.58438 -0.0789,1.91667 -0.33229,0.33229 -0.56864,-0.25834 -0.52522,-1.3125 z M 1286.232,489 c 0,-1.925 0.2058,-2.7125 0.4573,-1.75 0.2516,0.9625 0.2516,2.5375 0,3.5 -0.2515,0.9625 -0.4573,0.175 -0.4573,-1.75 z m -1279,-5 c 0,-1.925 0.2058,-2.7125 0.45733,-1.75 0.25152,0.9625 0.25152,2.5375 0,3.5 C 7.4378,486.7125 7.232,485.925 7.232,484 Z m 152,-2 c 0,-1.925 0.2058,-2.7125 0.45733,-1.75 0.25152,0.9625 0.25152,2.5375 0,3.5 -0.25153,0.9625 -0.45733,0.175 -0.45733,-1.75 z m 461.6404,0.25 c -1.2438,-1.58606 -1.2085,-1.62143 0.3776,-0.37756 1.6657,1.30637 2.1955,2.12756 1.3724,2.12756 -0.2076,0 -0.9951,-0.7875 -1.75,-1.75 z m 829,0 c -1.2438,-1.58606 -1.2085,-1.62143 0.3776,-0.37756 1.6657,1.30637 2.1955,2.12756 1.3724,2.12756 -0.2076,0 -0.9951,-0.7875 -1.75,-1.75 z M -381.768,479 c 0,-1.925 0.2058,-2.7125 0.45733,-1.75 0.25152,0.9625 0.25152,2.5375 0,3.5 -0.25153,0.9625 -0.45733,0.175 -0.45733,-1.75 z m 1049.3777,-4.26409 c -31.5362,-32.22117 -42.3925,-120.72924 -22.5082,-183.50249 5.3349,-16.84201 13.9676,-32.44939 21.9243,-39.63779 5.6553,-5.10922 10.183,-6.89733 15.3511,-6.06263 5.2735,0.85172 12.4704,3.97492 15.3128,6.64525 l 2.2147,2.08055 -2.4522,3.21499 c -1.3487,1.76825 -2.4522,3.76157 -2.4522,4.42962 0,0.66804 -0.4368,0.94468 -0.9706,0.61474 -0.5339,-0.32994 -2.3278,0.10192 -3.9865,0.95968 -15.3893,7.95811 -29.1239,36.69508 -35.6172,74.52217 -2.5306,14.742 -3.0688,53.82745 -0.9892,71.83134 2.7733,24.00943 9.8162,48.61377 18.5826,64.91866 2.144,3.9875 3.6286,7.25 3.2991,7.25 -0.3294,0 -3.7982,-3.26884 -7.7085,-7.26409 z M -168.12756,479.25 c -1.24387,-1.58606 -1.2085,-1.62143 0.37756,-0.37756 1.66575,1.30637 2.19548,2.12756 1.37244,2.12756 -0.20765,0 -0.99515,-0.7875 -1.75,-1.75 z M 700.5,478 c 0.9955,-1.1 2.035,-2 2.31,-2 0.275,0 -0.3145,0.9 -1.31,2 -0.9955,1.1 -2.035,2 -2.31,2 -0.275,0 0.3145,-0.9 1.31,-2 z m 586.732,-1 c 0,-1.925 0.2058,-2.7125 0.4573,-1.75 0.2516,0.9625 0.2516,2.5375 0,3.5 -0.2515,0.9625 -0.4573,0.175 -0.4573,-1.75 z m -1561.15305,0.41667 c 0.048,-1.16495 0.28494,-1.4019 0.60416,-0.60417 0.28887,0.72187 0.25335,1.58438 -0.0789,1.91667 -0.3323,0.33229 -0.56864,-0.25834 -0.52522,-1.3125 z M 865.3099,472.5 c 0.01,-3.3 0.1923,-4.52944 0.4148,-2.73209 0.2226,1.79735 0.218,4.49735 -0.01,6 -0.2281,1.50265 -0.4102,0.0321 -0.4046,-3.26791 z m 59.8127,4.77702 -5.3774,-0.39038 0.7338,-54.69332 c 0.4035,-30.08133 0.9496,-54.91832 1.2135,-55.19332 0.2639,-0.275 4.6035,-0.476 9.6436,-0.44668 7.7112,0.0449 10.0731,0.47098 14.8994,2.68802 7.5679,3.47649 11.669,6.70529 15.77,12.4158 2.4848,3.46006 2.8967,4.51931 1.5576,4.00544 -5.034,-1.93174 -10.7799,-2.73811 -17.5631,-2.46478 l -7.5,0.3022 -0.6319,13.5 c -0.3475,7.425 -0.685,28.4625 -0.75,46.75 -0.092,25.86233 -0.3958,33.25303 -1.3681,33.26365 -0.6875,0.008 -2.15,0.15768 -3.25,0.3337 -1.1,0.17602 -4.4198,0.14437 -7.3774,-0.0703 z M -120,473.91869 c -12.96024,-7.67924 -22.09964,-31.57016 -26.17336,-68.41869 -1.78472,-16.14353 -1.78243,-75.13659 0.003,-90 5.80731,-48.33146 17.76691,-70.79961 37.71682,-70.85746 10.04042,-0.0291 16.82164,4.43216 23.83486,15.68065 1.72631,2.76882 1.72159,2.80251 -0.24506,1.75 -2.51807,-1.34763 -9.51014,-1.37498 -14.25942,-0.0558 -1.99246,0.55345 -5.70371,2.83808 -8.24721,5.07696 -11.1655,9.82827 -18.71091,32.29202 -22.09203,65.7711 -5.34026,52.87795 -0.60225,112.47492 10.96193,137.88452 1.31413,2.8875 2.30173,5.24832 2.19466,5.24626 -0.10659,-0.002 -1.76919,-0.93696 -3.69419,-2.07757 z M 1174.286,471.5 c 0.01,-2.75 0.2017,-3.75631 0.4316,-2.23625 0.2298,1.52006 0.2237,3.77006 -0.014,5 -0.2373,1.22994 -0.4254,-0.0138 -0.4179,-2.76375 z m 333.6433,3.13263 c -5.6652,-1.52751 -12.5292,-5.50719 -16.2493,-9.42119 l -2.82,-2.96699 3.231,-1.12633 c 11.4727,-3.99939 18.571,-18.00405 16.1105,-31.78535 -0.5728,-3.20802 -1.3779,-6.69148 -1.7891,-7.74101 -0.6815,-1.73893 -0.3674,-1.69457 3.5401,0.5 5.0686,2.84667 8.1788,6.33687 11.8529,13.3008 2.4308,4.60736 2.6946,6.13551 2.6946,15.60744 0,9.55425 -0.2384,10.90543 -2.6464,15.00122 -1.4555,2.47567 -3.6036,5.36754 -4.7736,6.42637 -1.6168,1.46323 -1.8217,2.11911 -0.8536,2.73347 1.9271,1.22304 -2.9542,0.91215 -8.2971,-0.52843 z M 8.27236,471 c 0,-2.475 0.19502,-3.4875 0.43337,-2.25 0.23836,1.2375 0.23836,3.2625 0,4.5 -0.23835,1.2375 -0.43337,0.225 -0.43337,-2.25 z M -274.768,470 c 0,-1.925 0.2058,-2.7125 0.45733,-1.75 0.25152,0.9625 0.25152,2.5375 0,3.5 -0.25153,0.9625 -0.45733,0.175 -0.45733,-1.75 z m 435.04036,-1 c 0,-2.475 0.19502,-3.4875 0.43337,-2.25 0.23836,1.2375 0.23836,3.2625 0,4.5 -0.23835,1.2375 -0.43337,0.225 -0.43337,-2.25 z M 57.64017,468.38614 C 56.30699,459.8989 55.76922,348.8551 56.89733,315 c 1.15347,-34.61591 2.68189,-64.92409 3.66241,-72.62458 l 0.52519,-4.12458 8.07828,-0.70468 c 4.44305,-0.38757 8.39737,-0.33151 8.78737,0.12458 0.39,0.45609 -0.0776,11.5282 -1.03902,24.60469 C 73.23846,312.23181 71.3124,396.03809 72.75809,443 c 0.46561,15.125 0.78617,27.61184 0.71236,27.74854 -0.0738,0.1367 -3.52847,0.53547 -7.67703,0.88615 l -7.54282,0.6376 z M 209.49464,470.25 c -1.29509,-3.15066 -1.78152,-126.29324 -0.62709,-158.75 1.30022,-36.55544 3.23196,-71.0528 4.05106,-72.34427 0.31976,-0.50418 4.29389,-1.24231 8.83139,-1.64029 l 8.25,-0.7236 v 3.97491 c 0,2.18619 -0.65361,13.14553 -1.45246,24.35408 -3.10602,43.57979 -3.96909,73.76131 -3.97551,139.02302 l -0.007,66.64386 -4.42231,0.60614 c -7.36127,1.00898 -9.87458,0.739 -10.64853,-1.14385 z m 103.8939,-10.75 c 0.002,-7.15 0.16103,-9.94379 0.35396,-6.20841 0.19293,3.73537 0.19149,9.58537 -0.003,13 -0.19468,3.41462 -0.35253,0.35841 -0.35078,-6.79159 z M 77.26903,470.30701 c 0.97297,-0.25354 2.32297,-0.23687 3,0.0371 0.67703,0.27393 -0.11903,0.48137 -1.76903,0.46099 -1.65,-0.0204 -2.20394,-0.2445 -1.23097,-0.49804 z m 152,0 c 0.97297,-0.25354 2.32297,-0.23687 3,0.0371 0.67703,0.27393 -0.11903,0.48137 -1.76903,0.46099 -1.65,-0.0204 -2.20394,-0.2445 -1.23097,-0.49804 z M -380.71399,465.5 c 0.008,-2.75 0.20172,-3.75631 0.43157,-2.23625 0.22986,1.52006 0.22371,3.77006 -0.0136,5 -0.23736,1.22994 -0.42542,-0.0138 -0.41792,-2.76375 z m 466.52649,3.81689 c 0.72187,-0.28887 1.58438,-0.25335 1.91667,0.0789 0.33229,0.33229 -0.25834,0.56864 -1.3125,0.52522 -1.16495,-0.048 -1.4019,-0.28494 -0.60417,-0.60416 z m 152,0 c 0.72187,-0.28887 1.58438,-0.25335 1.91667,0.0789 0.33229,0.33229 -0.25834,0.56864 -1.3125,0.52522 -1.16495,-0.048 -1.4019,-0.28494 -0.60417,-0.60416 z m -146,-1 c 0.72187,-0.28887 1.58438,-0.25335 1.91667,0.0789 0.33229,0.33229 -0.25834,0.56864 -1.3125,0.52522 -1.16495,-0.048 -1.4019,-0.28494 -0.60417,-0.60416 z m 152,0 c 0.72187,-0.28887 1.58438,-0.25335 1.91667,0.0789 0.33229,0.33229 -0.25834,0.56864 -1.3125,0.52522 -1.16495,-0.048 -1.4019,-0.28494 -0.60417,-0.60416 z M 1337.6433,465.75 c -0.321,-1.7875 -0.8922,-23.99177 -1.2692,-49.34283 l -0.6855,-46.09283 10.9057,0.37461 c 11.3774,0.39081 31.3251,1.78061 42.312,2.94797 l 6.4064,0.68068 -0.6126,-5.4088 c -0.337,-2.97484 -0.7938,-12.6088 -1.0152,-21.4088 -0.2213,-8.8 -0.2228,-12.23703 0,-7.63785 l 0.3993,8.36215 6.6337,-0.7104 c 3.6486,-0.39073 7.1603,-0.91248 7.8039,-1.15945 0.8572,-0.32894 1.3438,4.97987 1.8194,19.84825 0.3571,11.16352 0.7646,21.1973 0.9056,22.2973 0.3019,2.35581 0.5023,2.34827 -17.2437,0.64816 -6.875,-0.65864 -19.025,-1.29892 -27,-1.42284 l -14.5,-0.22532 0.3976,40.09548 0.3976,40.09548 -3.2726,0.65452 c -1.7999,0.35999 -5.1903,0.65452 -7.5341,0.65452 -4.0215,0 -4.2944,-0.18307 -4.8452,-3.25 z M 96.8125,467.31689 c 0.72187,-0.28887 1.58438,-0.25335 1.91667,0.0789 0.33229,0.33229 -0.25834,0.56864 -1.3125,0.52522 -1.16495,-0.048 -1.4019,-0.28494 -0.60417,-0.60416 z m 152,0 c 0.72187,-0.28887 1.58438,-0.25335 1.91667,0.0789 0.33229,0.33229 -0.25834,0.56864 -1.3125,0.52522 -1.16495,-0.048 -1.4019,-0.28494 -0.60417,-0.60416 z m 1113.4375,-0.006 c 0.9625,-0.25152 2.5375,-0.25152 3.5,0 0.9625,0.25153 0.175,0.45733 -1.75,0.45733 -1.925,0 -2.7125,-0.2058 -1.75,-0.45733 z M 1288.2522,463.5 c 0.011,-2.2 0.2159,-2.98225 0.4551,-1.73834 0.2392,1.24391 0.2301,3.04391 -0.02,4 -0.2503,0.95609 -0.446,-0.0617 -0.4349,-2.26166 z m 86.0168,2.80701 c 0.973,-0.25354 2.323,-0.23687 3,0.0371 0.6771,0.27393 -0.119,0.48137 -1.769,0.46099 -1.65,-0.0204 -2.2039,-0.2445 -1.231,-0.49804 z M 1540.5,465 c 0.9955,-1.1 2.035,-2 2.31,-2 0.275,0 -0.3145,0.9 -1.31,2 -0.9955,1.1 -2.035,2 -2.31,2 -0.275,0 0.3145,-0.9 1.31,-2 z m -157.231,0.30701 c 0.973,-0.25354 2.323,-0.23687 3,0.0371 0.6771,0.27393 -0.119,0.48137 -1.769,0.46099 -1.65,-0.0204 -2.2039,-0.2445 -1.231,-0.49804 z m 8.481,-0.96929 c 0.6875,-0.27741 1.8125,-0.27741 2.5,0 0.6875,0.27741 0.125,0.50439 -1.25,0.50439 -1.375,0 -1.9375,-0.22698 -1.25,-0.50439 z M 961,463.62244 c 0,-0.20765 0.7875,-0.99515 1.75,-1.75 1.5861,-1.24387 1.6214,-1.2085 0.3776,0.37756 -1.3064,1.66575 -2.1276,2.19548 -2.1276,1.37244 z m 438.8125,-0.30555 c 0.7219,-0.28887 1.5844,-0.25335 1.9167,0.0789 0.3323,0.33229 -0.2584,0.56864 -1.3125,0.52522 -1.165,-0.048 -1.4019,-0.28494 -0.6042,-0.60416 z m 5,-1 c 0.7219,-0.28887 1.5844,-0.25335 1.9167,0.0789 0.3323,0.33229 -0.2584,0.56864 -1.3125,0.52522 -1.165,-0.048 -1.4019,-0.28494 -0.6042,-0.60416 z M 395.36523,450.5 c 0.003,-5.5 0.17053,-7.62242 0.37317,-4.71648 0.20265,2.90594 0.20052,7.40594 -0.005,10 -0.20525,2.59406 -0.37104,0.21648 -0.36844,-5.28352 z m 314.71367,7.91667 c 0.048,-1.16495 0.285,-1.4019 0.6042,-0.60417 0.2889,0.72187 0.2534,1.58437 -0.079,1.91667 -0.3323,0.33229 -0.5687,-0.25834 -0.5253,-1.3125 z M 9.28601,454.5 c 0.008,-2.75 0.20172,-3.75631 0.43157,-2.23625 0.22986,1.52006 0.22371,3.77006 -0.0136,5 -0.23736,1.22994 -0.42542,-0.0137 -0.41792,-2.76375 z m 152,-2 c 0.008,-2.75 0.20172,-3.75631 0.43157,-2.23625 0.22986,1.52006 0.22371,3.77006 -0.0136,5 -0.23736,1.22994 -0.42542,-0.0137 -0.41792,-2.76375 z m 895.12319,-12 c 0,-9.35 0.1491,-13.3096 0.334,-8.7991 0.1849,4.51049 0.1858,12.16049 0,17 -0.1837,4.8395 -0.335,1.1491 -0.3361,-8.2009 z m 381.6697,14.91667 c 0.048,-1.16495 0.285,-1.4019 0.6042,-0.60417 0.2889,0.72187 0.2534,1.58437 -0.079,1.91667 -0.3323,0.33229 -0.5687,-0.25834 -0.5253,-1.3125 z M 866.3281,449.5 c 0,-3.85 0.1852,-5.30246 0.4017,-3.2277 0.2165,2.07477 0.2128,5.22477 -0.01,7 -0.2209,1.77524 -0.398,0.0777 -0.3936,-3.7723 z m 308.992,0.5 c 0,-3.575 0.1815,-5.0375 0.4033,-3.25 0.2218,1.7875 0.2218,4.7125 0,6.5 -0.2218,1.7875 -0.4033,0.325 -0.4033,-3.25 z m -464.2412,3.41667 c 0.048,-1.16495 0.285,-1.4019 0.6042,-0.60417 0.2889,0.72187 0.2534,1.58437 -0.079,1.91667 -0.3323,0.33229 -0.5687,-0.25834 -0.5253,-1.3125 z M 1289.286,448.5 c 0.01,-2.75 0.2017,-3.75631 0.4316,-2.23625 0.2298,1.52006 0.2237,3.77006 -0.014,5 -0.2373,1.22994 -0.4254,-0.0137 -0.4179,-2.76375 z M -379.66379,443 c 0,-4.125 0.17651,-5.8125 0.39226,-3.75 0.21574,2.0625 0.21574,5.4375 0,7.5 -0.21575,2.0625 -0.39226,0.375 -0.39226,-3.75 z m 1816.94979,1.5 c 0.01,-2.75 0.2017,-3.75631 0.4316,-2.23625 0.2298,1.52006 0.2237,3.77006 -0.014,5 -0.2373,1.22994 -0.4254,-0.0137 -0.4179,-2.76375 z m -1713.03382,0 c 0.0111,-2.2 0.21589,-2.98225 0.45508,-1.73834 0.23919,1.24391 0.23011,3.04391 -0.0202,4 -0.25029,0.95609 -0.446,-0.0617 -0.4349,-2.26166 z M 712.232,445 c 0,-1.925 0.2058,-2.7125 0.4573,-1.75 0.2516,0.9625 0.2516,2.5375 0,3.5 -0.2515,0.9625 -0.4573,0.175 -0.4573,-1.75 z m 837.8469,1.41667 c 0.048,-1.16495 0.285,-1.4019 0.6042,-0.60417 0.2889,0.72187 0.2534,1.58437 -0.079,1.91667 -0.3323,0.33229 -0.5687,-0.25834 -0.5253,-1.3125 z M 10.30987,435.5 c 0.006,-3.3 0.1923,-4.52944 0.41486,-2.73209 0.22256,1.79735 0.21797,4.49735 -0.0102,6 -0.22818,1.50265 -0.41027,0.0321 -0.40466,-3.26791 z m 152,-3 c 0.006,-3.3 0.1923,-4.52944 0.41486,-2.73209 0.22256,1.79735 0.21797,4.49735 -0.0102,6 -0.22818,1.50265 -0.41027,0.0321 -0.40466,-3.26791 z m 810.76903,3.91667 c 0.048,-1.16495 0.285,-1.4019 0.6042,-0.60417 0.2889,0.72187 0.2534,1.58437 -0.079,1.91667 -0.3323,0.33229 -0.5687,-0.25834 -0.5253,-1.3125 z m -1249.99995,-2 c 0.048,-1.16495 0.28494,-1.4019 0.60416,-0.60417 0.28887,0.72187 0.25335,1.58437 -0.0789,1.91667 -0.3323,0.33229 -0.56864,-0.25834 -0.52522,-1.3125 z m 201,-1 c 0.048,-1.16495 0.28494,-1.4019 0.60416,-0.60417 0.28887,0.72187 0.25335,1.58437 -0.0789,1.91667 -0.33229,0.33229 -0.56864,-0.25834 -0.52522,-1.3125 z M 1290.2997,430 c 0,-3.025 0.1874,-4.2625 0.4166,-2.75 0.2291,1.5125 0.2291,3.9875 0,5.5 -0.2292,1.5125 -0.4166,0.275 -0.4166,-2.75 z m 147.7792,2.41667 c 0.048,-1.16495 0.285,-1.4019 0.6042,-0.60417 0.2889,0.72187 0.2534,1.58437 -0.079,1.91667 -0.3323,0.33229 -0.5687,-0.25834 -0.5253,-1.3125 z M 974.1949,430.5 c 0.02,-1.65 0.2445,-2.20394 0.4981,-1.23097 0.2535,0.97297 0.2369,2.32297 -0.037,3 -0.2739,0.67703 -0.4813,-0.11903 -0.461,-1.76903 z m 575.884,0.91667 c 0.048,-1.16495 0.285,-1.4019 0.6042,-0.60417 0.2889,0.72187 0.2534,1.58437 -0.079,1.91667 -0.3323,0.33229 -0.5687,-0.25834 -0.5253,-1.3125 z M 1176.3362,425 c 0,-4.125 0.1765,-5.8125 0.3923,-3.75 0.2157,2.0625 0.2157,5.4375 0,7.5 -0.2158,2.0625 -0.3923,0.375 -0.3923,-3.75 z m -1454.25725,3.41667 c 0.048,-1.16495 0.28494,-1.4019 0.60416,-0.60417 0.28887,0.72187 0.25335,1.58437 -0.0789,1.91667 -0.3323,0.33229 -0.56864,-0.25834 -0.52522,-1.3125 z m -1,-5 c 0.048,-1.16495 0.28494,-1.4019 0.60416,-0.60417 0.28887,0.72187 0.25335,1.58437 -0.0789,1.91667 -0.3323,0.33229 -0.56864,-0.25834 -0.52522,-1.3125 z m 205,0 c 0.048,-1.16495 0.28494,-1.4019 0.60416,-0.60417 0.28887,0.72187 0.25335,1.58437 -0.0789,1.91667 -0.33229,0.33229 -0.56864,-0.25834 -0.52522,-1.3125 z M 712.2522,418.5 c 0.011,-2.2 0.2159,-2.98225 0.4551,-1.73834 0.2392,1.24391 0.2301,3.04391 -0.02,4 -0.2503,0.95609 -0.446,-0.0617 -0.4349,-2.26166 z m 155.1646,-15 c 0.001,-10.45 0.1492,-14.58913 0.3293,-9.19806 0.1802,5.39107 0.1794,13.94107 0,19 -0.1811,5.05893 -0.3285,0.64806 -0.3276,-9.80194 z M 510.23667,413.94013 C 497.23384,371.19663 479.87394,306.99201 469.56006,263.5 c -3.1303,-13.2 -5.8809,-24.675 -6.11245,-25.5 -0.34538,-1.23059 0.77902,-1.48691 6.26021,-1.4271 l 6.68119,0.0729 2.84392,13.77935 c 3.32966,16.1329 19.96489,82.65728 28.40078,113.57485 l 5.86629,21.5 0.59815,-9.5 c 0.32899,-5.225 0.3868,-0.05 0.12848,11.5 -0.25832,11.55 -0.75249,23.89806 -1.09815,27.44013 L 512.5,421.38027 Z M 974.1949,418.5 c 0.02,-1.65 0.2445,-2.20394 0.4981,-1.23097 0.2535,0.97297 0.2369,2.32297 -0.037,3 -0.2739,0.67703 -0.4813,-0.11903 -0.461,-1.76903 z m -1168.11595,-0.0833 c 0.048,-1.16495 0.28494,-1.4019 0.60416,-0.60417 0.28887,0.72187 0.25335,1.58437 -0.0789,1.91667 -0.3323,0.33229 -0.56864,-0.25834 -0.52522,-1.3125 z m 121,-1 c 0.048,-1.16495 0.28494,-1.4019 0.60416,-0.60417 0.28887,0.72187 0.25335,1.58437 -0.0789,1.91667 -0.33229,0.33229 -0.56864,-0.25834 -0.52522,-1.3125 z M 11.34281,410.5 c 0.004,-4.4 0.17944,-6.07561 0.39069,-3.72357 0.21124,2.35204 0.20827,5.95204 -0.007,8 C 11.51163,416.82439 11.33879,414.9 11.34242,410.5 Z m 579.73614,4.91667 c 0.048,-1.16495 0.28494,-1.4019 0.60416,-0.60417 0.28887,0.72187 0.25335,1.58437 -0.0789,1.91667 -0.33229,0.33229 -0.56864,-0.25834 -0.52522,-1.3125 z M 396.39739,402 c 0,-7.975 0.1553,-11.2375 0.34512,-7.25 0.18981,3.9875 0.18981,10.5125 0,14.5 -0.18982,3.9875 -0.34512,0.725 -0.34512,-7.25 z m -591.31844,11.41667 c 0.048,-1.16495 0.28494,-1.4019 0.60416,-0.60417 0.28887,0.72187 0.25335,1.58437 -0.0789,1.91667 -0.3323,0.33229 -0.56864,-0.25834 -0.52522,-1.3125 z M 163.3605,406 c 0,-5.225 0.16854,-7.3625 0.37454,-4.75 0.206,2.6125 0.206,6.8875 0,9.5 -0.206,2.6125 -0.37454,0.475 -0.37454,-4.75 z m 522.0498,6.25 c 1.4817,-4.75681 2.575,-16.64105 1.5871,-17.25163 -0.5752,-0.35548 3.1589,-1.19644 8.298,-1.8688 5.1391,-0.67235 10.2721,-1.46521 11.4066,-1.76189 1.8625,-0.48707 2.1737,0.12413 3.2049,6.29644 0.6282,3.75974 1.3737,7.99047 1.6566,9.40163 0.5138,2.56253 0.4985,2.56849 -12.2745,4.76032 -15.2859,2.62305 -14.5567,2.60078 -13.8787,0.42393 z m 605.9325,-6.75 c 0,-4.4 0.1795,-6.07561 0.3907,-3.72357 0.2112,2.35204 0.2083,5.95204 -0.01,8 -0.2149,2.04796 -0.3877,0.12357 -0.3841,-4.27643 z M -71.84211,410 c 0,-1.375 0.22698,-1.9375 0.50439,-1.25 0.27741,0.6875 0.27741,1.8125 0,2.5 -0.27741,0.6875 -0.50439,0.125 -0.50439,-1.25 z m 661.92106,0.41667 c 0.048,-1.16495 0.28494,-1.4019 0.60416,-0.60417 0.28887,0.72187 0.25335,1.58437 -0.0789,1.91667 -0.33229,0.33229 -0.56864,-0.25834 -0.52522,-1.3125 z m 382.99995,0 c 0.048,-1.16495 0.285,-1.4019 0.6042,-0.60417 0.2889,0.72187 0.2534,1.58437 -0.079,1.91667 -0.3323,0.33229 -0.5687,-0.25834 -0.5253,-1.3125 z M -378.55694,380.5 c -4.5e-4,-16.5 0.13655,-23.39031 0.30444,-15.31181 0.16789,8.07851 0.16826,21.57851 8.2e-4,30 -0.16745,8.4215 -0.30481,1.81181 -0.30526,-14.68819 z m 182.63589,26.91667 c 0.048,-1.16495 0.28494,-1.4019 0.60416,-0.60417 0.28887,0.72187 0.25335,1.58437 -0.0789,1.91667 -0.3323,0.33229 -0.56864,-0.25834 -0.52522,-1.3125 z M 1452,408.62244 c 0,-0.20765 0.7875,-0.99515 1.75,-1.75 1.5861,-1.24387 1.6214,-1.2085 0.3776,0.37756 -1.3064,1.66575 -2.1276,2.19548 -2.1276,1.37244 z m -479.9211,-3.20577 c 0.048,-1.16495 0.285,-1.4019 0.6042,-0.60417 0.2889,0.72187 0.2534,1.58437 -0.079,1.91667 -0.3323,0.33229 -0.5687,-0.25834 -0.5253,-1.3125 z M 1536.5,403.84228 c -2.2,-1.66141 -8.275,-5.53295 -13.5,-8.60342 -24.7076,-14.51943 -33.8828,-21.26942 -46,-33.84122 -4.125,-4.27976 -5.657,-6.18402 -3.4045,-4.23168 5.5813,4.83745 13.5855,10.15137 28.4045,18.85748 19.3047,11.34144 28.9392,18.53525 35.4263,26.45191 2.0392,2.48856 3.565,4.49383 3.3906,4.45617 -0.1743,-0.0377 -2.1169,-1.42782 -4.3169,-3.08924 z m -947.42105,0.57439 c 0.048,-1.16495 0.28494,-1.4019 0.60416,-0.60417 0.28887,0.72187 0.25335,1.58437 -0.0789,1.91667 -0.33229,0.33229 -0.56864,-0.25834 -0.52522,-1.3125 z M -70.768,400 c 0,-1.925 0.2058,-2.7125 0.45733,-1.75 0.25152,0.9625 0.25152,2.5375 0,3.5 -0.25153,0.9625 -0.45733,0.175 -0.45733,-1.75 z m -126.15305,0.41667 c 0.048,-1.16495 0.28494,-1.4019 0.60416,-0.60417 0.28887,0.72187 0.25335,1.58437 -0.0789,1.91667 -0.3323,0.33229 -0.56864,-0.25834 -0.52522,-1.3125 z M 1472.75,400.29427 c 1.2375,-0.23836 3.2625,-0.23836 4.5,0 1.2375,0.23835 0.225,0.43337 -2.25,0.43337 -2.475,0 -3.4875,-0.19502 -2.25,-0.43337 z M 1177.4048,384.5 c 0,-8.8 0.1542,-12.26613 0.34,-7.70252 0.1857,4.56362 0.1846,11.76362 0,16 -0.187,4.23639 -0.339,0.50252 -0.3377,-8.29748 z M 314.45199,363 c 0,-20.075 0.13345,-28.2875 0.29656,-18.25 0.16311,10.0375 0.16311,26.4625 0,36.5 -0.16311,10.0375 -0.29656,1.825 -0.29656,-18.25 z m 273.7059,34 c 0,-1.375 0.22698,-1.9375 0.50439,-1.25 0.27741,0.6875 0.27741,1.8125 0,2.5 -0.27741,0.6875 -0.50439,0.125 -0.50439,-1.25 z m 82.65461,0.31689 c 0.7219,-0.28887 1.5844,-0.25335 1.9167,0.0789 0.3323,0.33229 -0.2584,0.56864 -1.3125,0.52522 -1.165,-0.048 -1.4019,-0.28494 -0.6042,-0.60416 z m 5,-1 c 0.7219,-0.28887 1.5844,-0.25335 1.9167,0.0789 0.3323,0.33229 -0.2584,0.56864 -1.3125,0.52522 -1.165,-0.048 -1.4019,-0.28494 -0.6042,-0.60416 z m 5,-1 c 0.7219,-0.28887 1.5844,-0.25335 1.9167,0.0789 0.3323,0.33229 -0.2584,0.56864 -1.3125,0.52522 -1.165,-0.048 -1.4019,-0.28494 -0.6042,-0.60416 z M -197.80505,392.5 c 0.0204,-1.65 0.2445,-2.20394 0.49804,-1.23097 0.25354,0.97297 0.23687,2.32297 -0.0371,3 -0.27393,0.67703 -0.48137,-0.11903 -0.46099,-1.76903 z m 866.88395,-0.0833 c 0.048,-1.16495 0.285,-1.4019 0.6042,-0.60417 0.2889,0.72187 0.2534,1.58437 -0.079,1.91667 -0.3323,0.33229 -0.5687,-0.25834 -0.5253,-1.3125 z m 297.4854,-2.12354 c -0.5427,-1.4252 -0.4278,-1.54006 0.5598,-0.5598 0.6834,0.67834 0.9907,1.48524 0.6828,1.79313 -0.3079,0.30789 -0.8671,-0.24711 -1.2426,-1.23333 z M 587.232,388 c 0,-1.925 0.2058,-2.7125 0.45733,-1.75 0.25152,0.9625 0.25152,2.5375 0,3.5 -0.25153,0.9625 -0.45733,0.175 -0.45733,-1.75 z m -656.92213,-4.5 c 0.006,-3.3 0.1923,-4.52944 0.41486,-2.73209 0.22256,1.79735 0.21797,4.49735 -0.0102,6 -0.22818,1.50265 -0.41027,0.0321 -0.40466,-3.26791 z M 670.1579,386 c 0,-1.375 0.227,-1.9375 0.5044,-1.25 0.2774,0.6875 0.2774,1.8125 0,2.5 -0.2774,0.6875 -0.5044,0.125 -0.5044,-1.25 z m -868.87189,-6.5 c 0.008,-2.75 0.20172,-3.75631 0.43157,-2.23625 0.22986,1.52006 0.22371,3.77006 -0.0136,5 -0.23736,1.22994 -0.42542,-0.0137 -0.41792,-2.76375 z m -45.41357,-2.25 c -1.24387,-1.58606 -1.2085,-1.62143 0.37756,-0.37756 0.9625,0.75485 1.75,1.54235 1.75,1.75 0,0.82304 -0.82119,0.29331 -2.12756,-1.37244 z M 12.39456,364.5 c 0.002,-7.7 0.15853,-10.71781 0.34883,-6.70625 0.1903,4.01156 0.18902,10.31156 -0.003,14 C 12.5487,375.48219 12.393,372.2 12.39456,364.5 Z m 573.9604,5 c -0.003,-4.95 0.16605,-7.10108 0.37577,-4.78017 0.20972,2.3209 0.21222,6.3709 0.006,9 -0.20667,2.62909 -0.37827,0.73017 -0.38131,-4.21983 z m 84.94474,2.5 c 0,-3.025 0.1874,-4.2625 0.4166,-2.75 0.2291,1.5125 0.2291,3.9875 0,5.5 -0.2292,1.5125 -0.4166,0.275 -0.4166,-2.75 z m 621.1074,-12 c 0,-9.075 0.1516,-12.7875 0.3369,-8.25 0.1853,4.5375 0.1853,11.9625 0,16.5 -0.1853,4.5375 -0.3369,0.825 -0.3369,-8.25 z m -1544.04115,9.91058 c -2.79848,-2.18058 -8.075,-5.46745 -11.72559,-7.30417 l -6.63744,-3.33949 5.83353,-2.12701 c 19.98352,-7.28636 35.58026,-25.36111 44.27294,-51.30703 2.73454,-8.16205 2.98742,-9.90143 2.3606,-16.23709 -1.05116,-10.62481 -3.96944,-20.87052 -8.29667,-29.12858 -3.82615,-7.3018 -3.83944,-7.36566 -1.1316,-5.4375 4.55048,3.24023 12.22927,12.25429 16.23387,19.0568 5.29604,8.99624 8.77225,20.57699 9.42943,31.41349 0.5005,8.25311 0.28148,9.78839 -2.63928,18.5 -7.18691,21.43606 -20.22556,37.94359 -37.05537,46.91379 l -5.55628,2.96146 z M 1012.8724,370.25 c -1.2438,-1.58606 -1.2085,-1.62143 0.3776,-0.37756 1.6657,1.30637 2.1955,2.12756 1.3724,2.12756 -0.2076,0 -0.9951,-0.7875 -1.75,-1.75 z m 563.0519,-1 -2.4243,-2.75 2.75,2.42431 c 1.5125,1.33338 2.75,2.57088 2.75,2.75 0,0.78428 -0.8098,0.14598 -3.0757,-2.42431 z M 164.28601,364.5 c 0.008,-2.75 0.20172,-3.75631 0.43157,-2.23625 0.22986,1.52006 0.22371,3.77006 -0.0136,5 -0.23736,1.22994 -0.42542,-0.0137 -0.41792,-2.76375 z m 842.63829,-1.14233 c -3.6389,-3.96612 -13.503,-10.09661 -20.1388,-12.51617 l -5.8846,-2.1456 6.8154,-2.65167 c 8.8554,-3.44537 17.6528,-9.47936 24.0904,-16.52309 9.1277,-9.98721 16.1272,-27.5911 16.1759,-40.68317 0.039,-10.48199 -4.1224,-24.99579 -9.2333,-32.20284 -1.8253,-2.57388 -1.1837,-2.24002 3.5839,1.86487 14.6685,12.62955 21.7186,27.79642 21.7671,46.82722 0.039,15.27326 -5.931,30.21637 -16.5818,41.50504 -5.1887,5.49936 -15.3348,12.86985 -19.9664,14.50427 -0.6056,0.21371 -0.2436,1.28206 0.8529,2.51737 1.0477,1.18036 1.6887,2.1461 1.4243,2.1461 -0.2644,0 -1.5716,-1.18905 -2.905,-2.64233 z M 751.2724,357 c 0,-2.475 0.195,-3.4875 0.4333,-2.25 0.2384,1.2375 0.2384,3.2625 0,4.5 -0.2383,1.2375 -0.4333,0.225 -0.4333,-2.25 z m -79.9523,-4 c 0,-3.575 0.1815,-5.0375 0.4033,-3.25 0.2218,1.7875 0.2218,4.7125 0,6.5 -0.2218,1.7875 -0.4033,0.325 -0.4033,-3.25 z m 890.6042,2.25 -2.4243,-2.75 2.75,2.42431 c 1.5125,1.33338 2.75,2.57088 2.75,2.75 0,0.78428 -0.8098,0.14598 -3.0757,-2.42431 z M 586.34941,348 c 0,-4.675 0.17226,-6.5875 0.3828,-4.25 0.21053,2.3375 0.21053,6.1625 0,8.5 -0.21054,2.3375 -0.3828,0.425 -0.3828,-4.25 z m 969.52299,2.25 c -1.2438,-1.58606 -1.2085,-1.62143 0.3776,-0.37756 1.6657,1.30637 2.1955,2.12756 1.3724,2.12756 -0.2076,0 -0.9951,-0.7875 -1.75,-1.75 z m -92.9481,-2 -2.4243,-2.75 2.75,2.42431 c 1.5125,1.33338 2.75,2.57088 2.75,2.75 0,0.78428 -0.8098,0.14598 -3.0757,-2.42431 z m -750.7297,0.004 c 5.882,-0.17649 15.782,-0.17711 22,-0.001 6.218,0.17574 1.4054,0.32014 -10.6946,0.32089 -12.1,7.6e-4 -17.1874,-0.14302 -11.3054,-0.31951 z m -21.9256,-0.94734 c 0.973,-0.25354 2.323,-0.23687 3,0.0371 0.6771,0.27393 -0.119,0.48137 -1.769,0.46099 -1.65,-0.0204 -2.2039,-0.2445 -1.231,-0.49804 z m -9.519,-0.96929 c 0.6875,-0.27741 1.8125,-0.27741 2.5,0 0.6875,0.27741 0.125,0.50439 -1.25,0.50439 -1.375,0 -1.9375,-0.22698 -1.25,-0.50439 z m -6.9375,-1.02083 c 0.7219,-0.28887 1.5844,-0.25335 1.9167,0.0789 0.3323,0.33229 -0.2584,0.56864 -1.3125,0.52522 -1.165,-0.048 -1.4019,-0.28494 -0.6042,-0.60416 z M -330.25,344.28375 -333,343.86716 v -43.87231 -43.8723 l 4.75,-0.81128 c 2.6125,-0.4462 9.025,-0.7641 14.25,-0.70645 16.24938,0.17928 27.27897,4.60871 36.63219,14.71131 3.01029,3.25147 5.27705,6.10796 5.03725,6.34776 -0.2398,0.2398 -3.30102,-0.58215 -6.80272,-1.82657 -5.33687,-1.89659 -8.46954,-2.26862 -19.36672,-2.29995 -7.15,-0.0206 -14.29668,0.32356 -15.88152,0.76469 l -2.88151,0.80206 0.73652,35.94794 L -315.79,345 l -5.855,-0.14983 c -3.22025,-0.0824 -7.0925,-0.3373 -8.605,-0.56642 z m 17.51903,0.0233 c 0.97297,-0.25354 2.32297,-0.23687 3,0.0371 0.67703,0.27393 -0.11903,0.48137 -1.76903,0.46099 -1.65,-0.0204 -2.20394,-0.2445 -1.23097,-0.49804 z M -198.72764,341 c 0,-2.475 0.19502,-3.4875 0.43337,-2.25 0.23836,1.2375 0.23836,3.2625 0,4.5 -0.23835,1.2375 -0.43337,0.225 -0.43337,-2.25 z M 867.4092,328.5 c 0,-9.35 0.1491,-13.3096 0.334,-8.7991 0.1849,4.51049 0.1858,12.16049 0,17 -0.1837,4.8395 -0.335,1.1491 -0.3361,-8.2009 z m 309.9979,-1.5 c 0,-9.075 0.1516,-12.7875 0.3369,-8.25 0.1853,4.5375 0.1853,11.9625 0,16.5 -0.1853,4.5375 -0.3369,0.825 -0.3369,-8.25 z m -1247.09723,9.5 c 0.006,-3.3 0.1923,-4.52944 0.41486,-2.73209 0.22256,1.79735 0.21797,4.49735 -0.0102,6 -0.22818,1.50265 -0.41027,0.0321 -0.40466,-3.26791 z m 1525.56253,3.75 c -1.2438,-1.58606 -1.2085,-1.62143 0.3776,-0.37756 1.6657,1.30637 2.1955,2.12756 1.3724,2.12756 -0.2076,0 -0.9951,-0.7875 -1.75,-1.75 z M 515.39739,325 c 0,-7.975 0.1553,-11.2375 0.34512,-7.25 0.18981,3.9875 0.18981,10.5125 0,14.5 -0.18982,3.9875 -0.34512,0.725 -0.34512,-7.25 z M -287,335.62244 c 0,-0.20765 0.7875,-0.99515 1.75,-1.75 1.58606,-1.24387 1.62143,-1.2085 0.37756,0.37756 -1.30637,1.66575 -2.12756,2.19548 -2.12756,1.37244 z M 920.6372,310.25 c -0.3604,-13.0625 -0.9387,-31.46999 -1.2851,-40.90553 l -0.6299,-17.15553 6.7616,-0.72411 c 16.9265,-1.81268 31.2035,3.13805 39.5689,13.72105 2.2083,2.79377 3.8193,5.27547 3.5799,5.51488 -0.2394,0.23942 -2.8114,-0.27031 -5.7155,-1.13273 -5.2282,-1.55262 -22.1236,-2.19351 -25.3353,-0.96104 -1.353,0.5192 -1.5658,2.79722 -1.4713,15.75 0.061,8.32866 0.3982,22.90625 0.75,32.39466 l 0.6395,17.25166 -8.1038,-0.002 -8.1039,-0.002 -0.6551,-23.75 z M 1336,300.63957 c 0,-18.34824 0.2862,-35.44824 0.6359,-38 l 0.6359,-4.63957 17.1141,0.0364 c 16.1456,0.0343 38.412,1.01857 57.6798,2.54969 l 8.5657,0.68068 -0.7643,-6.88336 c -0.4204,-3.78585 -0.7875,-9.24587 -0.8157,-12.13337 -0.05,-5.071 0.042,-5.25029 2.6986,-5.25869 1.5125,-0.005 5.0396,-0.28383 7.8381,-0.62011 l 5.088,-0.61142 0.6799,16.87011 c 0.374,9.27856 0.9643,18.84383 1.3119,21.25614 l 0.6319,4.38602 -4.3999,-0.61164 c -13.6101,-1.89199 -77.8122,-4.04794 -79.2241,-2.66041 -0.2798,0.275 -0.6589,13.41773 -0.8423,29.20607 l -0.3335,28.70607 4.5,0.36368 c 2.475,0.20003 -1.2375,0.4448 -8.25,0.54393 L 1336,334 Z M 587.19495,330.5 c 0.0204,-1.65 0.2445,-2.20394 0.49804,-1.23097 0.25354,0.97297 0.23687,2.32297 -0.0371,3 -0.27393,0.67703 -0.48137,-0.11903 -0.46099,-1.76903 z m 781.07405,1.80701 c 0.973,-0.25354 2.323,-0.23687 3,0.037 0.6771,0.27393 -0.119,0.48137 -1.769,0.46099 -1.65,-0.0204 -2.2039,-0.2445 -1.231,-0.49804 z M 163.3605,323 c 0,-5.225 0.16854,-7.3625 0.37454,-4.75 0.206,2.6125 0.206,6.8875 0,9.5 -0.206,2.6125 -0.37454,0.475 -0.37454,-4.75 z m 1214.3895,8.33772 c 0.6875,-0.27741 1.8125,-0.27741 2.5,0 0.6875,0.27741 0.125,0.50439 -1.25,0.50439 -1.375,0 -1.9375,-0.22698 -1.25,-0.50439 z M -197.80505,328.5 c 0.0204,-1.65 0.2445,-2.20394 0.49804,-1.23097 0.25354,0.97297 0.23687,2.32297 -0.0371,3 -0.27393,0.67703 -0.48137,-0.11903 -0.46099,-1.76903 z m 1583.61755,1.81689 c 0.7219,-0.28887 1.5844,-0.25335 1.9167,0.0789 0.3323,0.3323 -0.2584,0.56864 -1.3125,0.52522 -1.165,-0.048 -1.4019,-0.28494 -0.6042,-0.60416 z M -280,328.62244 c 0,-0.20765 0.7875,-0.99515 1.75,-1.75 1.58606,-1.24387 1.62143,-1.2085 0.37756,0.37756 -1.30637,1.66575 -2.12756,2.19548 -2.12756,1.37244 z M 11.34941,319 c 0,-4.675 0.17226,-6.5875 0.3828,-4.25 0.21053,2.3375 0.21053,6.1625 0,8.5 -0.21054,2.3375 -0.3828,0.425 -0.3828,-4.25 z m -390.95485,-7.5 c 0.002,-7.7 0.15853,-10.71781 0.34883,-6.70625 0.1903,4.01156 0.18902,10.31156 -0.003,14 -0.19185,3.68844 -0.34755,0.40625 -0.34599,-7.29375 z M 961,321.5 c 1.2917,-1.375 2.5736,-2.5 2.8486,-2.5 0.275,0 -0.5569,1.125 -1.8486,2.5 -1.2917,1.375 -2.5736,2.5 -2.8486,2.5 -0.275,0 0.5569,-1.125 1.8486,-2.5 z M -70.768,320 c 0,-1.925 0.2058,-2.7125 0.45733,-1.75 0.25152,0.9625 0.25152,2.5375 0,3.5 -0.25153,0.9625 -0.45733,0.175 -0.45733,-1.75 z m 658.92589,1 c 0,-1.375 0.22698,-1.9375 0.50439,-1.25 0.27741,0.6875 0.27741,1.8125 0,2.5 -0.27741,0.6875 -0.50439,0.125 -0.50439,-1.25 z m -785,-1 c 0,-1.375 0.22698,-1.9375 0.50439,-1.25 0.27741,0.6875 0.27741,1.8125 0,2.5 -0.27741,0.6875 -0.50439,0.125 -0.50439,-1.25 z m 922.06391,0.53028 c -6.09,-1.90168 -10.3416,-5.4971 -13.6172,-11.51544 -2.6881,-4.93884 -2.7287,-5.18899 -0.7398,-4.55775 4.6299,1.46946 14.9362,0.68411 20.084,-1.5304 6.9371,-2.98426 13.281,-10.18975 15.9627,-18.13054 3.8826,-11.49722 2.0978,-29.06914 -4.0279,-39.65375 l -1.9431,-3.3576 3.8449,3.04521 c 14.202,11.24819 22.0995,28.34022 20.94,45.31878 -1.2949,18.95958 -13.8578,31.98596 -30.6535,31.78431 -3.0646,-0.0368 -7.4971,-0.66806 -9.8501,-1.40282 z M 1291.3428,313.5 c 0,-4.4 0.1795,-6.07561 0.3907,-3.72357 0.2112,2.35204 0.2083,5.95204 -0.01,8 -0.2149,2.04796 -0.3877,0.12357 -0.3841,-4.27643 z m 273.8797,5.38783 c -6.7247,-1.24657 -14.2233,-5.84062 -17.6618,-10.82063 -1.6834,-2.43804 -3.9263,-5.32867 -4.9843,-6.42361 -1.8982,-1.96445 -1.8982,-1.98046 0,-1.20875 8.9857,3.65324 19.7121,3.11275 29.088,-1.4657 7.142,-3.48757 11.5747,-8.12076 15.2345,-15.92351 2.3489,-5.00788 2.6011,-6.70925 2.6011,-17.54563 0,-11.4274 -0.1528,-12.32254 -3.2019,-18.75943 -3.7974,-8.01674 -2.5313,-7.91264 5.7205,0.47034 13.648,13.86495 18.248,34.19703 11.7099,51.7581 -5.2131,14.00253 -22.416,22.90142 -38.506,19.91882 z M 1501.7992,310.75 c -9.4478,-9.33928 -13.9719,-16.91347 -15.8469,-26.53056 -4.2072,-21.57894 7.6522,-38.69339 27.7205,-40.00408 5.9452,-0.38829 7.9136,-0.10135 11.5,1.67638 8.1959,4.06249 8.2624,4.18399 5.3169,9.72363 -2.2143,4.16457 -3.2214,5.03421 -7.1592,6.18245 -9.1465,2.66697 -15.0466,7.94593 -19.2582,17.23062 -4.1986,9.2559 -1.919,28.23951 4.3833,36.50219 1.4554,1.90815 2.4309,3.46937 2.1679,3.46937 -0.2631,0 -4.234,-3.7125 -8.8243,-8.25 z m -912.72025,3.66667 c 0.048,-1.16495 0.28494,-1.4019 0.60416,-0.60417 0.28887,0.72187 0.25335,1.58437 -0.0789,1.91667 -0.33229,0.33229 -0.56864,-0.25834 -0.52522,-1.3125 z M -195.84211,313 c 0,-1.375 0.22698,-1.9375 0.50439,-1.25 0.27741,0.6875 0.27741,1.8125 0,2.5 -0.27741,0.6875 -0.50439,0.125 -0.50439,-1.25 z m 592.2446,-15 c 0,-8.525 0.15337,-12.0125 0.34082,-7.75 0.18745,4.2625 0.18745,11.2375 0,15.5 -0.18745,4.2625 -0.34082,0.775 -0.34082,-7.75 z m -468.20754,11.5 c 0.0204,-1.65 0.2445,-2.20394 0.49804,-1.23097 0.25354,0.97297 0.23687,2.32297 -0.0371,3 -0.27393,0.67703 -0.48137,-0.11903 -0.46099,-1.76903 z m 1128.19355,-11 c 0,-7.15 0.1611,-9.94379 0.354,-6.20841 0.1929,3.73537 0.1915,9.58537 0,13 -0.1947,3.41462 -0.3525,0.35841 -0.3508,-6.79159 z m -466.30955,9.91667 c 0.048,-1.16495 0.28494,-1.4019 0.60416,-0.60417 0.28887,0.72187 0.25335,1.58437 -0.0789,1.91667 -0.33229,0.33229 -0.56864,-0.25834 -0.52522,-1.3125 z m -663,-7 c 0.048,-1.16495 0.28494,-1.4019 0.60416,-0.60417 0.28887,0.72187 0.25335,1.58437 -0.0789,1.91667 -0.33229,0.33229 -0.56864,-0.25834 -0.52522,-1.3125 z M 162.30987,297.5 c 0.006,-3.3 0.1923,-4.52944 0.41486,-2.73209 0.22256,1.79735 0.21797,4.49735 -0.0102,6 -0.22818,1.50265 -0.41027,0.0321 -0.40466,-3.26791 z m 809.76903,3.91667 c 0.048,-1.16495 0.285,-1.4019 0.6042,-0.60417 0.2889,0.72187 0.2534,1.58438 -0.079,1.91667 -0.3323,0.33229 -0.5687,-0.25834 -0.5253,-1.3125 z M -266.768,297 c 0,-1.925 0.2058,-2.7125 0.45733,-1.75 0.25152,0.9625 0.25152,2.5375 0,3.5 -0.25153,0.9625 -0.45733,0.175 -0.45733,-1.75 z m 277.06766,-2 c 0,-3.025 0.18747,-4.2625 0.41659,-2.75 0.22913,1.5125 0.22913,3.9875 0,5.5 -0.22912,1.5125 -0.41659,0.275 -0.41659,-2.75 z m -203.22071,2.41667 c 0.048,-1.16495 0.28494,-1.4019 0.60416,-0.60417 0.28887,0.72187 0.25335,1.58438 -0.0789,1.91667 -0.3323,0.33229 -0.56864,-0.25834 -0.52522,-1.3125 z m 1165.99995,-1 c 0.048,-1.16495 0.285,-1.4019 0.6042,-0.60417 0.2889,0.72187 0.2534,1.58438 -0.079,1.91667 -0.3323,0.33229 -0.5687,-0.25834 -0.5253,-1.3125 z M 1534.8724,296.25 c -1.2438,-1.58606 -1.2085,-1.62143 0.3776,-0.37756 0.9625,0.75485 1.75,1.54235 1.75,1.75 0,0.82304 -0.8212,0.29331 -2.1276,-1.37244 z M -73.92105,295.41667 c 0.048,-1.16495 0.28494,-1.4019 0.60416,-0.60417 0.28887,0.72187 0.25335,1.58438 -0.0789,1.91667 -0.33229,0.33229 -0.56864,-0.25834 -0.52522,-1.3125 z M 1438.355,288.5 c 0,-4.95 0.166,-7.10108 0.3757,-4.78017 0.2098,2.3209 0.2122,6.3709 0.01,9 -0.2111,2.62909 -0.3827,0.73017 -0.3857,-4.21983 z M 1176,289.05312 v -6.28021 l -4.25,0.58754 c -2.3375,0.32315 -9.7625,0.88799 -16.5,1.25521 l -12.25,0.66767 v -8.53038 -8.53037 l 3.25,-0.57024 c 1.7875,-0.31364 9.1425,-0.87336 16.3445,-1.24384 l 13.0945,-0.67359 0.7053,14.24942 c 0.3879,7.83718 0.4579,14.49683 0.1555,14.79921 -0.3024,0.30239 -0.5498,-2.2763 -0.5498,-5.73042 z M 1290.2997,290 c 0,-3.025 0.1874,-4.2625 0.4166,-2.75 0.2291,1.5125 0.2291,3.9875 0,5.5 -0.2292,1.5125 -0.4166,0.275 -0.4166,-2.75 z m 240.5727,2.25 c -1.2438,-1.58606 -1.2085,-1.62143 0.3776,-0.37756 1.6657,1.30637 2.1955,2.12756 1.3724,2.12756 -0.2076,0 -0.9951,-0.7875 -1.75,-1.75 z M -74.92105,290.41667 c 0.048,-1.16495 0.28494,-1.4019 0.60416,-0.60417 0.28887,0.72187 0.25335,1.58438 -0.0789,1.91667 -0.33229,0.33229 -0.56864,-0.25834 -0.52522,-1.3125 z M 313.35496,283.5 c -0.003,-4.95 0.16605,-7.10108 0.37577,-4.78017 0.20972,2.3209 0.21222,6.3709 0.006,9 -0.20713,2.62909 -0.37873,0.73017 -0.38177,-4.21983 z m 553.01024,-3 c 0,-5.5 0.1706,-7.62242 0.3732,-4.71648 0.2026,2.90594 0.2005,7.40594 0,10 -0.21,2.59406 -0.3758,0.21648 -0.3732,-5.28352 z m -352.02239,-1 c 0.004,-4.4 0.17944,-6.07561 0.39069,-3.72357 0.21124,2.35204 0.20827,5.95204 -0.007,8 -0.21448,2.04796 -0.38732,0.12357 -0.38369,-4.27643 z m 458.73609,4.91667 c 0.048,-1.16495 0.285,-1.4019 0.6042,-0.60417 0.2889,0.72187 0.2534,1.58438 -0.079,1.91667 -0.3323,0.33229 -0.5687,-0.25834 -0.5253,-1.3125 z M 161.28601,279.5 c 0.008,-2.75 0.20172,-3.75631 0.43157,-2.23625 0.22986,1.52006 0.22371,3.77006 -0.0136,5 -0.23741,1.22994 -0.42547,-0.0138 -0.41797,-2.76375 z m 529.99999,-2 c 0.01,-2.75 0.2017,-3.75631 0.4316,-2.23625 0.2298,1.52006 0.2237,3.77006 -0.014,5 -0.2373,1.22994 -0.4254,-0.0138 -0.4179,-2.76375 z M 9.27236,277 c 0,-2.475 0.19502,-3.4875 0.43337,-2.25 0.23836,1.2375 0.23836,3.2625 0,4.5 -0.23835,1.2375 -0.43337,0.225 -0.43337,-2.25 z M 1525.286,275.5 c 0.01,-2.75 0.2017,-3.75631 0.4316,-2.23625 0.2298,1.52006 0.2237,3.77006 -0.014,5 -0.2373,1.22994 -0.4254,-0.0138 -0.4179,-2.76375 z M 1289.2724,272 c 0,-2.475 0.195,-3.4875 0.4333,-2.25 0.2384,1.2375 0.2384,3.2625 0,4.5 -0.2383,1.2375 -0.4333,0.225 -0.4333,-2.25 z m 149.8065,1.41667 c 0.048,-1.16495 0.285,-1.4019 0.6042,-0.60417 0.2889,0.72187 0.2534,1.58438 -0.079,1.91667 -0.3323,0.33229 -0.5687,-0.25834 -0.5253,-1.3125 z M -380.66379,264 c 0,-4.125 0.17651,-5.8125 0.39226,-3.75 0.21574,2.0625 0.21574,5.4375 0,7.5 -0.21575,2.0625 -0.39226,0.375 -0.39226,-3.75 z m 1506.99189,-1.5 c 0,-3.85 0.1852,-5.30246 0.4017,-3.2277 0.2165,2.07477 0.2128,5.22477 -0.01,7 -0.2209,1.77524 -0.398,0.0777 -0.3936,-3.7723 z m 6.4336,5.79274 c 1.2439,-0.23919 3.0439,-0.23011 4,0.0202 0.956,0.25029 -0.062,0.44599 -2.2617,0.4349 -2.2,-0.0111 -2.9823,-0.21589 -1.7383,-0.45508 z M 395.32007,262 c 0,-3.575 0.1815,-5.0375 0.40333,-3.25 0.22182,1.7875 0.22182,4.7125 0,6.5 -0.22183,1.7875 -0.40333,0.325 -0.40333,-3.25 z m 660.02273,-1.5 c 0,-4.4 0.1795,-6.07561 0.3907,-3.72357 0.2112,2.35204 0.2083,5.95204 -0.01,8 -0.2115,2.04796 -0.3843,0.12357 -0.3807,-4.27643 z m 470.7361,5.91667 c 0.048,-1.16495 0.285,-1.4019 0.6042,-0.60417 0.2889,0.72187 0.2534,1.58438 -0.079,1.91667 -0.3323,0.33229 -0.5687,-0.25834 -0.5253,-1.3125 z M 160.25218,263.5 c 0.0111,-2.2 0.21589,-2.98225 0.45508,-1.73834 0.23919,1.24391 0.23011,3.04391 -0.0202,4 -0.25027,0.95609 -0.44598,-0.0617 -0.43488,-2.26166 z M 8.232,262 c 0,-1.925 0.2058,-2.7125 0.45733,-1.75 0.25152,0.9625 0.25152,2.5375 0,3.5 C 8.4378,264.7125 8.232,263.925 8.232,262 Z m 1280.0202,-4.5 c 0.011,-2.2 0.2159,-2.98225 0.4551,-1.73834 0.2392,1.24391 0.2301,3.04391 -0.02,4 -0.2503,0.95609 -0.446,-0.0617 -0.4349,-2.26166 z M 513.27236,256 c 0,-2.475 0.19502,-3.4875 0.43337,-2.25 0.23836,1.2375 0.23836,3.2625 0,4.5 -0.23835,1.2375 -0.43337,0.225 -0.43337,-2.25 z m -200.9727,-4 c 0,-3.025 0.18747,-4.2625 0.41659,-2.75 0.22913,1.5125 0.22913,3.9875 0,5.5 -0.22912,1.5125 -0.41659,0.275 -0.41659,-2.75 z M 159.232,252 c 0,-1.925 0.2058,-2.7125 0.45733,-1.75 0.25152,0.9625 0.25152,2.5375 0,3.5 -0.25153,0.9625 -0.45733,0.175 -0.45733,-1.75 z m -152,-2 c 0,-1.925 0.2058,-2.7125 0.45733,-1.75 0.25152,0.9625 0.25152,2.5375 0,3.5 C 7.4378,252.7125 7.232,251.925 7.232,250 Z M 613,251.62244 c 0,-0.20765 0.7875,-0.99515 1.75,-1.75 1.5861,-1.24387 1.6214,-1.2085 0.37756,0.37756 C 613.82119,251.91575 613,252.44548 613,251.62244 Z M 865.3494,244 c 0,-4.675 0.1723,-6.5875 0.3828,-4.25 0.2105,2.3375 0.2105,6.1625 0,8.5 -0.2105,2.3375 -0.3828,0.425 -0.3828,-4.25 z m 148.0556,5.75 -1.905,-2.25 2.25,1.90499 c 2.1144,1.79022 2.7052,2.59501 1.905,2.59501 -0.1898,0 -1.2023,-1.0125 -2.25,-2.25 z m -1246.53256,-0.5 c -1.24387,-1.58606 -1.2085,-1.62143 0.37756,-0.37756 0.9625,0.75485 1.75,1.54235 1.75,1.75 0,0.82304 -0.82119,0.29331 -2.12756,-1.37244 z M 1287.232,246 c 0,-1.925 0.2058,-2.7125 0.4573,-1.75 0.2516,0.9625 0.2516,2.5375 0,3.5 -0.2515,0.9625 -0.4573,0.175 -0.4573,-1.75 z M 617,246.62244 c 0,-0.20765 0.7875,-0.99515 1.75,-1.75 1.5861,-1.24387 1.6214,-1.2085 0.3776,0.37756 -1.3064,1.66575 -2.1276,2.19548 -2.1276,1.37244 z M 1125.232,244 c 0,-1.925 0.2058,-2.7125 0.4573,-1.75 0.2516,0.9625 0.2516,2.5375 0,3.5 -0.2515,0.9625 -0.4573,0.175 -0.4573,-1.75 z m -730.95964,-2 c 0,-2.475 0.19502,-3.4875 0.43337,-2.25 0.23836,1.2375 0.23836,3.2625 0,4.5 -0.23835,1.2375 -0.43337,0.225 -0.43337,-2.25 z m -632.86737,0.75 -1.90499,-2.25 2.25,1.90499 c 2.11444,1.79022 2.70524,2.59501 1.90499,2.59501 -0.18976,0 -1.20226,-1.0125 -2.25,-2.25 z m 1245.00001,0 -1.905,-2.25 2.25,1.90499 c 2.1144,1.79022 2.7052,2.59501 1.905,2.59501 -0.1898,0 -1.2023,-1.0125 -2.25,-2.25 z M -381.67993,237 c 0,-3.575 0.1815,-5.0375 0.40333,-3.25 0.22182,1.7875 0.22182,4.7125 0,6.5 -0.22183,1.7875 -0.40333,0.325 -0.40333,-3.25 z m 539.87488,3.5 c 0.0204,-1.65 0.2445,-2.20394 0.49804,-1.23097 0.25354,0.97297 0.23687,2.32297 -0.0371,3 -0.27388,0.67703 -0.48132,-0.11903 -0.46094,-1.76903 z m 354.05723,-1 c 0.0111,-2.2 0.21589,-2.98225 0.45508,-1.73834 0.23919,1.24391 0.23011,3.04391 -0.0202,4 -0.25029,0.95609 -0.446,-0.0617 -0.4349,-2.26166 z m 542.03382,-1 c 0.01,-2.75 0.2017,-3.75631 0.4316,-2.23625 0.2298,1.52006 0.2237,3.77006 -0.014,5 -0.2373,1.22994 -0.4254,-0.0137 -0.4179,-2.76375 z M 6.232,239 c 0,-1.925 0.2058,-2.7125 0.45733,-1.75 0.25152,0.9625 0.25152,2.5375 0,3.5 C 6.4378,241.7125 6.232,240.925 6.232,239 Z M 623,239.62244 c 0,-0.20765 0.7875,-0.99515 1.75,-1.75 1.5861,-1.24387 1.6214,-1.2085 0.3776,0.37756 -1.3064,1.66575 -2.1276,2.19548 -2.1276,1.37244 z M -161.04179,233.75 c 4.14396,-4.41519 5.04179,-5.20909 5.04179,-4.45821 0,0.16049 -2.1375,2.29799 -4.75,4.75 L -165.5,238.5 Z m 104.98796,-0.5 -3.44617,-3.75 3.75,3.44617 c 2.0625,1.89539 3.75,3.58289 3.75,3.75 0,0.76362 -0.84622,0.0443 -4.05383,-3.44617 z M 311.27236,233 c 0,-2.475 0.19502,-3.4875 0.43337,-2.25 0.23836,1.2375 0.23836,3.2625 0,4.5 -0.23835,1.2375 -0.43337,0.225 -0.43337,-2.25 z m 974.92254,1.5 c 0.02,-1.65 0.2445,-2.20394 0.4981,-1.23097 0.2535,0.97297 0.2369,2.32297 -0.037,3 -0.2739,0.67703 -0.4813,-0.11903 -0.461,-1.76903 z m -553.2487,-2.25 -3.4462,-3.75 3.75,3.44617 c 3.4904,3.20761 4.2098,4.05383 3.4462,4.05383 -0.1671,0 -1.8546,-1.6875 -3.75,-3.75 z m 391.2117,1.75 c 0,-1.375 0.227,-1.9375 0.5044,-1.25 0.2774,0.6875 0.2774,1.8125 0,2.5 -0.2774,0.6875 -0.5044,0.125 -0.5044,-1.25 z m 143.0943,-1.5 c 0.011,-2.2 0.2159,-2.98225 0.4551,-1.73834 0.2392,1.24391 0.2301,3.04391 -0.02,4 -0.2503,0.95609 -0.446,-0.0617 -0.4349,-2.26166 z M 1418,227.56336 v -7.43664 l -3.25,-0.40332 c -3.1998,-0.3971 -3.1921,-0.4058 0.5,-0.56336 L 1419,219 v 8 c 0,4.4 -0.225,8 -0.5,8 -0.275,0 -0.5,-3.34649 -0.5,-7.43664 z M 1460.5,231 c 2.1482,-2.2 4.1309,-4 4.4059,-4 0.275,0 -1.2577,1.8 -3.4059,4 -2.1482,2.2 -4.1309,4 -4.4059,4 -0.275,0 1.2577,-1.8 3.4059,-4 z m 113.9624,-1.25 -4.9624,-5.25 5.25,4.96241 c 2.8875,2.72932 5.25,5.09182 5.25,5.25 0,0.74619 -0.9264,-0.084 -5.5376,-4.96241 z M 61.25218,230.5 c 0.0111,-2.2 0.21589,-2.98225 0.45508,-1.73834 0.23919,1.24391 0.23011,3.04391 -0.0202,4 C 61.43679,233.71775 61.24108,232.7 61.25218,230.5 Z M 630,233.62244 c 0,-0.20765 0.7875,-0.99515 1.75,-1.75 1.5861,-1.24387 1.6214,-1.2085 0.3776,0.37756 -1.3064,1.66575 -2.1276,2.19548 -2.1276,1.37244 z M 157.19495,230.5 c 0.0204,-1.65 0.2445,-2.20394 0.49804,-1.23097 0.25354,0.97297 0.23687,2.32297 -0.0371,3 -0.27388,0.67703 -0.48132,-0.11903 -0.46094,-1.76903 z M 213.232,229 c 0,-1.925 0.2058,-2.7125 0.45733,-1.75 0.25152,0.9625 0.25152,2.5375 0,3.5 -0.25153,0.9625 -0.45733,0.175 -0.45733,-1.75 z M 5.15789,229 c 0,-1.375 0.22698,-1.9375 0.50439,-1.25 0.27741,0.6875 0.27741,1.8125 0,2.5 -0.27741,0.6875 -0.50439,0.125 -0.50439,-1.25 z m 354.16218,-4 c 0,-3.575 0.1815,-5.0375 0.40333,-3.25 0.22182,1.7875 0.22182,4.7125 0,6.5 -0.22183,1.7875 -0.40333,0.325 -0.40333,-3.25 z m 33.93211,2.5 c 0.0111,-2.2 0.21589,-2.98225 0.45508,-1.73834 0.23919,1.24391 0.23011,3.04391 -0.0202,4 -0.25029,0.95609 -0.446,-0.0617 -0.4349,-2.26166 z m 117.94277,0 c 0.0204,-1.65 0.2445,-2.20394 0.49804,-1.23097 0.25354,0.97297 0.23687,2.32297 -0.0371,3 -0.27388,0.67703 -0.48132,-0.11903 -0.46094,-1.76903 z M -154,227.62244 c 0,-0.20765 0.7875,-0.99515 1.75,-1.75 1.58606,-1.24387 1.62143,-1.2085 0.37756,0.37756 -1.30637,1.66575 -2.12756,2.19548 -2.12756,1.37244 z M 864.232,224 c 0,-1.925 0.2058,-2.7125 0.4573,-1.75 0.2516,0.9625 0.2516,2.5375 0,3.5 -0.2515,0.9625 -0.4573,0.175 -0.4573,-1.75 z m 189,0 c 0,-1.925 0.2058,-2.7125 0.4573,-1.75 0.2516,0.9625 0.2516,2.5375 0,3.5 -0.2515,0.9625 -0.4573,0.175 -0.4573,-1.75 z m 70.1851,1 c 0.095,-1.30034 4.5004,-1.50281 33.0963,-1.52114 l 32.9866,-0.0211 -32.6793,0.28471 c -24.8521,0.21652 -32.7792,0.58086 -33.0963,1.52114 -0.232,0.68798 -0.3683,0.57106 -0.3073,-0.26357 z m 161.7778,-0.5 c 0.02,-1.65 0.2445,-2.20394 0.4981,-1.23097 0.2535,0.97297 0.2369,2.32297 -0.037,3 -0.274,0.67703 -0.4814,-0.11903 -0.4611,-1.76903 z m -1661.3824,-0.18311 c 0.72188,-0.28888 1.58438,-0.25335 1.91667,0.0789 0.33229,0.33229 -0.25834,0.56864 -1.3125,0.52522 -1.16495,-0.048 -1.4019,-0.28495 -0.60417,-0.60417 z m 5.9375,-0.97917 c 0.6875,-0.27741 1.8125,-0.27741 2.5,0 0.6875,0.27741 0.125,0.50438 -1.25,0.50438 -1.375,0 -1.9375,-0.22697 -1.25,-0.50438 z m 830.32895,-0.92105 c 0.048,-1.16495 0.28494,-1.4019 0.60416,-0.60417 0.28887,0.72187 0.25335,1.58437 -0.0789,1.91667 -0.33229,0.33229 -0.56864,-0.25834 -0.52522,-1.3125 z M 1268,222.56336 c 0,-0.87143 -1.2786,-1.59532 -3.25,-1.83996 -3.1998,-0.3971 -3.1921,-0.4058 0.5,-0.56336 3.1367,-0.13387 3.75,0.16706 3.75,1.83996 0,1.1 -0.225,2 -0.5,2 -0.275,0 -0.5,-0.64649 -0.5,-1.43664 z m -1628.75,-0.25269 c 0.9625,-0.25152 2.5375,-0.25152 3.5,0 0.9625,0.25153 0.175,0.45733 -1.75,0.45733 -1.925,0 -2.7125,-0.2058 -1.75,-0.45733 z m 379.01375,-0.0282 c 1.52006,-0.22985 3.77006,-0.22371 5,0.0136 1.22994,0.23737 -0.0138,0.42543 -2.76375,0.41792 -2.75,-0.007 -3.75631,-0.20171 -2.23625,-0.43157 z m 152,0 c 1.52006,-0.22985 3.77006,-0.22371 5,0.0136 1.22994,0.23737 -0.0137,0.42543 -2.76375,0.41792 -2.75,-0.007 -3.75631,-0.20171 -2.23625,-0.43157 z m 787.54875,0.0345 c 0.7219,-0.28887 1.5844,-0.25334 1.9167,0.0789 0.3323,0.3323 -0.2584,0.56864 -1.3125,0.52522 -1.165,-0.048 -1.4019,-0.28494 -0.6042,-0.60416 z m 257.9639,-0.0504 c 2.3521,-0.21124 5.9521,-0.20827 8,0.007 2.048,0.21488 0.1236,0.38772 -4.2764,0.38409 -4.4,-0.004 -6.0756,-0.17944 -3.7236,-0.39069 z M -348.75,221.31067 c 0.9625,-0.25152 2.5375,-0.25152 3.5,0 0.9625,0.25153 0.175,0.45733 -1.75,0.45733 -1.925,0 -2.7125,-0.2058 -1.75,-0.45733 z m 63.5625,0.006 c 0.72188,-0.28887 1.58437,-0.25334 1.91667,0.0789 0.33229,0.3323 -0.25834,0.56864 -1.3125,0.52522 -1.16495,-0.048 -1.4019,-0.28494 -0.60417,-0.60416 z M 37.25,221.28375 c 1.5125,-0.22913 3.9875,-0.22913 5.5,0 1.5125,0.22912 0.275,0.41659 -2.75,0.41659 -3.025,0 -4.2625,-0.18747 -2.75,-0.41659 z m 152,0 c 1.5125,-0.22913 3.9875,-0.22913 5.5,0 1.5125,0.22912 0.275,0.41659 -2.75,0.41659 -3.025,0 -4.2625,-0.18747 -2.75,-0.41659 z m 231.03017,-0.02 c 2.6291,-0.20668 6.6791,-0.20419 9,0.005 2.32091,0.20972 0.16983,0.37882 -4.78017,0.37577 -4.95,-0.003 -6.84892,-0.17464 -4.21983,-0.38132 z m 531.53233,0.0532 c 0.7219,-0.28888 1.5844,-0.25335 1.9167,0.0789 0.3323,0.33229 -0.2584,0.56864 -1.3125,0.52522 -1.165,-0.048 -1.4019,-0.28495 -0.6042,-0.60417 z m 291.9554,-0.0416 c 1.7974,-0.22257 4.4974,-0.21797 6,0.0102 1.5027,0.22817 0.032,0.41027 -3.2679,0.40465 -3.3,-0.006 -4.5294,-0.1923 -2.7321,-0.41486 z M -333.75,220.28375 c 1.5125,-0.22913 3.9875,-0.22913 5.5,0 1.5125,0.22912 0.275,0.41659 -2.75,0.41659 -3.025,0 -4.2625,-0.18747 -2.75,-0.41659 z m 39,0.0269 c 0.9625,-0.25153 2.5375,-0.25153 3.5,0 0.9625,0.25152 0.175,0.45732 -1.75,0.45732 -1.925,0 -2.7125,-0.2058 -1.75,-0.45732 z m 351.51166,-0.0179 c 1.24391,-0.2392 3.04391,-0.23012 4,0.0202 0.95609,0.25029 -0.0617,0.44599 -2.26166,0.43489 -2.2,-0.0111 -2.98225,-0.21588 -1.73834,-0.45508 z m 150.98834,10e-4 c 1.2375,-0.23836 3.2625,-0.23836 4.5,0 1.2375,0.23835 0.225,0.43336 -2.25,0.43336 -2.475,0 -3.4875,-0.19501 -2.25,-0.43336 z m 114.01791,-0.019 c 1.79735,-0.22257 4.49735,-0.21797 6,0.0102 1.50265,0.22817 0.0321,0.41027 -3.26791,0.40465 -3.3,-0.006 -4.52944,-0.1923 -2.73209,-0.41486 z m 125.99375,0.0175 c 1.24391,-0.2392 3.04391,-0.23012 4,0.0202 0.95609,0.25029 -0.0617,0.44599 -2.26166,0.43489 -2.2,-0.0111 -2.98225,-0.21588 -1.73834,-0.45508 z m 421.50734,0.0143 c 0.973,-0.25355 2.323,-0.23687 3,0.037 0.6771,0.27392 -0.119,0.48136 -1.769,0.46098 -1.65,-0.0204 -2.2039,-0.24449 -1.231,-0.49804 z m 74,0 c 0.973,-0.25355 2.323,-0.23687 3,0.037 0.6771,0.27392 -0.119,0.48136 -1.769,0.46098 -1.65,-0.0204 -2.2039,-0.24449 -1.231,-0.49804 z m 120.981,-0.0233 c 1.5125,-0.22913 3.9875,-0.22913 5.5,0 1.5125,0.22912 0.275,0.41659 -2.75,0.41659 -3.025,0 -4.2625,-0.18747 -2.75,-0.41659 z m 252.4777,-0.005 c 1.7752,-0.22092 4.9252,-0.22455 7,-0.008 2.0748,0.21647 0.6223,0.39722 -3.2277,0.40165 -3.85,0.004 -5.5475,-0.17268 -3.7723,-0.39359 z m 79.0402,-0.003 c 1.7974,-0.22257 4.4974,-0.21797 6,0.0102 1.5027,0.22817 0.032,0.41027 -3.2679,0.40465 -3.3,-0.006 -4.5294,-0.1923 -2.7321,-0.41486 z m -1052.99999,-1 c 1.79735,-0.22257 4.49735,-0.21797 6,0.0102 1.50265,0.22817 0.0321,0.41027 -3.26791,0.40465 -3.3,-0.006 -4.52944,-0.1923 -2.73209,-0.41486 z m 541.99999,0 c 1.7974,-0.22257 4.4974,-0.21797 6,0.0102 1.5027,0.22817 0.032,0.41027 -3.2679,0.40465 -3.3,-0.006 -4.5294,-0.1923 -2.7321,-0.41486 z m 45.9821,0.019 c 1.2375,-0.23836 3.2625,-0.23836 4.5,0 1.2375,0.23835 0.225,0.43336 -2.25,0.43336 -2.475,0 -3.4875,-0.19501 -2.25,-0.43336 z m 154.5,-0.0105 c 1.5125,-0.22913 3.9875,-0.22913 5.5,0 1.5125,0.22912 0.275,0.41659 -2.75,0.41659 -3.025,0 -4.2625,-0.18747 -2.75,-0.41659 z m 203,-0.0122 c 2.0625,-0.21575 5.4375,-0.21575 7.5,0 2.0625,0.21574 0.375,0.39226 -3.75,0.39226 -4.125,0 -5.8125,-0.17652 -3.75,-0.39226 z M 510.01531,217.75 c -0.0127,-1.44652 0.80842,-1.72085 4.73469,-1.5819 4.70473,0.1665 4.71201,0.17198 0.76298,0.5745 -2.19287,0.22351 -4.32348,0.93537 -4.73469,1.5819 -0.49429,0.77713 -0.75285,0.58244 -0.76298,-0.5745 z m 191.79719,-1.43311 c 0.7219,-0.28887 1.5844,-0.25335 1.9167,0.0789 0.3323,0.33229 -0.2584,0.56864 -1.3125,0.52522 -1.165,-0.048 -1.4019,-0.28494 -0.6042,-0.60416 z M 539.75,215.26779 c 2.3375,-0.21053 6.1625,-0.21053 8.5,0 2.3375,0.21054 0.425,0.3828 -4.25,0.3828 -4.675,0 -6.5875,-0.17226 -4.25,-0.3828 z m 130.0625,0.0491 c 0.7219,-0.28887 1.5844,-0.25335 1.9167,0.0789 0.3323,0.33229 -0.2584,0.56864 -1.3125,0.52522 -1.165,-0.048 -1.4019,-0.28494 -0.6042,-0.60416 z m 26,0 c 0.7219,-0.28887 1.5844,-0.25335 1.9167,0.0789 0.3323,0.33229 -0.2584,0.56864 -1.3125,0.52522 -1.165,-0.048 -1.4019,-0.28494 -0.6042,-0.60416 z M 679.75,214.2766 c 1.7875,-0.22182 4.7125,-0.22182 6.5,0 1.7875,0.22183 0.325,0.40333 -3.25,0.40333 -3.575,0 -5.0375,-0.1815 -3.25,-0.40333 z m -805.9375,-0.95971 c 0.72187,-0.28887 1.58438,-0.25335 1.91667,0.0789 0.33229,0.33229 -0.25834,0.56864 -1.3125,0.52522 -1.16495,-0.048 -1.4019,-0.28494 -0.60417,-0.60416 z m 4.9375,-0.97917 c 0.6875,-0.27741 1.8125,-0.27741 2.5,0 0.6875,0.27741 0.125,0.50439 -1.25,0.50439 -1.375,0 -1.9375,-0.22698 -1.25,-0.50439 z m 24.0625,-0.0208 c 0.72187,-0.28887 1.58438,-0.25335 1.91667,0.0789 0.33229,0.33229 -0.25834,0.56864 -1.3125,0.52522 -1.16495,-0.048 -1.4019,-0.28494 -0.60417,-0.60416 z m -12.54347,-1.00988 c 0.97297,-0.25354 2.32297,-0.23687 3,0.0371 0.67703,0.27393 -0.11903,0.48137 -1.76903,0.46099 -1.65,-0.0204 -2.20394,-0.2445 -1.23097,-0.49804 z m 1645.54347,-0.99012 c 0.7219,-0.28887 1.5844,-0.25335 1.9167,0.0789 0.3323,0.33229 -0.2584,0.56864 -1.3125,0.52522 -1.165,-0.048 -1.4019,-0.28494 -0.6042,-0.60416 z m -31,-1 c 0.7219,-0.28887 1.5844,-0.25335 1.9167,0.0789 0.3323,0.33229 -0.2584,0.56864 -1.3125,0.52522 -1.165,-0.048 -1.4019,-0.28494 -0.6042,-0.60416 z m 24.9375,0.0208 c 0.6875,-0.27741 1.8125,-0.27741 2.5,0 0.6875,0.27741 0.125,0.50438 -1.25,0.50438 -1.375,0 -1.9375,-0.22697 -1.25,-0.50438 z m -15.5,-1.05397 c 1.5125,-0.22913 3.9875,-0.22913 5.5,0 1.5125,0.22912 0.275,0.41659 -2.75,0.41659 -3.025,0 -4.2625,-0.18747 -2.75,-0.41659 z"
       id="path5322" />
    <path
       style="display:inline;fill:#5ea45e;fill-opacity:0.98479086"
       d="M 5.3663,510.38625 C 5.68977,508.24881 6.63356,497.95 7.46362,487.5 14.08558,404.13299 14.05878,322.67137 7.38432,246.5 6.51685,236.6 5.73799,227.375 5.65354,226 L 5.5,223.5 33.29003,222.12336 c 15.28452,-0.75715 27.98206,-1.1846 28.21677,-0.94989 0.23471,0.2347 -0.22268,9.85419 -1.01641,21.37663 -2.97675,43.21309 -3.59568,61.5618 -4.1304,122.4499 -0.49464,56.32426 0.4105,105.10383 1.9794,106.67272 1.10304,1.10305 27.31428,-1.60774 40.60692,-4.19959 11.40952,-2.22468 32.57472,-7.75026 38.30369,-9.99992 1.64076,-0.64429 1.75003,1.0205 1.75043,26.6698 l 4.4e-4,27.35699 -28.25044,-0.35985 c -27.60928,-0.35169 -98.92231,1.40641 -103.61135,2.55435 -2.24272,0.54906 -2.33147,0.38344 -1.77278,-3.30825 z m 152.02801,-1.03464 c 1.00726,-8.01217 3.4513,-40.5286 4.64896,-61.85161 2.74454,-48.8636 2.75238,-119.78093 0.0181,-164 -1.13651,-18.37993 -3.66855,-48.74975 -4.67453,-56.06726 l -0.55915,-4.06726 28.14236,-1.29319 c 15.47829,-0.71126 28.3098,-1.12575 28.51445,-0.92109 0.20466,0.20466 -0.25737,9.36686 -1.02672,20.36045 -2.99022,42.72852 -3.57441,58.94187 -4.14318,114.98835 -0.58414,57.56201 0.20889,112.11101 1.66411,114.4656 1.09111,1.76545 24.02788,-0.1895 40.961,-3.49119 11.19872,-2.18358 32.59721,-7.75245 38.06026,-9.90505 1.30709,-0.51503 1.53573,2.91484 1.77785,26.6698 l 0.27784,27.26084 -28.27784,-0.36416 c -27.4989,-0.35412 -100.40341,1.407 -104.13566,2.51556 -1.6852,0.50054 -1.80114,0.10104 -1.24788,-4.29979 z m 508.96969,1.22232 c -41.5341,-9.48879 -70.29237,-52.44815 -77.9076,-116.379 -1.80304,-15.13681 -2.0534,-52.23918 -0.45003,-66.69493 5.53575,-49.90963 26.61508,-88.19065 56.98703,-103.49095 3.0286,-1.52574 9.3316,-4.0398 14.0066,-5.58682 7.8037,-2.58234 9.7697,-2.81722 24,-2.86726 17.5737,-0.0618 23.2306,1.05922 35.4755,7.03011 19.1471,9.33654 30.5245,27.13766 30.5245,47.75884 0,21.035 -11.8814,34.86883 -29.8469,34.75166 -13.8993,-0.0906 -21.984,-5.37865 -25.9829,-16.9948 -2.8136,-8.17297 -0.5259,-24.22547 4.3783,-30.72138 l 2.3559,-3.1206 -2.2147,-2.08055 c -2.8424,-2.67033 -10.0393,-5.79353 -15.3128,-6.64525 -20.4141,-3.29704 -42.2094,41.00702 -46.4728,94.467 -3.5472,44.478 4.1244,89.63712 20.2764,119.35881 5.1548,9.48537 14.3039,19.72909 20.1475,22.55794 9.4697,4.5842 20.9903,1.70863 27.2314,-6.79702 7.2601,-9.89445 9.9104,-23.96754 9.156,-48.61973 -0.4076,-13.32388 -2.7852,-33.90314 -4.0647,-35.18259 -0.2933,-0.29334 -30.6316,4.44354 -35.579,5.55515 l -4.2729,0.96004 0.5584,-2.6663 c 1.5292,-7.30252 2.7773,-26.17274 2.4783,-37.46989 -0.2885,-10.89825 -0.1252,-12.61401 1.1645,-12.23654 6.3108,1.8471 26.1704,3.04013 50.607,3.04013 h 28.107 l -0.4568,11 c -0.2512,6.05 0.2632,21.09888 1.1431,33.44196 2.2427,31.46224 2.1237,53.31411 -0.3465,63.61668 -3.9057,16.29012 -10.0627,27.47857 -20.4881,37.23102 -7.6956,7.1989 -14.471,11.18854 -25.0657,14.75993 -6.6739,2.2497 -10.155,2.75719 -21,3.06145 -8.7889,0.24657 -14.9877,-0.0894 -19.136,-1.03711 z M 894,510.06638 c -5.775,-0.41282 -14.9448,-1.33441 -20.3773,-2.04798 l -9.8774,-1.2974 0.6824,-11.1105 c 2.137,-34.79522 2.6327,-50.23628 3.214,-100.1105 0.5808,-49.83366 -0.4474,-122.73522 -2.2722,-161.0943 l -0.6229,-13.0943 6.1179,-0.63945 c 13.792,-1.44155 51.0132,-1.88243 64.1355,-0.75968 26.3182,2.25181 41.3567,5.84716 56.6542,13.54469 19.5172,9.82085 31.3089,24.39349 34.892,43.12086 2.7185,14.20797 1.0988,25.62897 -5.5468,39.11192 -6.8515,13.90098 -18.6498,24.66107 -33.2831,30.35449 l -6.8154,2.65167 5.8846,2.1456 c 12.1828,4.44209 22.1177,12.75245 30.2063,25.26708 13.2473,20.49619 15.8772,52.54545 6.3864,77.82904 -10.8683,28.95345 -36.6659,47.76743 -74.8782,54.60811 -10.3428,1.85154 -38.7737,2.64481 -54.5,1.52065 z m 52.7846,-35.28955 c 3.2612,-1.20115 7.5185,-4.01463 11.119,-7.34805 20.1561,-18.66101 22.7053,-57.49652 5.4847,-83.55683 -4.9441,-7.48206 -8.8574,-10.81992 -17.1528,-14.63061 -4.8263,-2.21704 -7.1882,-2.64315 -14.8994,-2.68802 -5.0401,-0.0293 -9.3797,0.17168 -9.6436,0.44668 -0.2639,0.275 -0.81,25.11199 -1.2135,55.19332 l -0.7338,54.69332 5.3774,0.32192 c 8.5039,0.50909 15.9456,-0.32631 21.662,-2.43173 z m -5.1348,-142.17176 c 12.9035,-3.43568 22.4068,-11.32929 28.1703,-23.39882 3.5169,-7.365 3.6799,-8.17121 3.6799,-18.20625 0,-9.70752 -0.2359,-10.99058 -3.1257,-17 -3.9869,-8.29068 -8.8551,-13.8553 -15.0904,-17.24895 -9.2098,-5.01262 -19.8931,-6.72581 -31.7808,-5.09642 l -4.776,0.65462 0.6274,17.09538 c 0.3451,9.40245 0.9223,27.78287 1.2827,40.84537 l 0.6551,23.75 7.6039,-0.0119 c 4.1821,-0.007 9.9212,-0.6289 12.7536,-1.38306 z M -119.46427,508.94951 c -16.14541,-2.52056 -27.06086,-8.36351 -40.03573,-21.4308 -10.75517,-10.83177 -16.61725,-19.63083 -23.04329,-34.58826 -19.88412,-46.28281 -21.77228,-122.94687 -4.28038,-173.79354 15.6762,-45.56865 44.41181,-68.76444 82.82367,-66.85644 19.79572,0.98329 33.65533,7.3457 48.5,22.26444 18.99438,19.08916 29.31099,44.46168 35.15318,86.45518 2.45895,17.67487 2.45068,60.69931 -0.0149,77.49991 -3.81242,25.97818 -8.66405,42.74328 -17.65269,61 -12.53202,25.45362 -31.24084,42.59655 -52.3372,47.95671 -7.66063,1.94641 -21.62161,2.66228 -29.11267,1.4928 z M -99.5,475.11357 c 15.71775,-7.24003 25.95408,-34.51016 29.46965,-78.50879 1.33145,-16.66363 1.32289,-56.44405 -0.0159,-73.65489 -4.08738,-52.54785 -16.75226,-78.37015 -38.4068,-78.30735 -19.94991,0.0579 -31.90951,22.526 -37.71682,70.85746 -1.78592,14.86341 -1.78821,73.85647 -0.003,90 4.24957,38.43912 13.68802,62.09268 27.52896,68.98991 6.11048,3.04499 13.37412,3.28161 19.1444,0.62366 z m 1598.7497,31.88782 c -21.0854,-2.96951 -39.0651,-12.21405 -48.9435,-25.16494 -8.2404,-10.80349 -11.3035,-19.55214 -12.0221,-34.33645 -1.0659,-21.93179 6.2844,-36.3487 22.2956,-43.73013 4.031,-1.85841 6.6555,-2.26851 14.5211,-2.26912 9.0002,-7e-4 10.0325,0.21876 16.5,3.50806 11.2009,5.69655 16.9264,16.07378 16.8557,30.54974 -0.058,11.80012 -6.8275,22.42862 -16.2713,25.54533 l -3.3686,1.11174 3.1809,3.28179 c 4.129,4.26009 11.4065,8.18142 17.6809,9.52704 11.2514,2.41299 27.0326,-3.85924 34.5336,-13.72539 4.9595,-6.52318 6.788,-12.51622 6.788,-22.24789 0,-14.91236 -5.8101,-28.62771 -16.9313,-39.96788 -7.5271,-7.6753 -14.893,-12.9654 -32.2758,-23.17993 -16.4681,-9.6771 -22.4783,-13.8126 -31.4659,-21.6511 -10.491,-9.14966 -17.6788,-18.17339 -22.9026,-28.75226 -6.3116,-12.78168 -8.4283,-22.07511 -8.407,-36.90996 0.02,-13.90792 1.5343,-22.25005 5.9757,-32.91876 12.6955,-30.49591 42.4446,-48.23994 77.7781,-46.39111 29.083,1.52178 52.1447,14.63705 62.5063,35.54769 l 4.2225,8.52136 v 12.07539 c 0,10.91758 -0.2494,12.60712 -2.6011,17.62102 -3.701,7.89049 -8.0997,12.4356 -15.6165,16.13609 -5.8924,2.90082 -7.4574,3.2268 -15.6644,3.26268 -7.5576,0.0331 -9.9126,-0.35409 -13.7613,-2.26224 -5.8559,-2.9033 -11.5792,-8.51012 -13.9665,-13.68216 -3.4532,-7.48148 -1.7715,-24.10183 3.2629,-32.24774 2.0208,-3.26978 2.0267,-3.40201 0.2126,-4.78914 -5.6169,-4.29477 -10.4293,-5.72215 -17.6929,-5.24776 -20.0617,1.31026 -31.9484,18.45756 -27.7142,39.97948 3.328,16.91623 13.0687,27.33997 46.3386,49.58825 32.7879,21.92593 45.4896,34.18063 54.6395,52.71691 9.5443,19.33502 11.1756,40.6329 4.9746,64.94587 -7.1098,27.87624 -27.9422,47.83861 -55.9113,53.57632 -11.2472,2.3073 -28.0103,3.21008 -36.7503,1.9792 z M 1173,505.18004 c 0,-1.00098 0.6646,-14.38848 1.4769,-29.75 3.6327,-68.70132 4.4528,-129.88448 2.4287,-181.1901 -0.6019,-15.25697 -1.2787,-27.92922 -1.5039,-28.16055 -0.4528,-0.46504 -38.7915,1.71277 -44.4813,2.52673 l -3.5795,0.51208 -1.2224,-17.3091 c -0.6723,-9.52 -1.4742,-19.59806 -1.782,-22.39568 l -0.5596,-5.08659 46.3616,-0.63801 c 25.4988,-0.35091 57.753,-1.14548 71.6759,-1.76571 13.9229,-0.62023 25.4429,-0.96916 25.6001,-0.7754 0.1571,0.19376 0.072,9.39454 -0.1886,20.44617 l -0.4743,20.09388 -23.5496,0.66326 c -12.9523,0.3648 -23.8089,0.92257 -24.1258,1.2395 -0.3169,0.31693 -0.5271,29.67622 -0.467,65.24286 0.1059,62.74968 1.1196,102.09123 3.8563,149.66662 0.7276,12.65 1.1587,23.27325 0.958,23.60723 -0.2008,0.33397 -7.4657,0.86528 -16.1443,1.1807 -8.6785,0.31541 -19.6042,1.27904 -24.2792,2.1414 -10.4841,1.93393 -10,1.946 -10,-0.24929 z M 313.62006,468.25 c 1.73457,-81.08084 0.52958,-210.68672 -2.23469,-240.35653 l -0.61552,-6.60653 17.36508,-0.6714 c 9.55079,-0.36927 20.38182,-0.93993 24.06896,-1.26814 l 6.70389,-0.59673 -0.58488,68.87466 c -0.60689,71.46628 0.45438,130.52644 3.21427,178.87467 0.81629,14.3 1.59186,28.02183 1.7235,30.49296 l 0.23933,4.49295 -21.5,2.17122 c -11.825,1.19416 -23.22969,2.20983 -25.34377,2.25704 l -3.84376,0.0858 0.80759,-37.75 z m 741.86574,36 c 0.3849,-0.9625 0.9392,-46.075 1.2319,-100.25 0.4918,-91.05331 -0.1808,-140.38162 -2.3605,-173.10452 l -0.6397,-9.60452 16.3912,-0.66666 c 9.0152,-0.36666 19.7678,-0.93055 23.8946,-1.25308 l 7.5032,-0.58643 -0.3605,78.85761 c -0.3686,80.62454 0.5071,124.62373 3.4767,174.67108 0.9561,16.11295 1.2774,28.1482 0.7638,28.60915 -0.8086,0.72573 -42.7297,5.15893 -48.2435,5.10179 -1.8407,-0.0191 -2.2037,-0.40771 -1.6572,-1.77442 z m 229.9378,-1.3743 c 0.3088,-1.85664 1.2305,-11.9257 2.0482,-22.3757 6.6634,-85.14939 6.6664,-161.82051 0.01,-238 -0.8171,-9.35 -1.6781,-18.1361 -1.9133,-19.52466 l -0.4278,-2.52466 66.3076,0.0247 66.3076,0.0247 0.7131,13.5 c 0.3921,7.425 1.0426,16.59777 1.4455,20.38394 l 0.7325,6.88393 -8.5732,-0.68125 c -19.2758,-1.53171 -41.5396,-2.51596 -57.6873,-2.55026 L 1337.2718,258 l -0.6359,4.63957 c -0.3497,2.55176 -0.6359,19.65176 -0.6359,38 V 334 l 10.75,-0.0107 c 9.4158,-0.009 28.4431,-1.60841 42.25,-3.55065 l 4.5,-0.63302 0.036,11.84719 c 0.02,6.51595 0.3637,16.52448 0.7644,22.24116 l 0.7286,10.39396 -6.2644,-0.66584 c -10.8515,-1.15339 -30.8475,-2.54421 -42.1702,-2.93314 l -10.9057,-0.37461 0.6855,46.09283 c 0.377,25.35106 0.9535,47.59144 1.281,49.42308 l 0.5955,3.33026 12.1247,-0.64072 c 25.1074,-1.32678 53.3178,-4.73746 65.6557,-7.93788 l 4.6868,-1.21574 0.6461,19.06692 c 0.3554,10.4868 0.9195,20.52651 1.2537,22.31046 l 0.6075,3.24354 -30.3625,-0.6293 c -28.261,-0.58575 -100.2443,0.99946 -105.6815,2.3273 -2.1518,0.52549 -2.2784,0.32301 -1.7575,-2.80939 z m -1523.8355,0.93914 c -29.12489,-0.98395 -27.02112,-0.33493 -30.49316,-9.40717 -3.46672,-9.05833 -5.21664,-20.50864 -6.099,-39.90767 -1.5849,-34.8446 -7.46051,-53.24242 -21.06899,-65.97156 -7.36733,-6.89128 -14.51223,-9.82854 -25.1691,-10.34701 l -8.74214,-0.42532 -0.25786,60.37195 L -330.5,498.5 l -26,0.57092 c -14.3,0.31401 -26.15181,0.4622 -26.33735,0.32932 -0.18555,-0.13289 0.37681,-7.81936 1.24968,-17.08106 2.94343,-31.23179 3.90875,-88.98959 2.6126,-156.31918 -0.65116,-33.825 -1.54248,-70.05 -1.98071,-80.5 -0.43824,-10.45 -0.64825,-19.16671 -0.4667,-19.37048 1.53783,-1.72594 35.08619,-4.88526 60.89749,-5.73484 20.82162,-0.68535 33.7153,0.33471 46.95308,3.71462 32.43423,8.28119 52.72849,31.9956 56.0419,65.48649 0.62682,6.33566 0.37394,8.07504 -2.3606,16.23709 -8.69268,25.94592 -24.28942,44.02067 -44.27294,51.30703 l -5.83353,2.12701 6.5395,3.29021 c 19.11445,9.61704 28.84103,23.34136 32.91459,46.44287 0.82435,4.675 2.17921,17.76381 3.0108,29.08625 0.83159,11.32244 2.1992,24.20899 3.03914,28.6368 2.66204,14.03315 8.04087,28.24804 12.83561,33.92131 3.11927,3.6908 3.27469,4.41027 0.90744,4.20076 -0.9625,-0.0852 -13.41035,-0.5488 -27.6619,-1.03028 z m -67.38732,-159.91181 c 19.21224,-3.97707 33.66362,-18.80599 38.35015,-39.35205 2.84986,-12.49396 -1.07969,-25.94303 -10.486,-35.88881 -9.00707,-9.52365 -20.18915,-13.88219 -36.06493,-14.05735 -5.225,-0.0576 -11.6375,0.26025 -14.25,0.70645 l -4.75,0.81128 v 43.8723 43.87231 l 2.75,0.41659 c 5.80774,0.8798 19.3826,0.66842 24.45078,-0.38072 z M 497.46253,498.52962 C 497.29447,497.96333 495.95742,491.875 494.4913,485 489.38315,461.04661 475.54602,407.49048 463.87482,366.5 456.99569,342.33976 443.78903,298.56677 442.90611,297 c -0.57197,-1.01499 -0.85531,-0.20663 -0.87628,2.5 -0.017,2.2 -0.46748,12.1 -1.00097,22 -3.49356,64.8299 -3.28094,118.98345 0.62525,159.25284 0.92045,9.48906 1.48733,17.36835 1.25972,17.50954 -0.22761,0.14119 -11.14734,0.10316 -24.26608,-0.0845 l -23.85226,-0.34124 0.85226,-40.66831 c 1.8939,-90.37462 0.62448,-223.22109 -2.22892,-233.25823 -0.40247,-1.41573 2.64495,-1.66072 27.81459,-2.2361 15.54662,-0.3554 30.55981,-0.93192 33.36266,-1.28114 l 5.09607,-0.63496 1.23737,6.37106 c 6.38755,32.88872 35.9472,145.51692 48.91372,186.37104 l 2.85648,9 0.67704,-9 c 0.37237,-4.95 1.10338,-26.95874 1.62447,-48.90832 1.1843,-49.88543 -0.30054,-107.13997 -3.63699,-140.24127 l -0.61985,-6.14958 8.3778,-0.56624 c 4.6078,-0.31143 16.20071,-0.78838 25.76204,-1.05989 l 17.38423,-0.49366 -0.619,8.20948 c -2.30826,30.61294 -3.13902,75.85234 -3.14401,171.20948 l -0.005,104 -19,-0.29549 c -10.45,-0.16251 -24.11468,0.0758 -30.36595,0.52962 -7.62716,0.55369 -11.46647,0.48641 -11.67152,-0.20451 z"
       id="path5320" />
  </g>
</svg>
