<?xml version="1.0" encoding="UTF-8" standalone="no"?>
<svg
   xml:space="preserve"
   viewBox="0 0 49.351 40"
   version="1.1"
   id="svg16"
   sodipodi:docname="logo-simple.svg"
   inkscape:version="1.2.2 (b0a84865, 2022-12-01)"
   xmlns:inkscape="http://www.inkscape.org/namespaces/inkscape"
   xmlns:sodipodi="http://sodipodi.sourceforge.net/DTD/sodipodi-0.dtd"
   xmlns="http://www.w3.org/2000/svg"
   xmlns:svg="http://www.w3.org/2000/svg"><defs
   id="defs20" /><sodipodi:namedview
   id="namedview18"
   pagecolor="#ffffff"
   bordercolor="#000000"
   borderopacity="0.25"
   inkscape:showpageshadow="2"
   inkscape:pageopacity="0.0"
   inkscape:pagecheckerboard="0"
   inkscape:deskcolor="#d1d1d1"
   showgrid="false"
   inkscape:zoom="7.4031815"
   inkscape:cx="14.926015"
   inkscape:cy="29.852031"
   inkscape:window-width="1278"
   inkscape:window-height="872"
   inkscape:window-x="162"
   inkscape:window-y="0"
   inkscape:window-maximized="0"
   inkscape:current-layer="g14" />
  <g
   style="display:inline"
   id="g14">
    <path
   d="m 230.896,100.542 h 113.677 a 6,6 45 0 1 6,6 v 89.864 a 6,6 135 0 1 -6,6 H 230.896 a 6,6 45 0 1 -6,-6 v -89.864 a 6,6 135 0 1 6,-6 z"
   style="display:none;fill:#5ea45e;fill-opacity:1;stroke-width:22.9747;stroke-linecap:round;stroke-linejoin:round;paint-order:stroke fill markers"
   transform="matrix(0.39268,0,0,0.39268,-88.312,-39.48)"
   id="path2" />
    <path
   d="m 232.417,104.07 h 110.635 a 4,4 0 0 1 4,4 v 86.809 a 4,4 0 0 1 -4,4 H 232.417 a 4,4 0 0 1 -4,-4 v -86.81 a 4,4 0 0 1 4,-4 z"
   style="display:none;fill:none;fill-opacity:1;stroke:#ffffff;stroke-width:1.71979;stroke-linecap:round;stroke-linejoin:round;stroke-dasharray:none;stroke-opacity:1;paint-order:stroke fill markers"
   id="path4"
   transform="matrix(0.39268,0,0,0.39268,-88.312,-39.48)" />
    <g
   aria-label="ROLLING"
   style="font-size:36.2692px;font-family:'Rum Raisin';-inkscape-font-specification:'Rum Raisin';text-align:center;text-anchor:middle;display:inline;fill:#ffffff;stroke-width:2.5;stroke-linecap:round;stroke-linejoin:round;paint-order:stroke fill markers;stroke:#386238;stroke-opacity:1;stroke-dasharray:none"
   id="g8">
      <path
   d="M 8.253,16.01 Q 8.104,15.811 8.026,15.565 7.956,15.319 7.92,15.1 7.885,14.874 7.878,14.71 v -0.198 q 0,-0.219 -0.021,-0.52 Q 7.843,13.685 7.779,13.363 7.715,13.035 7.595,12.721 7.482,12.399 7.277,12.146 7.079,11.893 6.782,11.743 q -0.29,-0.158 -0.7,-0.158 -0.057,0 -0.12,0.007 -0.057,0.007 -0.114,0.007 v 4.26 L 3.896,15.9 q 0.043,-0.24 0.07,-0.56 0.036,-0.329 0.057,-0.691 0.022,-0.37 0.036,-0.766 0.014,-0.397 0.021,-0.78 0.007,-0.382 0.007,-0.738 0.007,-0.362 0.007,-0.65 0,-0.218 -0.007,-0.642 0,-0.424 -0.014,-0.95 Q 4.066,9.589 4.052,9.008 4.045,8.42 4.031,7.886 4.016,7.346 3.995,6.908 3.981,6.464 3.967,6.225 4.356,6.149 4.801,6.115 5.247,6.075 5.629,6.054 6.075,6.026 6.513,6.026 7.22,5.999 7.843,6.143 q 0.622,0.136 1.089,0.471 0.474,0.329 0.75,0.855 0.282,0.52 0.297,1.245 -0.114,0.512 -0.361,0.95 -0.106,0.185 -0.255,0.383 -0.141,0.191 -0.34,0.362 -0.19,0.171 -0.438,0.315 -0.247,0.137 -0.551,0.219 0.452,0.17 0.735,0.403 0.283,0.226 0.446,0.513 0.162,0.28 0.233,0.609 0.078,0.32 0.106,0.683 0.036,0.356 0.057,0.739 0.021,0.376 0.078,0.766 0.056,0.294 0.141,0.56 0.078,0.233 0.191,0.472 0.12,0.233 0.29,0.383 z M 8.183,8.803 Q 8.175,8.365 7.984,8.016 7.899,7.873 7.764,7.729 7.638,7.585 7.439,7.476 7.249,7.366 6.973,7.298 6.703,7.23 6.343,7.23 6.067,7.23 5.735,7.305 l 0.028,3.09 q 0.128,0.021 0.255,0.035 0.127,0.007 0.233,0.007 0.34,0 0.601,-0.069 Q 7.114,10.3 7.312,10.184 7.51,10.067 7.652,9.924 7.793,9.78 7.892,9.623 8.118,9.261 8.182,8.803 Z m 9.067,2.181 q 0,1.094 -0.213,2.051 -0.212,0.957 -0.63,1.675 -0.417,0.711 -1.04,1.129 -0.614,0.41 -1.42,0.41 -0.821,0 -1.444,-0.41 -0.615,-0.418 -1.032,-1.129 -0.41,-0.718 -0.623,-1.675 -0.205,-0.957 -0.205,-2.051 0,-1.087 0.198,-2.045 0.205,-0.957 0.616,-1.668 0.41,-0.711 1.032,-1.122 0.623,-0.417 1.457,-0.417 0.863,0 1.485,0.417 0.63,0.41 1.033,1.122 0.403,0.711 0.594,1.668 0.191,0.958 0.191,2.045 z m -1.854,0 q 0,-0.848 -0.07,-1.593 -0.071,-0.753 -0.241,-1.306 -0.163,-0.561 -0.446,-0.883 -0.275,-0.32 -0.693,-0.32 -0.403,0 -0.679,0.32 -0.276,0.322 -0.445,0.883 -0.17,0.553 -0.248,1.306 -0.078,0.745 -0.078,1.593 0,0.854 0.078,1.607 0.078,0.745 0.248,1.306 0.177,0.553 0.452,0.882 0.276,0.321 0.672,0.321 0.39,0 0.665,-0.321 0.276,-0.329 0.453,-0.882 0.177,-0.561 0.254,-1.306 0.078,-0.753 0.078,-1.607 z m 7.589,5.333 q -0.51,-0.013 -0.962,-0.013 h -0.849 q -0.806,0 -1.386,0.013 l -0.955,0.034 q -0.438,0.02 -0.742,0.041 0.05,-0.458 0.085,-0.93 0.042,-0.471 0.07,-0.93 0.029,-0.458 0.05,-0.888 0.021,-0.431 0.035,-0.814 0.028,-0.889 0.036,-1.716 Q 18.359,10.294 18.331,9.432 18.317,9.062 18.296,8.659 18.275,8.249 18.246,7.825 18.218,7.401 18.176,6.977 18.14,6.546 18.091,6.143 L 20.177,6.04 q -0.134,1.545 -0.184,2.981 -0.05,1.43 -0.05,2.64 0,1.162 0.022,1.99 0.028,0.827 0.05,1.258 h 0.028 q 0.551,0 1.075,-0.082 0.53,-0.083 0.948,-0.185 0.488,-0.116 0.919,-0.267 -0.007,0.075 -0.007,0.192 -0.007,0.095 -0.007,0.253 v 0.869 q 0,0.273 0.014,0.628 z m 5.545,0 q -0.51,-0.013 -0.962,-0.013 h -0.849 q -0.806,0 -1.386,0.013 l -0.955,0.034 q -0.438,0.02 -0.742,0.041 0.05,-0.458 0.085,-0.93 0.042,-0.471 0.07,-0.93 0.029,-0.458 0.05,-0.888 0.021,-0.431 0.035,-0.814 0.028,-0.889 0.035,-1.716 Q 23.904,10.294 23.876,9.432 23.862,9.062 23.841,8.659 23.82,8.249 23.791,7.825 23.763,7.401 23.721,6.977 23.685,6.546 23.636,6.143 L 25.722,6.04 q -0.134,1.545 -0.184,2.981 -0.05,1.43 -0.05,2.64 0,1.162 0.022,1.99 0.028,0.827 0.05,1.258 h 0.028 q 0.551,0 1.075,-0.082 0.53,-0.083 0.947,-0.185 0.488,-0.116 0.92,-0.267 -0.007,0.075 -0.007,0.192 -0.007,0.095 -0.007,0.253 v 0.869 q 0,0.273 0.014,0.628 z m 2.66,-0.362 -1.868,0.184 q 0.014,-0.458 0.021,-0.95 0.014,-0.5 0.021,-0.992 l 0.015,-0.964 q 0.007,-0.478 0.007,-0.902 0.007,-0.999 0.007,-1.963 Q 29.386,9.507 29.371,8.7 29.364,8.358 29.351,7.996 29.343,7.633 29.329,7.285 29.315,6.935 29.294,6.628 29.28,6.314 29.251,6.068 l 1.783,-0.083 -0.029,0.876 -0.014,0.888 -0.014,0.848 v 0.766 q 0,1.785 0.042,3.405 0.05,1.614 0.17,3.187 z M 38.431,5.849 q -0.035,0.553 -0.063,1.155 l -0.043,1.197 -0.028,1.183 -0.014,1.094 q -0.007,0.513 -0.007,0.937 v 1.565 q 0,0.465 0.007,0.958 l 0.014,0.991 q 0.014,0.492 0.035,0.93 -0.304,-0.014 -0.558,-0.014 h -0.453 q -0.368,0 -0.608,0.007 -0.24,0.007 -0.382,0.02 -0.17,0.014 -0.262,0.028 -0.021,-0.144 -0.092,-0.444 -0.063,-0.308 -0.17,-0.725 -0.098,-0.417 -0.233,-0.923 -0.134,-0.506 -0.29,-1.053 -0.148,-0.547 -0.311,-1.108 -0.163,-0.568 -0.325,-1.1 -0.156,-0.541 -0.312,-1.02 -0.148,-0.485 -0.275,-0.868 -0.057,0.875 -0.085,1.62 -0.029,0.739 -0.043,1.293 -0.02,0.643 -0.02,1.176 0,0.458 0.02,0.97 0.014,0.438 0.05,1 0.042,0.56 0.12,1.141 -0.545,-0.02 -0.898,-0.02 -0.347,-0.007 -0.552,-0.007 h -0.346 q 0.035,-1.224 0.056,-2.079 0.021,-0.855 0.028,-1.43 0.015,-0.58 0.015,-0.929 0.007,-0.349 0.007,-0.56 0,-0.22 -0.007,-0.35 v -0.266 q 0,-0.342 -0.007,-0.814 0,-0.472 -0.015,-1.012 Q 32.37,7.845 32.342,7.257 32.314,6.669 32.264,6.095 q 0.722,0 1.188,-0.014 0.467,-0.014 0.743,-0.027 0.325,-0.02 0.502,-0.041 0.035,0.219 0.142,0.683 l 0.261,1.08 q 0.156,0.61 0.347,1.32 0.19,0.712 0.389,1.436 0.205,0.718 0.41,1.402 0.205,0.677 0.389,1.224 0.035,-0.581 0.05,-1.183 0.02,-0.608 0.028,-1.135 0.014,-0.526 0.014,-0.916 V 9.377 Q 36.72,8.755 36.699,8.132 36.692,7.866 36.677,7.579 36.663,7.291 36.642,7.004 36.628,6.71 36.6,6.43 36.578,6.15 36.55,5.903 Z m 7.024,7.822 q 0,0.506 -0.163,0.985 -0.156,0.478 -0.488,0.854 -0.325,0.376 -0.828,0.602 -0.495,0.226 -1.18,0.226 -0.694,0 -1.323,-0.342 -0.63,-0.335 -1.11,-1.012 -0.475,-0.677 -0.765,-1.69 -0.282,-1.018 -0.282,-2.379 0,-1.36 0.297,-2.324 0.304,-0.965 0.799,-1.573 0.495,-0.616 1.124,-0.896 0.637,-0.287 1.302,-0.287 0.664,0 1.124,0.191 0.467,0.185 0.757,0.472 0.29,0.287 0.417,0.636 0.135,0.342 0.135,0.657 0,0.314 -0.1,0.553 -0.091,0.233 -0.247,0.39 -0.156,0.15 -0.354,0.233 -0.19,0.075 -0.389,0.075 -0.19,0 -0.381,-0.048 Q 43.616,8.946 43.474,8.83 43.333,8.707 43.241,8.515 43.156,8.317 43.156,8.03 43.163,7.886 43.191,7.75 43.22,7.633 43.276,7.496 43.34,7.353 43.46,7.23 43.354,7.114 43.227,7.052 43.099,6.99 42.979,6.956 42.845,6.922 42.703,6.908 q -0.184,0 -0.46,0.24 -0.268,0.24 -0.523,0.745 -0.254,0.5 -0.438,1.279 -0.184,0.772 -0.184,1.84 0,1.073 0.184,1.886 0.184,0.807 0.46,1.354 0.275,0.547 0.586,0.828 0.319,0.273 0.58,0.273 0.524,0 0.778,-0.458 0.262,-0.458 0.262,-1.415 0,-0.22 -0.021,-0.459 -0.014,-0.198 -0.05,-0.45 -0.035,-0.254 -0.099,-0.507 -0.247,0.034 -0.615,0.089 -0.368,0.055 -0.849,0.15 0.078,-0.307 0.1,-0.629 0.028,-0.328 0.028,-0.608 0,-0.137 -0.007,-0.253 0,-0.116 -0.008,-0.199 l -0.014,-0.177 q 0.212,0.04 0.495,0.068 0.24,0.027 0.587,0.048 0.354,0.014 0.807,0.014 h 0.502 q 0.269,-0.007 0.566,-0.028 -0.043,0.287 -0.043,0.588 0,0.26 0.021,0.547 0.022,0.288 0.043,0.602 0.021,0.315 0.042,0.663 0.021,0.342 0.021,0.732 z"
   id="path6"
   style="stroke:#549354;stroke-opacity:1;stroke-width:3.25;stroke-dasharray:none" />
    </g>
    <g
   aria-label="BITES"
   style="font-size:56.9926px;font-family:'Rum Raisin';-inkscape-font-specification:'Rum Raisin';text-align:center;text-anchor:middle;display:inline;fill:#ffffff;stroke-width:2.5;stroke-linecap:round;stroke-linejoin:round;paint-order:stroke fill markers;stroke:#386238;stroke-opacity:1;stroke-dasharray:none"
   id="g12">
      <path
   d="m 13.33,29.337 q -0.056,1.064 -0.386,1.846 -0.33,0.771 -0.846,1.325 -0.506,0.543 -1.155,0.89 -0.637,0.337 -1.297,0.533 -0.649,0.195 -1.286,0.26 -0.627,0.077 -1.11,0.077 -0.935,0 -1.76,-0.055 -0.813,-0.054 -1.594,-0.184 0.066,-0.685 0.11,-1.5 0.044,-0.825 0.077,-1.672 0.033,-0.858 0.044,-1.683 l 0.022,-1.52 Q 4.16,26.947 4.16,26.437 v -0.75 Q 4.149,24.134 4.116,22.689 4.105,22.07 4.083,21.429 4.072,20.778 4.05,20.169 4.039,19.551 4.017,19.007 3.995,18.454 3.962,18.03 4.27,17.987 4.632,17.965 5.007,17.943 5.369,17.932 5.743,17.91 6.095,17.91 6.458,17.9 6.755,17.9 q 1.33,0 2.506,0.195 1.188,0.196 2.067,0.674 0.89,0.467 1.396,1.249 0.517,0.77 0.517,1.933 -0.055,0.706 -0.352,1.325 -0.132,0.271 -0.33,0.554 -0.186,0.271 -0.472,0.521 -0.286,0.25 -0.67,0.467 -0.386,0.218 -0.88,0.359 0.714,0.184 1.198,0.554 0.484,0.369 0.792,0.825 0.318,0.445 0.472,0.923 0.165,0.478 0.231,0.88 0.077,0.402 0.088,0.673 0.011,0.272 0.011,0.305 z m -3.09,0.108 Q 10.207,28.533 9.932,27.805 9.811,27.501 9.624,27.208 9.448,26.904 9.184,26.676 8.92,26.436 8.558,26.296 8.195,26.154 7.722,26.154 q -0.12,0 -0.253,0.011 -0.132,0.01 -0.286,0.033 l -0.088,6.136 q 0.33,0.065 0.65,0.065 0.46,0 0.802,-0.119 0.351,-0.13 0.615,-0.337 0.264,-0.217 0.44,-0.478 0.187,-0.26 0.308,-0.543 0.286,-0.651 0.33,-1.477 z m -0.044,-7.56 Q 10.152,21.277 9.888,20.8 9.778,20.593 9.602,20.398 9.437,20.202 9.184,20.05 8.942,19.898 8.602,19.8 q -0.33,-0.097 -0.77,-0.097 -0.352,0 -0.78,0.065 l 0.131,4.605 h 0.242 q 0.682,0 1.155,-0.174 0.472,-0.184 0.78,-0.445 0.308,-0.272 0.473,-0.587 0.176,-0.315 0.253,-0.586 0.077,-0.283 0.088,-0.467 0.022,-0.196 0.022,-0.228 z m 7.498,11.85 -2.903,0.294 q 0.022,-0.728 0.033,-1.51 0.022,-0.793 0.033,-1.575 l 0.022,-1.531 q 0.011,-0.76 0.011,-1.434 0.011,-1.586 0.011,-3.117 -0.01,-1.369 -0.033,-2.65 -0.01,-0.543 -0.033,-1.12 -0.01,-0.575 -0.033,-1.129 -0.022,-0.554 -0.055,-1.042 -0.022,-0.5 -0.066,-0.891 l 2.771,-0.13 -0.044,1.39 -0.022,1.412 -0.022,1.347 v 1.216 q 0,2.835 0.066,5.41 0.077,2.562 0.264,5.06 z m 6.662,0.065 h -0.307 q -0.682,0 -1.298,0.066 -0.604,0.076 -1.297,0.206 0.143,-2.39 0.22,-4.486 0.077,-2.107 0.077,-4.083 0,-2.531 -0.132,-4.997 l -2.77,0.196 -0.023,-0.674 q -0.01,-0.315 -0.033,-0.597 -0.022,-0.293 -0.055,-0.586 -0.033,-0.305 -0.077,-0.674 h 1.33 q 0.88,0 1.716,-0.01 0.846,-0.012 1.682,-0.033 0.847,-0.022 1.704,-0.055 0.869,-0.032 1.792,-0.086 -0.055,0.553 -0.077,0.944 -0.01,0.38 -0.01,0.793 V 20.3 l -2.705,0.065 q -0.033,1.043 -0.044,2.053 v 2.02 q 0,2.368 0.077,4.692 0.077,2.325 0.23,4.67 z m 11.303,0.077 q -0.89,-0.022 -1.66,-0.033 h -1.44 q -1.331,0 -2.233,0.022 -0.89,0.032 -1.45,0.054 -0.66,0.033 -1.045,0.065 0.077,-0.727 0.132,-1.466 0.066,-0.739 0.11,-1.455 0.044,-0.717 0.077,-1.38 0.032,-0.662 0.054,-1.249 0.044,-1.368 0.055,-2.617 -0.01,-1.304 -0.055,-2.672 -0.022,-0.587 -0.054,-1.228 -0.033,-0.651 -0.077,-1.325 -0.044,-0.673 -0.11,-1.347 -0.055,-0.684 -0.132,-1.325 1.374,0.055 2.451,0.087 1.089,0.022 1.935,0.022 0.836,0 1.44,-0.01 0.605,-0.023 0.99,-0.044 0.45,-0.022 0.748,-0.055 v 0.196 q 0,0.206 0.01,0.543 0.012,0.337 0.034,0.76 0.033,0.424 0.088,0.858 -1.276,-0.12 -2.232,-0.152 -0.957,-0.043 -1.638,-0.043 h -0.506 q -0.209,0 -0.396,0.022 -0.022,1.205 -0.033,2.27 -0.01,1.053 -0.01,1.998 0.769,-0.022 1.373,-0.054 0.605,-0.044 1.034,-0.098 0.495,-0.054 0.88,-0.12 -0.012,0.077 -0.012,0.174 -0.01,0.087 -0.01,0.207 v 0.271 q 0,0.348 0.022,0.836 0.022,0.478 0.087,1.032 -1.187,-0.152 -2.044,-0.184 -0.858,-0.044 -1.33,-0.044 0,1.13 0.01,2.02 0.011,0.88 0.022,1.554 0.022,0.673 0.033,1.15 0.022,0.479 0.044,0.794 1.122,-0.022 2.001,-0.109 0.88,-0.087 1.484,-0.174 0.605,-0.097 0.924,-0.173 0.319,-0.076 0.319,-0.098 -0.011,0.054 -0.011,0.12 -0.011,0.054 -0.011,0.14 v 0.207 q 0,0.304 0.022,0.815 0.022,0.51 0.11,1.238 z m 9.774,-3.987 q -0.11,1.228 -0.572,2.042 -0.45,0.804 -1.11,1.293 -0.66,0.478 -1.463,0.673 -0.791,0.196 -1.583,0.196 -0.825,0 -1.594,-0.228 -0.759,-0.217 -1.341,-0.663 -0.583,-0.445 -0.935,-1.118 -0.34,-0.674 -0.34,-1.575 0,-0.696 0.208,-1.163 0.22,-0.467 0.539,-0.749 0.319,-0.282 0.681,-0.391 0.363,-0.12 0.671,-0.12 0.319,0 0.66,0.098 0.34,0.098 0.626,0.326 0.286,0.228 0.462,0.62 0.187,0.38 0.187,0.955 0,0.01 -0.022,0.206 -0.01,0.185 -0.12,0.435 -0.11,0.239 -0.342,0.478 -0.22,0.228 -0.648,0.326 0.308,0.38 0.714,0.575 0.418,0.185 0.704,0.185 0.286,0 0.649,-0.098 0.373,-0.098 0.692,-0.326 0.33,-0.239 0.55,-0.619 0.23,-0.39 0.23,-0.977 0,-0.685 -0.241,-1.217 -0.23,-0.532 -0.605,-0.934 -0.363,-0.413 -0.824,-0.717 -0.451,-0.315 -0.88,-0.565 -0.286,-0.162 -0.681,-0.38 -0.396,-0.228 -0.825,-0.532 -0.429,-0.315 -0.847,-0.706 -0.417,-0.402 -0.758,-0.901 -0.33,-0.51 -0.539,-1.13 -0.198,-0.619 -0.198,-1.368 0,-1.12 0.396,-1.955 0.396,-0.848 1.022,-1.412 0.638,-0.565 1.44,-0.848 0.803,-0.282 1.628,-0.282 0.824,0 1.572,0.228 0.748,0.217 1.308,0.64 0.572,0.414 0.902,1 0.34,0.576 0.34,1.293 0,0.727 -0.241,1.15 -0.242,0.425 -0.583,0.642 -0.33,0.217 -0.682,0.282 -0.34,0.054 -0.55,0.054 -0.263,0 -0.549,-0.097 -0.286,-0.098 -0.528,-0.294 -0.23,-0.195 -0.384,-0.477 -0.154,-0.283 -0.154,-0.663 0.01,-0.239 0.055,-0.478 0.044,-0.206 0.132,-0.445 0.087,-0.24 0.263,-0.456 -0.176,-0.152 -0.34,-0.24 -0.165,-0.086 -0.308,-0.13 -0.165,-0.043 -0.32,-0.054 -0.307,0 -0.626,0.109 -0.308,0.108 -0.571,0.325 -0.253,0.218 -0.418,0.554 -0.165,0.326 -0.165,0.772 0,0.52 0.165,0.944 0.165,0.413 0.516,0.804 0.352,0.391 0.891,0.793 0.55,0.402 1.308,0.88 0.89,0.554 1.529,1.108 0.648,0.554 1.055,1.14 0.418,0.587 0.616,1.238 0.198,0.641 0.198,1.39 v 0.272 q 0,0.13 -0.022,0.283 z"
   id="path10"
   style="stroke:#549354;stroke-opacity:1;stroke-width:3.25;stroke-dasharray:none" />
    </g>
  </g>
</svg>
