<svg
   xml:space="preserve"
   viewBox="0 0 40.400008 6.4655871"
   version="1.1"
   id="svg16"
   width="40.400009"
   height="6.4655871"
   xmlns="http://www.w3.org/2000/svg"
   xmlns:svg="http://www.w3.org/2000/svg"><defs
   id="defs20"><filter
     style="color-interpolation-filters:sRGB"
     id="filter3598"
     x="0"
     y="0"
     width="1.01"
     height="1.0486572"><feFlood
       flood-opacity="0.321569"
       flood-color="rgb(26,26,26)"
       result="flood"
       id="feFlood3588" /><feComposite
       in="SourceGraphic"
       in2="flood"
       operator="in"
       result="composite1"
       id="feComposite3590" /><feGaussianBlur
       in="composite1"
       stdDeviation="0"
       result="blur"
       id="feGaussianBlur3592" /><feOffset
       dx="0.4"
       dy="0.3"
       result="offset"
       id="feOffset3594" /><feComposite
       in="SourceGraphic"
       in2="offset"
       operator="over"
       result="composite2"
       id="feComposite3596" /></filter></defs>
  <g
   style="display:inline"
   id="g14"
   transform="translate(-4.2927313,-10.920277)">
    
    
    
    
  <g
   aria-label="ROLLING BITES"
   id="text1671"
   style="font-weight:bold;font-size:8.01722px;font-family:'Devanagari MT';-inkscape-font-specification:'Devanagari MT, Bold';text-align:center;text-anchor:middle;fill:#5ea45e;stroke-width:0.0751615;stroke-linecap:round;stroke-linejoin:round;paint-order:stroke fill markers;filter:url(#filter3598)"
   transform="translate(-0.38278258,-5.9969272)"><path
     d="m 7.0869424,22.863572 q -0.082208,-0.113525 -0.125269,-0.254453 -0.039147,-0.140928 -0.05872,-0.266197 -0.019573,-0.129183 -0.023488,-0.223135 0,-0.09395 0,-0.113525 0,-0.125269 -0.011744,-0.297514 -0.00783,-0.17616 -0.043061,-0.360149 -0.035232,-0.187903 -0.1017811,-0.367978 -0.062635,-0.183989 -0.1761596,-0.328831 -0.1096104,-0.144842 -0.274026,-0.230965 -0.160501,-0.09004 -0.3875512,-0.09004 -0.031317,0 -0.066549,0.0039 -0.031317,0.0039 -0.062634,0.0039 v 2.438832 l -1.0804456,0.02349 q 0.023488,-0.137013 0.039147,-0.321002 0.019573,-0.187903 0.031317,-0.39538 0.011744,-0.211392 0.019573,-0.438442 0.00783,-0.22705 0.011744,-0.446271 0.00391,-0.219221 0.00391,-0.422783 0.00391,-0.207477 0.00391,-0.371892 0,-0.125269 -0.00391,-0.367978 0,-0.242709 -0.00783,-0.544138 -0.00391,-0.305343 -0.011744,-0.638089 -0.00391,-0.336661 -0.011744,-0.642004 -0.00783,-0.309258 -0.019573,-0.559796 -0.00783,-0.254453 -0.015659,-0.391466 0.2153062,-0.04306 0.4619296,-0.06263 0.2466235,-0.02349 0.458015,-0.03523 0.2466235,-0.01566 0.4893322,-0.01566 0.3914658,-0.01566 0.7359557,0.06655 0.3444899,0.07829 0.6028574,0.270112 0.2622821,0.187903 0.4149537,0.489332 0.1565863,0.297514 0.1644157,0.712468 -0.062635,0.293599 -0.1996476,0.544137 -0.05872,0.105696 -0.1409277,0.219221 -0.078293,0.10961 -0.1879036,0.207477 -0.1056957,0.09787 -0.2427088,0.180074 -0.137013,0.07829 -0.3053433,0.125269 0.2505381,0.09787 0.4071244,0.230965 0.1565864,0.129184 0.2466235,0.293599 0.090037,0.160501 0.1291837,0.348405 0.043061,0.183989 0.05872,0.391466 0.019573,0.203562 0.031317,0.422783 0.011744,0.215306 0.043061,0.438442 0.031317,0.16833 0.078293,0.321002 0.043061,0.133098 0.1056958,0.270111 0.066549,0.133098 0.160501,0.219221 z m -0.039147,-4.12605 q -0.00391,-0.250538 -0.10961,-0.450185 -0.046976,-0.08221 -0.1213544,-0.164416 -0.070464,-0.08221 -0.1800743,-0.144842 -0.1056957,-0.06264 -0.2583674,-0.101781 -0.148757,-0.03915 -0.3484045,-0.03915 -0.1526717,0 -0.3366606,0.04306 l 0.015659,1.769426 q 0.070464,0.01174 0.1409277,0.01957 0.070464,0.0039 0.1291837,0.0039 0.1879036,0 0.3327459,-0.03915 0.1448424,-0.03915 0.2544528,-0.105696 0.1096104,-0.06655 0.1879036,-0.148757 0.078293,-0.08221 0.1330984,-0.172245 0.125269,-0.207477 0.1605009,-0.469759 z"
     style="font-family:'Rum Raisin';-inkscape-font-specification:'Rum Raisin Bold'"
     id="path3417" /><path
     d="m 12.066387,19.986298 q 0,0.626345 -0.117439,1.174398 -0.11744,0.548052 -0.348405,0.959091 -0.230965,0.407124 -0.575455,0.645918 -0.340575,0.23488 -0.786846,0.23488 -0.4541002,0 -0.7985901,-0.23488 Q 9.0990766,22.526911 8.8681118,22.119787 8.6410616,21.708748 8.5236219,21.160696 8.4100968,20.612643 8.4100968,19.986298 q 0,-0.62243 0.1096104,-1.170483 0.1135251,-0.548052 0.3405753,-0.955176 0.2270502,-0.407124 0.5715401,-0.642004 0.3444899,-0.238794 0.8064194,-0.238794 0.477588,0 0.822078,0.238794 0.348405,0.23488 0.57154,0.642004 0.223136,0.407124 0.328832,0.955176 0.105695,0.548053 0.105695,1.170483 z m -1.02564,0 q 0,-0.485417 -0.03915,-0.912115 -0.03915,-0.430612 -0.133098,-0.7477 -0.09004,-0.321002 -0.246623,-0.504991 -0.152672,-0.183989 -0.383637,-0.183989 -0.223135,0 -0.3758071,0.183989 -0.1526716,0.183989 -0.2466234,0.504991 -0.093952,0.317088 -0.137013,0.7477 -0.043061,0.426698 -0.043061,0.912115 0,0.489332 0.043061,0.919945 0.043061,0.426698 0.137013,0.7477 0.097866,0.317087 0.2505381,0.50499 0.1526714,0.183989 0.3718924,0.183989 0.215306,0 0.367978,-0.183989 0.152672,-0.187903 0.250538,-0.50499 0.09787,-0.321002 0.140928,-0.7477 0.04306,-0.430613 0.04306,-0.919945 z"
     style="font-family:'Rum Raisin';-inkscape-font-specification:'Rum Raisin Bold'"
     id="path3419" /><path
     d="m 15.241175,23.039731 q -0.281856,-0.0078 -0.532394,-0.0078 -0.250538,0 -0.469759,0 -0.446271,0 -0.767273,0.0078 -0.317087,0.01174 -0.528479,0.01957 -0.242708,0.01174 -0.411039,0.02349 0.0274,-0.262282 0.04698,-0.532394 0.02349,-0.270111 0.03915,-0.532393 0.01566,-0.262282 0.0274,-0.508906 0.01174,-0.246623 0.01957,-0.465844 0.01566,-0.508906 0.01957,-0.982579 -0.0039,-0.469759 -0.01957,-0.963006 -0.0078,-0.211392 -0.01957,-0.442356 -0.01174,-0.23488 -0.0274,-0.477589 -0.01566,-0.242709 -0.03915,-0.485417 -0.01957,-0.246624 -0.04698,-0.477589 L 13.687056,17.156 q -0.07438,0.884713 -0.101782,1.706791 -0.0274,0.818164 -0.0274,1.511058 0,0.665492 0.01174,1.139166 0.01566,0.473673 0.0274,0.720297 h 0.01566 q 0.305343,0 0.595028,-0.04698 0.293599,-0.04698 0.524564,-0.105696 0.270112,-0.06655 0.508906,-0.152671 -0.0039,0.04306 -0.0039,0.10961 -0.0039,0.0548 -0.0039,0.144842 0,0.08612 0,0.211392 0,0.125269 0,0.28577 0,0.156586 0.0078,0.360148 z"
     style="font-family:'Rum Raisin';-inkscape-font-specification:'Rum Raisin Bold'"
     id="path3421" /><path
     d="m 18.310267,23.039731 q -0.281856,-0.0078 -0.532394,-0.0078 -0.250538,0 -0.469759,0 -0.446271,0 -0.767273,0.0078 -0.317087,0.01174 -0.528479,0.01957 -0.242708,0.01174 -0.411039,0.02349 0.0274,-0.262282 0.04698,-0.532394 0.02349,-0.270111 0.03915,-0.532393 0.01566,-0.262282 0.0274,-0.508906 0.01174,-0.246623 0.01957,-0.465844 0.01566,-0.508906 0.01957,-0.982579 -0.0039,-0.469759 -0.01957,-0.963006 -0.0078,-0.211392 -0.01957,-0.442356 -0.01174,-0.23488 -0.0274,-0.477589 -0.01566,-0.242709 -0.03915,-0.485417 -0.01957,-0.246624 -0.04698,-0.477589 L 16.756147,17.156 q -0.07438,0.884713 -0.101781,1.706791 -0.0274,0.818164 -0.0274,1.511058 0,0.665492 0.01174,1.139166 0.01566,0.473673 0.0274,0.720297 h 0.01566 q 0.305343,0 0.595028,-0.04698 0.293599,-0.04698 0.524564,-0.105696 0.270111,-0.06655 0.508906,-0.152671 -0.0039,0.04306 -0.0039,0.10961 -0.0039,0.0548 -0.0039,0.144842 0,0.08612 0,0.211392 0,0.125269 0,0.28577 0,0.156586 0.0078,0.360148 z"
     style="font-family:'Rum Raisin';-inkscape-font-specification:'Rum Raisin Bold'"
     id="path3423" /><path
     d="m 19.782178,22.832255 -1.03347,0.105695 q 0.0078,-0.262282 0.01174,-0.544137 0.0078,-0.28577 0.01174,-0.567626 0.0039,-0.281855 0.0078,-0.551966 0.0039,-0.274026 0.0039,-0.516735 0.0039,-0.57154 0.0039,-1.123507 -0.0039,-0.493247 -0.01174,-0.955177 -0.0039,-0.195732 -0.01174,-0.403209 -0.0039,-0.207477 -0.01174,-0.407125 -0.0078,-0.199647 -0.01957,-0.375807 -0.0078,-0.180074 -0.02349,-0.321002 l 0.986493,-0.04698 q -0.0078,0.242709 -0.01566,0.501076 -0.0039,0.254453 -0.0078,0.508906 -0.0039,0.250538 -0.0078,0.485418 0,0.234879 0,0.438441 0,1.021726 0.02349,1.9495 0.0274,0.923859 0.09395,1.824231 z"
     style="font-family:'Rum Raisin';-inkscape-font-specification:'Rum Raisin Bold'"
     id="path3425" /><path
     d="m 23.790788,17.04639 q -0.01957,0.317087 -0.03523,0.661577 -0.01174,0.340576 -0.02349,0.685065 -0.0078,0.34449 -0.01566,0.677236 -0.0039,0.332746 -0.0078,0.626346 -0.0039,0.293599 -0.0039,0.536308 0,0.242708 0,0.411039 0,0.219221 0,0.485417 0,0.266197 0.0039,0.548052 0.0039,0.281856 0.0078,0.567626 0.0078,0.281855 0.01957,0.532393 -0.16833,-0.0078 -0.309258,-0.0078 -0.137013,0 -0.250538,0 -0.203562,0 -0.336661,0.0039 -0.133098,0.0039 -0.211391,0.01174 -0.09395,0.0078 -0.144843,0.01566 -0.01174,-0.08221 -0.05089,-0.254452 -0.03523,-0.17616 -0.09395,-0.414954 -0.05481,-0.238794 -0.129184,-0.528479 -0.07438,-0.289685 -0.160501,-0.602857 -0.08221,-0.313173 -0.172245,-0.634175 -0.09004,-0.324917 -0.180074,-0.63026 -0.08612,-0.309258 -0.172245,-0.583284 -0.08221,-0.277941 -0.152671,-0.497161 -0.03132,0.501076 -0.04698,0.927773 -0.01566,0.422784 -0.02349,0.739871 -0.01174,0.367978 -0.01174,0.673321 0,0.262282 0.01174,0.555881 0.0078,0.250539 0.0274,0.57154 0.02349,0.321002 0.06655,0.653748 -0.301429,-0.01174 -0.497162,-0.01174 -0.191818,-0.0039 -0.305343,-0.0039 h -0.191819 q 0.01957,-0.700724 0.03132,-1.190056 0.01174,-0.489333 0.01566,-0.818164 0.0078,-0.332746 0.0078,-0.532393 0.0039,-0.199648 0.0039,-0.321002 0,-0.125269 -0.0039,-0.199648 0,-0.07438 0,-0.152671 0,-0.195733 -0.0039,-0.465845 0,-0.270111 -0.0078,-0.579369 -0.0078,-0.313173 -0.02349,-0.649833 -0.01566,-0.336661 -0.04306,-0.665492 0.399296,0 0.657663,-0.0078 0.258367,-0.0078 0.411039,-0.01566 0.180074,-0.01174 0.277941,-0.02349 0.01957,0.125269 0.07829,0.391466 0.06263,0.266196 0.144842,0.618516 0.08612,0.348404 0.191819,0.755529 0.105695,0.407124 0.215306,0.822078 0.113525,0.411039 0.22705,0.802505 0.113525,0.387551 0.215306,0.700723 0.01957,-0.332745 0.0274,-0.677235 0.01174,-0.348405 0.01566,-0.649834 0.0078,-0.301428 0.0078,-0.524564 0,-0.22705 0,-0.313172 -0.0039,-0.356234 -0.01566,-0.712468 -0.0039,-0.152672 -0.01174,-0.317087 -0.0078,-0.164416 -0.01957,-0.328832 -0.0078,-0.16833 -0.02349,-0.328831 -0.01174,-0.160501 -0.0274,-0.301429 z"
     style="font-family:'Rum Raisin';-inkscape-font-specification:'Rum Raisin Bold'"
     id="path3427" /><path
     d="m 27.678043,21.524759 q 0,0.289684 -0.09004,0.563711 -0.08612,0.274026 -0.270111,0.489332 -0.180074,0.215306 -0.458015,0.34449 -0.274026,0.129183 -0.653748,0.129183 -0.383637,0 -0.732041,-0.195732 -0.348405,-0.191819 -0.614601,-0.57937 -0.262283,-0.387551 -0.422783,-0.96692 -0.156587,-0.583284 -0.156587,-1.362301 0,-0.779017 0.164416,-1.330984 0.16833,-0.551967 0.442356,-0.900371 0.274026,-0.35232 0.622431,-0.512821 0.352319,-0.164415 0.720297,-0.164415 0.367978,0 0.62243,0.10961 0.258368,0.105696 0.418869,0.270112 0.160501,0.164415 0.230965,0.364063 0.07438,0.195733 0.07438,0.375807 0,0.180074 -0.0548,0.317087 -0.05089,0.133099 -0.137013,0.223136 -0.08612,0.08612 -0.195733,0.133098 -0.105696,0.04306 -0.215306,0.04306 -0.105696,0 -0.211392,-0.0274 -0.101781,-0.0274 -0.180074,-0.09395 -0.07829,-0.07046 -0.129184,-0.180074 -0.04698,-0.113525 -0.04698,-0.277941 0.0039,-0.08221 0.01957,-0.160501 0.01566,-0.06655 0.04698,-0.144842 0.03523,-0.08221 0.101781,-0.152672 -0.05872,-0.06655 -0.129184,-0.101781 -0.07046,-0.03523 -0.137013,-0.0548 -0.07438,-0.01957 -0.152672,-0.0274 -0.101781,0 -0.254452,0.137013 -0.148757,0.137013 -0.289685,0.426698 -0.140928,0.28577 -0.242709,0.732041 -0.101781,0.442356 -0.101781,1.053043 0,0.614601 0.101781,1.080445 0.101781,0.46193 0.254453,0.775103 0.152672,0.313172 0.324916,0.473673 0.17616,0.156587 0.321002,0.156587 0.289685,0 0.430613,-0.262282 0.144842,-0.262283 0.144842,-0.810335 0,-0.125269 -0.01174,-0.262282 -0.0078,-0.113525 -0.0274,-0.258367 -0.01957,-0.144842 -0.05481,-0.289685 -0.137013,0.01957 -0.340575,0.05089 -0.203562,0.03132 -0.469759,0.08612 0.04306,-0.176159 0.05481,-0.360148 0.01566,-0.187904 0.01566,-0.348405 0,-0.07829 -0.0039,-0.144842 0,-0.06655 -0.0039,-0.113525 -0.0039,-0.05481 -0.0078,-0.101781 0.11744,0.02349 0.274026,0.03915 0.133099,0.01566 0.324917,0.0274 0.195733,0.0078 0.446271,0.0078 0.133098,0 0.277941,0 0.148757,-0.0039 0.313172,-0.01566 -0.02349,0.164416 -0.02349,0.336661 0,0.148757 0.01174,0.313173 0.01174,0.164415 0.02349,0.34449 0.01174,0.180074 0.02349,0.379721 0.01174,0.195733 0.01174,0.418869 z"
     style="font-family:'Rum Raisin';-inkscape-font-specification:'Rum Raisin Bold'"
     id="path3429" /><path
     d="m 33.236858,21.246818 q -0.01957,0.383637 -0.137014,0.665492 -0.117439,0.277941 -0.301428,0.477588 -0.180074,0.195733 -0.411039,0.321002 -0.22705,0.121355 -0.46193,0.191818 -0.230965,0.07046 -0.458015,0.09395 -0.223135,0.0274 -0.39538,0.0274 -0.332746,0 -0.626346,-0.01957 -0.289684,-0.01957 -0.567625,-0.06655 0.02349,-0.246623 0.03915,-0.540222 0.01566,-0.297514 0.0274,-0.602858 0.01174,-0.309258 0.01566,-0.606772 0.0039,-0.297514 0.0078,-0.548052 0.0039,-0.254453 0.0039,-0.438442 0,-0.187903 0,-0.270111 -0.0039,-0.559796 -0.01566,-1.080446 -0.0039,-0.223135 -0.01174,-0.4541 -0.0039,-0.234879 -0.01174,-0.4541 -0.0039,-0.223136 -0.01174,-0.418869 -0.0078,-0.199647 -0.01957,-0.352319 0.10961,-0.01566 0.238794,-0.02349 0.133098,-0.0078 0.262282,-0.01174 0.133098,-0.0078 0.258368,-0.0078 0.129183,-0.0039 0.234879,-0.0039 0.473674,0 0.892542,0.07046 0.422783,0.07046 0.735956,0.242709 0.317087,0.16833 0.497161,0.450186 0.183989,0.27794 0.183989,0.696809 -0.01957,0.254452 -0.125269,0.477588 -0.04698,0.09787 -0.11744,0.199647 -0.06655,0.09787 -0.16833,0.187904 -0.101781,0.09004 -0.238794,0.16833 -0.137013,0.07829 -0.313173,0.129184 0.254453,0.06655 0.426698,0.199648 0.172245,0.133098 0.281855,0.297514 0.113526,0.160501 0.168331,0.332746 0.05872,0.172245 0.08221,0.317087 0.0274,0.144842 0.03132,0.242709 0.0039,0.09787 0.0039,0.10961 z m -1.100019,0.03915 q -0.01174,-0.328832 -0.109611,-0.591114 -0.04306,-0.10961 -0.10961,-0.215306 -0.06264,-0.10961 -0.156587,-0.191818 -0.09395,-0.08612 -0.223135,-0.137013 -0.129184,-0.05089 -0.297514,-0.05089 -0.04306,0 -0.09004,0.0039 -0.04698,0.0039 -0.101781,0.01174 l -0.03132,2.211782 q 0.11744,0.02349 0.230965,0.02349 0.164416,0 0.28577,-0.04306 0.125269,-0.04697 0.219221,-0.121354 0.09395,-0.07829 0.156586,-0.172245 0.06655,-0.09395 0.109611,-0.195733 0.101781,-0.234879 0.11744,-0.532393 z m -0.01566,-2.724602 q -0.01566,-0.219221 -0.10961,-0.391466 -0.03915,-0.07438 -0.101782,-0.144842 -0.05872,-0.07046 -0.148757,-0.125269 -0.08612,-0.05481 -0.207476,-0.09004 -0.11744,-0.03523 -0.274026,-0.03523 -0.12527,0 -0.277941,0.02349 l 0.04698,1.659815 h 0.08612 q 0.242709,0 0.411039,-0.06263 0.168331,-0.06655 0.277941,-0.160501 0.10961,-0.09787 0.16833,-0.211392 0.06264,-0.113525 0.09004,-0.211391 0.0274,-0.101781 0.03132,-0.16833 0.0078,-0.07046 0.0078,-0.08221 z"
     style="font-family:'Rum Raisin';-inkscape-font-specification:'Rum Raisin Bold'"
     id="path3431" /><path
     d="m 34.790977,22.832255 -1.033469,0.105695 q 0.0078,-0.262282 0.01174,-0.544137 0.0078,-0.28577 0.01174,-0.567626 0.0039,-0.281855 0.0078,-0.551966 0.0039,-0.274026 0.0039,-0.516735 0.0039,-0.57154 0.0039,-1.123507 -0.0039,-0.493247 -0.01174,-0.955177 -0.0039,-0.195732 -0.01174,-0.403209 -0.0039,-0.207477 -0.01174,-0.407125 -0.0078,-0.199647 -0.01957,-0.375807 -0.0078,-0.180074 -0.02349,-0.321002 l 0.986494,-0.04698 q -0.0078,0.242709 -0.01566,0.501076 -0.0039,0.254453 -0.0078,0.508906 -0.0039,0.250538 -0.0078,0.485418 0,0.234879 0,0.438441 0,1.021726 0.02349,1.9495 0.0274,0.923859 0.09395,1.824231 z"
     style="font-family:'Rum Raisin';-inkscape-font-specification:'Rum Raisin Bold'"
     id="path3433" /><path
     d="m 37.163259,22.855743 h -0.109611 q -0.242708,0 -0.461929,0.02349 -0.215306,0.0274 -0.46193,0.07438 0.05089,-0.861225 0.07829,-1.616754 0.0274,-0.759443 0.0274,-1.471911 0,-0.912115 -0.04698,-1.800743 l -0.986494,0.07046 q -0.0039,-0.133098 -0.0078,-0.242709 -0.0039,-0.113525 -0.01174,-0.215306 -0.0078,-0.105696 -0.01957,-0.211392 -0.01174,-0.10961 -0.0274,-0.242708 h 0.473674 q 0.313172,0 0.610686,-0.0039 0.301429,-0.0039 0.598943,-0.01174 0.301429,-0.0078 0.606772,-0.01957 0.309258,-0.01174 0.638089,-0.03132 -0.01957,0.199648 -0.0274,0.340576 -0.0039,0.137013 -0.0039,0.28577 v 0.207477 l -0.963006,0.02349 q -0.01174,0.375807 -0.01566,0.73987 0,0.360148 0,0.728126 0,0.853396 0.0274,1.691133 0.0274,0.837736 0.08221,1.683303 z"
     style="font-family:'Rum Raisin';-inkscape-font-specification:'Rum Raisin Bold'"
     id="path3435" /><path
     d="m 41.187528,22.883145 q -0.317088,-0.0078 -0.591114,-0.01174 -0.270111,0 -0.51282,0 -0.473674,0 -0.794675,0.0078 -0.317088,0.01174 -0.516735,0.01957 -0.23488,0.01174 -0.371893,0.02349 0.0274,-0.262282 0.04698,-0.528479 0.02349,-0.266197 0.03915,-0.524564 0.01566,-0.258368 0.0274,-0.497162 0.01174,-0.238794 0.01957,-0.450186 0.01566,-0.493246 0.01957,-0.943432 -0.0039,-0.469759 -0.01957,-0.963006 -0.0078,-0.211391 -0.01957,-0.442356 -0.01174,-0.23488 -0.0274,-0.477589 -0.01566,-0.242708 -0.03915,-0.485417 -0.01957,-0.246624 -0.04698,-0.477588 0.489332,0.01957 0.872969,0.03132 0.387551,0.0078 0.68898,0.0078 0.297514,0 0.51282,-0.0039 0.215306,-0.0078 0.352319,-0.01566 0.160501,-0.0078 0.266197,-0.01957 0,-0.0039 0,0.07046 0,0.07438 0.0039,0.195733 0.0039,0.121355 0.01174,0.274026 0.01174,0.152672 0.03132,0.309258 -0.454101,-0.04306 -0.794676,-0.0548 -0.340575,-0.01566 -0.583284,-0.01566 -0.101781,0 -0.180074,0 -0.07438,0 -0.140928,0.0078 -0.0078,0.434527 -0.01174,0.818163 -0.0039,0.379722 -0.0039,0.720297 0.274026,-0.0078 0.489332,-0.01957 0.215306,-0.01566 0.367978,-0.03523 0.176159,-0.01957 0.313172,-0.04306 -0.0039,0.0274 -0.0039,0.06263 -0.0039,0.03132 -0.0039,0.07438 0,0.04306 0,0.09787 0,0.125269 0.0078,0.301429 0.0078,0.172245 0.03132,0.371893 -0.422783,-0.05481 -0.728127,-0.06655 -0.305343,-0.01566 -0.473673,-0.01566 0,0.407124 0.0039,0.728126 0.0039,0.317087 0.0078,0.559796 0.0078,0.242709 0.01174,0.414954 0.0078,0.172245 0.01566,0.28577 0.399295,-0.0078 0.712468,-0.03915 0.313173,-0.03132 0.528479,-0.06263 0.215306,-0.03523 0.328831,-0.06264 0.113525,-0.0274 0.113525,-0.03523 -0.0039,0.01957 -0.0039,0.04306 -0.0039,0.01957 -0.0039,0.05089 0,0.03132 0,0.07438 0,0.10961 0.0078,0.293599 0.0078,0.183989 0.03915,0.446271 z"
     style="font-family:'Rum Raisin';-inkscape-font-specification:'Rum Raisin Bold'"
     id="path3437" /><path
     d="m 44.667659,21.446466 q -0.03915,0.442356 -0.203562,0.735955 -0.160501,0.289685 -0.395381,0.465845 -0.234879,0.172245 -0.520649,0.242708 -0.281856,0.07046 -0.563711,0.07046 -0.293599,0 -0.567625,-0.08221 -0.270112,-0.07829 -0.477589,-0.238794 -0.207477,-0.160501 -0.332746,-0.403209 -0.121354,-0.242709 -0.121354,-0.567626 0,-0.250538 0.07438,-0.418868 0.07829,-0.168331 0.191819,-0.270112 0.113525,-0.101781 0.242708,-0.140927 0.129184,-0.04306 0.238795,-0.04306 0.113525,0 0.234879,0.03523 0.121354,0.03523 0.223136,0.11744 0.101781,0.08221 0.164415,0.223136 0.06655,0.137013 0.06655,0.344489 0,0.0039 -0.0078,0.07438 -0.0039,0.06655 -0.04306,0.156586 -0.03915,0.08612 -0.121355,0.172245 -0.07829,0.08221 -0.230964,0.11744 0.10961,0.137013 0.254452,0.207477 0.148757,0.06655 0.250538,0.06655 0.101782,0 0.230965,-0.03523 0.133099,-0.03523 0.246624,-0.11744 0.11744,-0.08612 0.195733,-0.223135 0.08221,-0.140928 0.08221,-0.352319 0,-0.246624 -0.08612,-0.438442 -0.08221,-0.191818 -0.215306,-0.336661 -0.129184,-0.148757 -0.2936,-0.258367 -0.160501,-0.113525 -0.313172,-0.203562 -0.101781,-0.05872 -0.242709,-0.137013 -0.140928,-0.08221 -0.293599,-0.191819 -0.152672,-0.113525 -0.301429,-0.254452 -0.148757,-0.144843 -0.270111,-0.324917 -0.11744,-0.183989 -0.191819,-0.407124 -0.07046,-0.223136 -0.07046,-0.493247 0,-0.40321 0.140927,-0.704639 0.140928,-0.305343 0.364063,-0.508905 0.227051,-0.203562 0.512821,-0.305344 0.28577,-0.101781 0.579369,-0.101781 0.293599,0 0.559796,0.08221 0.266197,0.07829 0.465844,0.230965 0.203563,0.148757 0.321002,0.360149 0.121355,0.207476 0.121355,0.465844 0,0.262282 -0.08612,0.414954 -0.08612,0.152671 -0.207477,0.230964 -0.117439,0.07829 -0.242708,0.101782 -0.121355,0.01957 -0.195733,0.01957 -0.09395,0 -0.195733,-0.03523 -0.101781,-0.03523 -0.187904,-0.105696 -0.08221,-0.07046 -0.137013,-0.172245 -0.05481,-0.101781 -0.05481,-0.238794 0.0039,-0.08612 0.01957,-0.172245 0.01566,-0.07438 0.04698,-0.160501 0.03132,-0.08612 0.09395,-0.164416 -0.06264,-0.0548 -0.121354,-0.08612 -0.05872,-0.03132 -0.109611,-0.04698 -0.05872,-0.01566 -0.113525,-0.01957 -0.10961,0 -0.223135,0.03915 -0.109611,0.03915 -0.203563,0.11744 -0.09004,0.07829 -0.148757,0.199648 -0.05872,0.117439 -0.05872,0.27794 0,0.187904 0.05872,0.340576 0.05872,0.148757 0.183989,0.289684 0.125269,0.140928 0.317088,0.28577 0.195732,0.144843 0.465844,0.317088 0.317087,0.199647 0.544137,0.399295 0.230965,0.199647 0.375807,0.411039 0.148757,0.211391 0.219221,0.446271 0.07046,0.230965 0.07046,0.501076 0,0.04698 0,0.09787 0,0.04698 -0.0078,0.101781 z"
     style="font-family:'Rum Raisin';-inkscape-font-specification:'Rum Raisin Bold'"
     id="path3439" /></g></g>
</svg>



<svg xmlns="http://www.w3.org/2000/svg" fill="none" viewBox="0 0 24 24" stroke-width="1.5" stroke="currentColor" class="w-6 h-6">
  <path stroke-linecap="round" stroke-linejoin="round" d="M19.5 4.5l-15 15m0 0h11.25m-11.25 0V8.25" />
</svg>
