<?xml version="1.0" encoding="UTF-8" standalone="no"?>
<!-- Created with Inkscape (http://www.inkscape.org/) -->

<svg
   width="49.350647"
   height="40"
   viewBox="0 0 49.350645 40"
   version="1.1"
   id="svg9121"
   xml:space="preserve"
   sodipodi:docname="rolling-bites2.svg"
   inkscape:version="1.2.2 (b0a84865, 2022-12-01)"
   xmlns:inkscape="http://www.inkscape.org/namespaces/inkscape"
   xmlns:sodipodi="http://sodipodi.sourceforge.net/DTD/sodipodi-0.dtd"
   xmlns="http://www.w3.org/2000/svg"
   xmlns:svg="http://www.w3.org/2000/svg"><sodipodi:namedview
     id="namedview9123"
     pagecolor="#ffffff"
     bordercolor="#000000"
     borderopacity="0.25"
     inkscape:showpageshadow="2"
     inkscape:pageopacity="0.0"
     inkscape:pagecheckerboard="0"
     inkscape:deskcolor="#d1d1d1"
     inkscape:document-units="px"
     showgrid="false"
     inkscape:zoom="1.4916497"
     inkscape:cx="111.62138"
     inkscape:cy="202.4604"
     inkscape:window-width="1278"
     inkscape:window-height="872"
     inkscape:window-x="162"
     inkscape:window-y="0"
     inkscape:window-maximized="0"
     inkscape:current-layer="layer1"><inkscape:grid
       type="xygrid"
       id="grid11146"
       originx="-224.89567"
       originy="-100.54159" /></sodipodi:namedview><defs
     id="defs9118"><inkscape:path-effect
       effect="fillet_chamfer"
       id="path-effect11044"
       is_visible="true"
       lpeversion="1"
       nodesatellites_param="F,0,0,1,0,4,0,1 @ F,0,0,1,0,4,0,1 @ F,0,0,1,0,4,0,1 @ F,0,0,1,0,4,0,1"
       unit="px"
       method="auto"
       mode="F"
       radius="4"
       chamfer_steps="1"
       flexible="false"
       use_knot_distance="true"
       apply_no_radius="true"
       apply_with_radius="true"
       only_selected="false"
       hide_knots="false" /><inkscape:path-effect
       effect="fillet_chamfer"
       id="path-effect11038"
       is_visible="true"
       lpeversion="1"
       nodesatellites_param="F,0,0,1,0,6,0,1 @ F,0,0,1,0,6,0,1 @ F,0,0,1,0,6,0,1 @ F,0,0,1,0,6,0,1"
       unit="px"
       method="auto"
       mode="F"
       radius="6"
       chamfer_steps="1"
       flexible="false"
       use_knot_distance="true"
       apply_no_radius="true"
       apply_with_radius="true"
       only_selected="false"
       hide_knots="false" /></defs><g
     inkscape:label="Layer 1"
     inkscape:groupmode="layer"
     id="layer1"
     transform="translate(-224.89583,-100.54166)"><g
       id="g1488"
       transform="matrix(0.39267816,0,0,0.39267816,136.58415,61.061146)"><path
         id="rect10386"
         d="m 230.89583,100.54166 h 113.67709 a 6,6 45 0 1 6,6 v 89.86459 a 6,6 135 0 1 -6,6 H 230.89583 a 6,6 45 0 1 -6,-6 v -89.86459 a 6,6 135 0 1 6,-6 z"
         style="fill:#5ea45e;fill-opacity:1;stroke-width:22.9747;stroke-linecap:round;stroke-linejoin:round;paint-order:stroke fill markers"
         inkscape:label="green" /><path
         id="path11040"
         d="m 232.41713,104.06923 h 110.63451 a 4,4 45 0 1 4,4 v 86.80944 a 4,4 135 0 1 -4,4 H 232.41713 a 4,4 45 0 1 -4,-4 v -86.80944 a 4,4 135 0 1 4,-4 z"
         style="fill:none;fill-opacity:1;stroke:#ffffff;stroke-width:1.71979;stroke-linecap:round;stroke-linejoin:round;stroke-dasharray:none;stroke-opacity:1;paint-order:stroke fill markers"
         inkscape:label="inner border" /><g
         aria-label="ROLLING"
         transform="scale(1.0170266,0.98325846)"
         id="text11202"
         style="font-size:36.2692px;font-family:'Rum Raisin';-inkscape-font-specification:'Rum Raisin';text-align:center;text-anchor:middle;fill:#ffffff;stroke-width:2.45572;stroke-linecap:round;stroke-linejoin:round;paint-order:stroke fill markers"
         inkscape:label="rolling"><path
           d="m 241.79564,138.84419 q -0.3719,-0.51357 -0.56671,-1.15112 -0.17709,-0.63754 -0.26564,-1.20425 -0.0885,-0.58442 -0.10626,-1.00944 0,-0.42503 0,-0.51358 0,-0.56671 -0.0531,-1.34593 -0.0354,-0.79693 -0.1948,-1.62928 -0.15939,-0.85006 -0.46045,-1.6647 -0.28335,-0.83235 -0.79693,-1.4876 -0.49587,-0.65526 -1.23967,-1.04487 -0.72609,-0.40732 -1.75325,-0.40732 -0.14167,0 -0.30106,0.0177 -0.14168,0.0177 -0.28335,0.0177 v 11.03306 l -4.88784,0.10626 q 0.10625,-0.61983 0.17709,-1.45218 0.0885,-0.85006 0.14168,-1.78867 0.0531,-0.95632 0.0885,-1.98347 0.0354,-1.02716 0.0531,-2.01889 0.0177,-0.99174 0.0177,-1.91264 0.0177,-0.9386 0.0177,-1.68241 0,-0.5667 -0.0177,-1.6647 0,-1.09799 -0.0354,-2.46163 -0.0177,-1.38134 -0.0531,-2.88666 -0.0177,-1.52302 -0.0531,-2.90437 -0.0354,-1.39905 -0.0885,-2.53246 -0.0354,-1.15113 -0.0708,-1.77096 0.97403,-0.19481 2.08973,-0.28335 1.1157,-0.10626 2.07202,-0.15939 1.1157,-0.0708 2.2137,-0.0708 1.77095,-0.0708 3.3294,0.30106 1.55844,0.3542 2.72727,1.22196 1.18654,0.85006 1.87721,2.2137 0.70839,1.34593 0.74381,3.22314 -0.28336,1.32822 -0.90319,2.46163 -0.26565,0.47816 -0.63755,0.99174 -0.35419,0.49587 -0.85006,0.93861 -0.47815,0.44273 -1.09799,0.81464 -0.61983,0.35419 -1.38135,0.5667 1.13342,0.44274 1.8418,1.04487 0.70838,0.58441 1.1157,1.32821 0.40732,0.7261 0.58442,1.57616 0.1948,0.83235 0.26564,1.77095 0.0885,0.9209 0.14168,1.91264 0.0531,0.97402 0.1948,1.98347 0.14168,0.76151 0.35419,1.45218 0.19481,0.60213 0.47816,1.22196 0.30107,0.60213 0.7261,0.99174 z m -0.1771,-18.66588 q -0.0177,-1.13342 -0.49586,-2.0366 -0.21252,-0.3719 -0.549,-0.74381 -0.31877,-0.3719 -0.81464,-0.65525 -0.47816,-0.28335 -1.16883,-0.46045 -0.67297,-0.17709 -1.57615,-0.17709 -0.69068,0 -1.52303,0.1948 l 0.0708,8.00473 q 0.31877,0.0531 0.63755,0.0885 0.31877,0.0177 0.58441,0.0177 0.85006,0 1.50532,-0.17709 0.65525,-0.1771 1.15112,-0.47816 0.49587,-0.30106 0.85006,-0.67296 0.35419,-0.3719 0.60212,-0.77922 0.56671,-0.93861 0.72609,-2.12515 z"
           id="path1132" /><path
           d="m 264.32221,125.82766 q 0,2.83353 -0.53128,5.31287 -0.53129,2.47934 -1.57615,4.33885 -1.04487,1.84179 -2.60331,2.92207 -1.54073,1.06258 -3.55962,1.06258 -2.05431,0 -3.61276,-1.06258 -1.54073,-1.08028 -2.58559,-2.92207 -1.02716,-1.85951 -1.55845,-4.33885 -0.51357,-2.47934 -0.51357,-5.31287 0,-2.81582 0.49586,-5.29516 0.51358,-2.47934 1.54074,-4.32114 1.02715,-1.84179 2.58559,-2.90437 1.55845,-1.08028 3.64818,-1.08028 2.16056,0 3.71901,1.08028 1.57615,1.06258 2.58559,2.90437 1.00945,1.8418 1.48761,4.32114 0.47815,2.47934 0.47815,5.29516 z m -4.6399,0 q 0,-2.19599 -0.1771,-4.12633 -0.17709,-1.94805 -0.60212,-3.38253 -0.40732,-1.45218 -1.11571,-2.28453 -0.69067,-0.83235 -1.73553,-0.83235 -1.00945,0 -1.70012,0.83235 -0.69068,0.83235 -1.11571,2.28453 -0.42503,1.43448 -0.61983,3.38253 -0.19481,1.93034 -0.19481,4.12633 0,2.2137 0.19481,4.16175 0.1948,1.93034 0.61983,3.38253 0.44274,1.43447 1.13342,2.28453 0.69067,0.83235 1.68241,0.83235 0.97402,0 1.66469,-0.83235 0.69068,-0.85006 1.13342,-2.28453 0.44274,-1.45219 0.63754,-3.38253 0.19481,-1.94805 0.19481,-4.16175 z"
           id="path1134" /><path
           d="m 278.68467,139.64112 q -1.27509,-0.0354 -2.4085,-0.0354 -1.13341,0 -2.12515,0 -2.01889,0 -3.47107,0.0354 -1.43448,0.0531 -2.39079,0.0885 -1.098,0.0531 -1.85951,0.10626 0.12397,-1.18654 0.21252,-2.4085 0.10625,-1.22196 0.17709,-2.4085 0.0708,-1.18654 0.12397,-2.30225 0.0531,-1.1157 0.0885,-2.10744 0.0708,-2.30224 0.0885,-4.4451 -0.0177,-2.12515 -0.0885,-4.35655 -0.0354,-0.95632 -0.0885,-2.00118 -0.0531,-1.06258 -0.12397,-2.16057 -0.0708,-1.098 -0.17709,-2.19599 -0.0885,-1.1157 -0.21252,-2.16057 l 5.22432,-0.26564 q -0.33648,4.00236 -0.46044,7.72137 -0.12397,3.7013 -0.12397,6.8359 0,3.01062 0.0531,5.15348 0.0708,2.14286 0.12396,3.25856 h 0.0708 q 1.38135,0 2.69186,-0.21251 1.32821,-0.21252 2.37308,-0.47816 1.22196,-0.30106 2.30224,-0.69067 -0.0177,0.1948 -0.0177,0.49586 -0.0177,0.24794 -0.0177,0.65526 0,0.38961 0,0.95632 0,0.5667 0,1.29279 0,0.70839 0.0354,1.62928 z"
           id="path1136" /><path
           d="m 292.56898,139.64112 q -1.27509,-0.0354 -2.4085,-0.0354 -1.13342,0 -2.12515,0 -2.01889,0 -3.47108,0.0354 -1.43447,0.0531 -2.39079,0.0885 -1.09799,0.0531 -1.85951,0.10626 0.12397,-1.18654 0.21252,-2.4085 0.10626,-1.22196 0.1771,-2.4085 0.0708,-1.18654 0.12396,-2.30225 0.0531,-1.1157 0.0885,-2.10744 0.0708,-2.30224 0.0885,-4.4451 -0.0177,-2.12515 -0.0885,-4.35655 -0.0354,-0.95632 -0.0885,-2.00118 -0.0531,-1.06258 -0.12396,-2.16057 -0.0708,-1.098 -0.1771,-2.19599 -0.0885,-1.1157 -0.21252,-2.16057 l 5.22433,-0.26564 q -0.33648,4.00236 -0.46045,7.72137 -0.12397,3.7013 -0.12397,6.8359 0,3.01062 0.0531,5.15348 0.0708,2.14286 0.12397,3.25856 h 0.0708 q 1.38134,0 2.69185,-0.21251 1.32822,-0.21252 2.37308,-0.47816 1.22196,-0.30106 2.30225,-0.69067 -0.0177,0.1948 -0.0177,0.49586 -0.0177,0.24794 -0.0177,0.65526 0,0.38961 0,0.95632 0,0.5667 0,1.29279 0,0.70839 0.0354,1.62928 z"
           id="path1138" /><path
           d="m 299.22778,138.70252 -4.67533,0.47816 q 0.0354,-1.18655 0.0531,-2.46163 0.0354,-1.2928 0.0531,-2.56789 0.0177,-1.27509 0.0354,-2.49705 0.0177,-1.23967 0.0177,-2.33767 0.0177,-2.58559 0.0177,-5.08264 -0.0177,-2.23141 -0.0531,-4.32114 -0.0177,-0.88548 -0.0531,-1.82408 -0.0177,-0.93861 -0.0531,-1.8418 -0.0354,-0.90319 -0.0885,-1.70012 -0.0354,-0.81464 -0.10626,-1.45218 l 4.46282,-0.21252 q -0.0354,1.098 -0.0708,2.26683 -0.0177,1.15112 -0.0354,2.30224 -0.0177,1.13342 -0.0354,2.19599 0,1.06257 0,1.98347 0,4.6222 0.10626,8.81937 0.12396,4.17946 0.42503,8.25266 z"
           id="path1140" /><path
           d="m 317.36238,112.52777 q -0.0885,1.43448 -0.15939,2.99292 -0.0531,1.54073 -0.10626,3.09917 -0.0354,1.55845 -0.0708,3.06376 -0.0177,1.50531 -0.0354,2.83353 -0.0177,1.32822 -0.0177,2.42621 0,1.098 0,1.85951 0,0.99173 0,2.19598 0,1.20425 0.0177,2.47934 0.0177,1.27509 0.0354,2.56789 0.0354,1.27509 0.0885,2.4085 -0.76151,-0.0354 -1.39905,-0.0354 -0.61984,0 -1.13342,0 -0.92089,0 -1.52302,0.0177 -0.60212,0.0177 -0.95632,0.0531 -0.42502,0.0354 -0.65525,0.0708 -0.0531,-0.3719 -0.23022,-1.15112 -0.15939,-0.79693 -0.42503,-1.87722 -0.24794,-1.08028 -0.58442,-2.39079 -0.33648,-1.31051 -0.72609,-2.72727 -0.3719,-1.41677 -0.77922,-2.86895 -0.40732,-1.4699 -0.81464,-2.85124 -0.38961,-1.39906 -0.77922,-2.63873 -0.3719,-1.25738 -0.69068,-2.24911 -0.14167,2.26682 -0.21251,4.19716 -0.0708,1.91264 -0.10626,3.34711 -0.0531,1.6647 -0.0531,3.04605 0,1.18654 0.0531,2.51476 0.0354,1.13341 0.12397,2.58559 0.10626,1.45219 0.30106,2.9575 -1.36364,-0.0531 -2.24912,-0.0531 -0.86776,-0.0177 -1.38134,-0.0177 h -0.86777 q 0.0885,-3.17001 0.14168,-5.3837 0.0531,-2.2137 0.0708,-3.7013 0.0354,-1.50532 0.0354,-2.40851 0.0177,-0.90318 0.0177,-1.45218 0,-0.56671 -0.0177,-0.90319 0,-0.33648 0,-0.69067 0,-0.88548 -0.0177,-2.10744 0,-1.22196 -0.0354,-2.62102 -0.0354,-1.41676 -0.10625,-2.93979 -0.0708,-1.52302 -0.19481,-3.01062 1.80638,0 2.97521,-0.0354 1.16883,-0.0354 1.8595,-0.0708 0.81464,-0.0531 1.25738,-0.10626 0.0885,0.56671 0.3542,1.77096 0.28335,1.20425 0.65525,2.79811 0.38961,1.57615 0.86777,3.41795 0.47816,1.84179 0.97402,3.71901 0.51358,1.8595 1.02716,3.63046 0.51358,1.75325 0.97403,3.17001 0.0885,-1.50531 0.12396,-3.06375 0.0531,-1.57615 0.0708,-2.93979 0.0354,-1.36364 0.0354,-2.37308 0,-1.02716 0,-1.41677 -0.0177,-1.61157 -0.0708,-3.22314 -0.0177,-0.69067 -0.0531,-1.43448 -0.0354,-0.7438 -0.0885,-1.4876 -0.0354,-0.76151 -0.10626,-1.4876 -0.0531,-0.7261 -0.12397,-1.36364 z"
           id="path1142" /><path
           d="m 334.94798,132.78752 q 0,1.31051 -0.40732,2.55018 -0.38961,1.23967 -1.22196,2.21369 -0.81464,0.97403 -2.07202,1.55845 -1.23967,0.58441 -2.9575,0.58441 -1.73554,0 -3.31169,-0.88548 -1.57615,-0.86776 -2.7804,-2.62101 -1.18654,-1.75325 -1.91264,-4.37427 -0.70838,-2.63872 -0.70838,-6.16293 0,-3.5242 0.7438,-6.02125 0.76152,-2.49705 2.00119,-4.0732 1.23967,-1.59386 2.81582,-2.31995 1.59386,-0.74381 3.25856,-0.74381 1.6647,0 2.81582,0.49587 1.16883,0.47816 1.89492,1.22196 0.7261,0.7438 1.04487,1.64699 0.33648,0.88548 0.33648,1.70012 0,0.81464 -0.24793,1.43448 -0.23023,0.60212 -0.61984,1.00944 -0.38961,0.38961 -0.88548,0.60213 -0.47816,0.1948 -0.97402,0.1948 -0.47816,0 -0.95632,-0.12397 -0.46045,-0.12396 -0.81464,-0.42503 -0.35419,-0.31877 -0.58442,-0.81464 -0.21251,-0.51357 -0.21251,-1.25737 0.0177,-0.37191 0.0885,-0.7261 0.0708,-0.30106 0.21251,-0.65525 0.15939,-0.3719 0.46045,-0.69067 -0.26564,-0.30107 -0.58442,-0.46045 -0.31877,-0.15939 -0.61983,-0.24794 -0.33648,-0.0885 -0.69067,-0.12396 -0.46045,0 -1.15113,0.61983 -0.67296,0.61984 -1.3105,1.93034 -0.63755,1.2928 -1.098,3.31169 -0.46045,2.00118 -0.46045,4.76388 0,2.7804 0.46045,4.88784 0.46045,2.08973 1.15112,3.50649 0.69068,1.41677 1.4699,2.14286 0.79693,0.70838 1.45218,0.70838 1.31051,0 1.94806,-1.18654 0.65525,-1.18654 0.65525,-3.66588 0,-0.5667 -0.0531,-1.18654 -0.0354,-0.51358 -0.12397,-1.16883 -0.0885,-0.65525 -0.24793,-1.31051 -0.61983,0.0885 -1.54073,0.23023 -0.9209,0.14167 -2.12515,0.38961 0.19481,-0.79693 0.24793,-1.62928 0.0708,-0.85006 0.0708,-1.57616 0,-0.35419 -0.0177,-0.65525 0,-0.30106 -0.0177,-0.51358 -0.0177,-0.24793 -0.0354,-0.46045 0.53129,0.10626 1.23967,0.1771 0.60213,0.0708 1.4699,0.12397 0.88548,0.0354 2.01889,0.0354 0.60212,0 1.25738,0 0.67296,-0.0177 1.41676,-0.0708 -0.10625,0.7438 -0.10625,1.52302 0,0.67296 0.0531,1.41677 0.0531,0.7438 0.10625,1.55844 0.0531,0.81464 0.10626,1.71783 0.0531,0.88547 0.0531,1.89492 z"
           id="path1144" /></g><g
         aria-label="BITES"
         transform="scale(1.0061023,0.99393472)"
         id="text1006"
         style="font-size:56.9926px;font-family:'Rum Raisin';-inkscape-font-specification:'Rum Raisin';text-align:center;text-anchor:middle;fill:#ffffff;stroke-width:3.85886;stroke-linecap:round;stroke-linejoin:round;paint-order:stroke fill markers"
         inkscape:label="bites"><path
           d="m 257.27026,171.49897 q -0.13915,2.72719 -0.974,4.73083 -0.83485,1.97582 -2.14279,3.39507 -1.2801,1.39142 -2.92198,2.28193 -1.61405,0.86268 -3.28375,1.36359 -1.64188,0.50091 -3.25593,0.66788 -1.58622,0.1948 -2.81067,0.1948 -2.36541,0 -4.45255,-0.13914 -2.0593,-0.13914 -4.03512,-0.47308 0.16697,-1.75319 0.27829,-3.84032 0.11131,-2.11496 0.1948,-4.28558 0.0835,-2.19845 0.11131,-4.31341 0.0278,-2.11496 0.0557,-3.89597 0.0278,-1.80885 0.0278,-3.11679 0,-1.33576 0,-1.92016 -0.0278,-3.97946 -0.11132,-7.68064 -0.0278,-1.58622 -0.0835,-3.2281 -0.0278,-1.6697 -0.0835,-3.22809 -0.0278,-1.58622 -0.0835,-2.97764 -0.0557,-1.41925 -0.13915,-2.50456 0.7792,-0.11132 1.69754,-0.16697 0.94616,-0.0557 1.8645,-0.0835 0.94617,-0.0557 1.83668,-0.0557 0.91834,-0.0278 1.6697,-0.0278 3.36724,0 6.34488,0.50091 3.00547,0.50091 5.23174,1.72536 2.25411,1.19662 3.53421,3.20027 1.30794,1.97582 1.30794,4.95346 -0.13914,1.80884 -0.89051,3.39506 -0.33394,0.69571 -0.83485,1.41925 -0.47309,0.69571 -1.19662,1.33577 -0.72354,0.64005 -1.69754,1.19662 -0.97399,0.55657 -2.22627,0.91834 1.80885,0.47308 3.0333,1.41925 1.22445,0.94616 2.00364,2.11496 0.80703,1.14096 1.19662,2.36541 0.41743,1.22445 0.5844,2.2541 0.1948,1.02965 0.22263,1.72536 0.0278,0.69572 0.0278,0.7792 z m -7.81979,0.27828 q -0.0835,-2.33758 -0.77919,-4.20209 -0.30612,-0.77919 -0.7792,-1.53056 -0.44525,-0.77919 -1.11314,-1.36359 -0.66788,-0.61223 -1.58622,-0.974 -0.91833,-0.36177 -2.11496,-0.36177 -0.30611,0 -0.64005,0.0278 -0.33394,0.0278 -0.72354,0.0835 l -0.22263,15.72305 q 0.83486,0.16697 1.64188,0.16697 1.16879,0 2.03147,-0.30611 0.89051,-0.33394 1.5584,-0.86268 0.66788,-0.55657 1.11313,-1.22445 0.47309,-0.66788 0.7792,-1.39142 0.72354,-1.66971 0.83485,-3.78467 z m -0.11131,-19.36857 q -0.11132,-1.5584 -0.7792,-2.78285 -0.27828,-0.52874 -0.72354,-1.02965 -0.41742,-0.50091 -1.05748,-0.89051 -0.61222,-0.38959 -1.4749,-0.64005 -0.83486,-0.25046 -1.94799,-0.25046 -0.89051,0 -1.97582,0.16697 l 0.33394,11.79925 h 0.61223 q 1.72536,0 2.92198,-0.44525 1.19662,-0.47308 1.97582,-1.14097 0.77919,-0.69571 1.19662,-1.50273 0.44525,-0.80702 0.64005,-1.50274 0.1948,-0.72353 0.22263,-1.19662 0.0557,-0.50091 0.0557,-0.58439 z"
           id="path1147" /><path
           d="m 268.31814,182.76948 -7.3467,0.75137 q 0.0557,-1.86451 0.0835,-3.86815 0.0557,-2.03148 0.0835,-4.03512 0.0278,-2.00365 0.0556,-3.92381 0.0278,-1.94799 0.0278,-3.67335 0.0278,-4.06295 0.0278,-7.98676 -0.0278,-3.50638 -0.0835,-6.79013 -0.0278,-1.39142 -0.0835,-2.86633 -0.0278,-1.4749 -0.0835,-2.89415 -0.0557,-1.41925 -0.13914,-2.67153 -0.0557,-1.28011 -0.16697,-2.28193 l 7.01276,-0.33394 q -0.0557,1.72536 -0.11131,3.56203 -0.0278,1.80885 -0.0557,3.6177 -0.0278,1.78102 -0.0557,3.45072 0,1.66971 0,3.11679 0,7.26321 0.16697,13.85855 0.19479,6.5675 0.66788,12.96804 z"
           id="path1149" /><path
           d="m 285.18216,182.93645 h -0.7792 q -1.72536,0 -3.28375,0.16697 -1.53056,0.1948 -3.28375,0.52874 0.36177,-6.12225 0.55656,-11.49314 0.1948,-5.39871 0.1948,-10.46348 0,-6.48402 -0.33394,-12.80107 l -7.01276,0.50091 q -0.0278,-0.94617 -0.0557,-1.72536 -0.0278,-0.80703 -0.0835,-1.53057 -0.0557,-0.75136 -0.13914,-1.50273 -0.0835,-0.7792 -0.1948,-1.72536 h 3.36724 q 2.22627,0 4.34123,-0.0278 2.14279,-0.0278 4.25775,-0.0835 2.14279,-0.0557 4.3134,-0.13914 2.19845,-0.0835 4.53603,-0.22263 -0.13914,1.41925 -0.19479,2.42108 -0.0278,0.97399 -0.0278,2.03147 v 1.47491 l -6.84579,0.16697 q -0.0835,2.67153 -0.11132,5.25957 0,2.56021 0,5.17608 0,6.0666 0.1948,12.02188 0.1948,5.95528 0.5844,11.96622 z"
           id="path1151" /><path
           d="m 313.78977,183.13125 q -2.2541,-0.0557 -4.20209,-0.0835 -1.92016,0 -3.64552,0 -3.36724,0 -5.64917,0.0557 -2.2541,0.0835 -3.67335,0.13914 -1.66971,0.0835 -2.6437,0.16697 0.1948,-1.8645 0.33394,-3.75683 0.16697,-1.89234 0.27828,-3.72901 0.11132,-1.83668 0.1948,-3.53421 0.0835,-1.69753 0.13915,-3.20027 0.11131,-3.50638 0.13914,-6.70665 -0.0278,-3.33941 -0.13914,-6.84579 -0.0557,-1.50273 -0.13915,-3.14461 -0.0835,-1.6697 -0.1948,-3.39507 -0.11131,-1.72536 -0.27828,-3.45072 -0.13914,-1.75319 -0.33394,-3.39507 3.47855,0.13915 6.20574,0.22263 2.75501,0.0557 4.8978,0.0557 2.11496,0 3.64552,-0.0278 1.53056,-0.0557 2.50456,-0.11131 1.14096,-0.0557 1.89233,-0.13915 0,-0.0278 0,0.50092 0,0.52874 0.0278,1.39142 0.0278,0.86268 0.0835,1.94799 0.0835,1.0853 0.22263,2.19844 -3.22809,-0.30611 -5.64917,-0.3896 -2.42107,-0.11131 -4.14643,-0.11131 -0.72354,0 -1.28011,0 -0.52874,0 -1.00182,0.0557 -0.0557,3.08895 -0.0835,5.81613 -0.0278,2.69936 -0.0278,5.12043 1.94799,-0.0557 3.47856,-0.13914 1.53056,-0.11131 2.61587,-0.25045 1.25228,-0.13915 2.22627,-0.30612 -0.0278,0.1948 -0.0278,0.44526 -0.0278,0.22263 -0.0278,0.52874 0,0.30611 0,0.69571 0,0.89051 0.0557,2.14279 0.0557,1.22445 0.22263,2.6437 -3.00547,-0.3896 -5.17609,-0.47309 -2.17061,-0.11131 -3.36724,-0.11131 0,2.89415 0.0278,5.17609 0.0278,2.2541 0.0557,3.97946 0.0557,1.72536 0.0835,2.94981 0.0557,1.22445 0.11131,2.03148 2.8385,-0.0557 5.06477,-0.27829 2.22627,-0.22263 3.75684,-0.44525 1.53056,-0.25046 2.33758,-0.44526 0.80703,-0.1948 0.80703,-0.25045 -0.0278,0.13914 -0.0278,0.30611 -0.0278,0.13914 -0.0278,0.36177 0,0.22263 0,0.52874 0,0.77919 0.0557,2.08713 0.0557,1.30794 0.27828,3.17244 z"
           id="path1153" /><path
           d="m 338.52924,172.91822 q -0.27829,3.14461 -1.44708,5.23174 -1.14097,2.05931 -2.81067,3.31158 -1.66971,1.22445 -3.70118,1.72537 -2.00365,0.50091 -4.00729,0.50091 -2.08713,0 -4.03512,-0.5844 -1.92016,-0.55657 -3.39507,-1.69753 -1.47491,-1.14097 -2.36542,-2.86633 -0.86268,-1.72536 -0.86268,-4.03512 0,-1.78102 0.52874,-2.97764 0.55657,-1.19662 1.3636,-1.92016 0.80702,-0.72354 1.72536,-1.00182 0.91833,-0.30612 1.69753,-0.30612 0.80702,0 1.66971,0.25046 0.86268,0.25045 1.58622,0.83485 0.72353,0.5844 1.16879,1.58622 0.47308,0.974 0.47308,2.4489 0,0.0278 -0.0556,0.52874 -0.0278,0.47308 -0.30612,1.11314 -0.27828,0.61222 -0.86268,1.22445 -0.55657,0.5844 -1.64187,0.83485 0.77919,0.974 1.80884,1.47491 1.05748,0.47308 1.78102,0.47308 0.72354,0 1.64188,-0.25046 0.94616,-0.25045 1.75319,-0.83485 0.83485,-0.61222 1.39142,-1.58622 0.5844,-1.00182 0.5844,-2.50456 0,-1.75319 -0.61223,-3.11678 -0.5844,-1.36359 -1.53056,-2.39324 -0.91834,-1.05748 -2.08713,-1.83668 -1.14097,-0.80702 -2.22628,-1.44708 -0.72354,-0.41742 -1.72536,-0.97399 -1.00182,-0.5844 -2.08713,-1.36359 -1.08531,-0.80703 -2.14279,-1.80885 -1.05748,-1.02965 -1.92016,-2.30976 -0.83485,-1.30793 -1.36359,-2.89415 -0.50091,-1.58622 -0.50091,-3.50638 0,-2.86633 1.00182,-5.00912 1.00182,-2.17062 2.58804,-3.61769 1.61405,-1.44708 3.64553,-2.17062 2.03147,-0.72354 4.1186,-0.72354 2.08713,0 3.97946,0.5844 1.89234,0.55657 3.31159,1.64187 1.44707,1.05748 2.28193,2.56022 0.86268,1.4749 0.86268,3.31158 0,1.8645 -0.61223,2.94981 -0.61222,1.08531 -1.4749,1.64188 -0.83486,0.55657 -1.72537,0.72354 -0.86268,0.13914 -1.39142,0.13914 -0.66788,0 -1.39142,-0.25046 -0.72354,-0.25045 -1.33576,-0.75136 -0.5844,-0.50091 -0.974,-1.22445 -0.38959,-0.72354 -0.38959,-1.69754 0.0278,-0.61222 0.13914,-1.22445 0.11131,-0.52874 0.33394,-1.14096 0.22263,-0.61223 0.66788,-1.1688 -0.44525,-0.38959 -0.86268,-0.61222 -0.41743,-0.22263 -0.7792,-0.33394 -0.41742,-0.11132 -0.80702,-0.13914 -0.7792,0 -1.58622,0.27828 -0.7792,0.27828 -1.44708,0.83485 -0.64005,0.55657 -1.05748,1.41925 -0.41742,0.83485 -0.41742,1.97582 0,1.33576 0.41742,2.42107 0.41743,1.05748 1.30794,2.0593 0.89051,1.00183 2.2541,2.03148 1.39142,1.02965 3.31158,2.2541 2.2541,1.41925 3.86815,2.8385 1.64188,1.41925 2.67153,2.92198 1.05748,1.50274 1.55839,3.17244 0.50091,1.64188 0.50091,3.56204 0,0.33394 0,0.69571 0,0.33394 -0.0556,0.72354 z"
           id="path1155" /></g><g
         aria-label="THE FOOD TRUCK CONNECTION"
         transform="scale(0.98006766,1.0203377)"
         id="text1124"
         style="font-size:6.95499px;font-family:'Rum Raisin';-inkscape-font-specification:'Rum Raisin';text-align:center;text-anchor:middle;fill:#ffffff;stroke-width:0.470911;stroke-linecap:round;stroke-linejoin:round;paint-order:stroke fill markers"
         inkscape:label="slogan"><path
           d="m 241.99433,188.97281 h -1.05276 v -4.08877 h -1.34821 v -0.87617 h 3.74918 v 0.87617 h -1.34821 z"
           style="font-weight:bold;font-family:'Open Sans';-inkscape-font-specification:'Open Sans Bold'"
           id="path1158" /><path
           d="m 248.17503,188.97281 h -1.04936 v -2.14287 h -1.96628 v 2.14287 h -1.05275 v -4.96494 h 1.05275 v 1.9459 h 1.96628 v -1.9459 h 1.04936 z"
           style="font-weight:bold;font-family:'Open Sans';-inkscape-font-specification:'Open Sans Bold'"
           id="path1160" /><path
           d="m 252.28758,188.97281 h -2.85943 v -4.96494 h 2.85943 v 0.86258 h -1.80667 v 1.09011 h 1.68102 v 0.86259 h -1.68102 v 1.28029 h 1.80667 z"
           style="font-weight:bold;font-family:'Open Sans';-inkscape-font-specification:'Open Sans Bold'"
           id="path1162" /><path
           d="m 256.1658,188.97281 h -1.03578 v -4.96494 h 2.84584 v 0.86258 h -1.81006 v 1.28029 h 1.68441 v 0.85919 h -1.68441 z"
           style="font-weight:bold;font-family:'Open Sans';-inkscape-font-specification:'Open Sans Bold'"
           id="path1164" /><path
           d="m 263.4536,186.48355 q 0,0.57392 -0.14264,1.04596 -0.14263,0.46865 -0.43468,0.80825 -0.28866,0.3396 -0.73354,0.52298 -0.44487,0.17999 -1.05275,0.17999 -0.60789,0 -1.05276,-0.17999 -0.44488,-0.18338 -0.73693,-0.52298 -0.28866,-0.3396 -0.43129,-0.81164 -0.14263,-0.47205 -0.14263,-1.04936 0,-0.77089 0.2513,-1.34142 0.2547,-0.57392 0.78108,-0.88975 0.52638,-0.31583 1.33802,-0.31583 0.80824,0 1.32783,0.31583 0.52298,0.31583 0.77429,0.88975 0.2547,0.57392 0.2547,1.34821 z m -3.62353,0 q 0,0.51958 0.12905,0.89654 0.13245,0.37356 0.41092,0.57732 0.27847,0.20036 0.71995,0.20036 0.44827,0 0.72674,-0.20036 0.27847,-0.20376 0.40412,-0.57732 0.12905,-0.37696 0.12905,-0.89654 0,-0.78108 -0.29206,-1.22935 -0.29205,-0.44827 -0.96106,-0.44827 -0.44488,0 -0.72674,0.20376 -0.27847,0.20036 -0.41092,0.57732 -0.12905,0.37355 -0.12905,0.89654 z"
           style="font-weight:bold;font-family:'Open Sans';-inkscape-font-specification:'Open Sans Bold'"
           id="path1166" /><path
           d="m 268.98906,186.48355 q 0,0.57392 -0.14263,1.04596 -0.14263,0.46865 -0.43468,0.80825 -0.28866,0.3396 -0.73354,0.52298 -0.44487,0.17999 -1.05276,0.17999 -0.60788,0 -1.05275,-0.17999 -0.44488,-0.18338 -0.73693,-0.52298 -0.28866,-0.3396 -0.43129,-0.81164 -0.14264,-0.47205 -0.14264,-1.04936 0,-0.77089 0.25131,-1.34142 0.2547,-0.57392 0.78108,-0.88975 0.52637,-0.31583 1.33802,-0.31583 0.80824,0 1.32783,0.31583 0.52298,0.31583 0.77428,0.88975 0.2547,0.57392 0.2547,1.34821 z m -3.62352,0 q 0,0.51958 0.12905,0.89654 0.13244,0.37356 0.41091,0.57732 0.27847,0.20036 0.71995,0.20036 0.44827,0 0.72675,-0.20036 0.27847,-0.20376 0.40412,-0.57732 0.12905,-0.37696 0.12905,-0.89654 0,-0.78108 -0.29206,-1.22935 -0.29205,-0.44827 -0.96106,-0.44827 -0.44488,0 -0.72675,0.20376 -0.27847,0.20036 -0.41091,0.57732 -0.12905,0.37355 -0.12905,0.89654 z"
           style="font-weight:bold;font-family:'Open Sans';-inkscape-font-specification:'Open Sans Bold'"
           id="path1168" /><path
           d="m 274.13739,186.4428 q 0,0.83881 -0.32262,1.40254 -0.31923,0.56034 -0.92711,0.8456 -0.60788,0.28187 -1.46367,0.28187 h -1.40594 v -4.96494 h 1.55876 q 0.78108,0 1.355,0.27847 0.57392,0.27508 0.88975,0.81843 0.31583,0.53997 0.31583,1.33803 z m -1.09351,0.0272 q 0,-0.55015 -0.16301,-0.90333 -0.15961,-0.35658 -0.47544,-0.52638 -0.31243,-0.1698 -0.77429,-0.1698 h -0.56033 v 3.23299 h 0.45166 q 0.77089,0 1.14445,-0.41092 0.37696,-0.41091 0.37696,-1.22256 z"
           style="font-weight:bold;font-family:'Open Sans';-inkscape-font-specification:'Open Sans Bold'"
           id="path1170" /><path
           d="m 278.88838,188.97281 h -1.05276 v -4.08877 h -1.34821 v -0.87617 h 3.74917 v 0.87617 h -1.3482 z"
           style="font-weight:bold;font-family:'Open Sans';-inkscape-font-specification:'Open Sans Bold'"
           id="path1172" /><path
           d="m 282.44737,184.00787 q 0.67581,0 1.11389,0.16301 0.44148,0.163 0.65543,0.49242 0.21394,0.32941 0.21394,0.83201 0,0.3396 -0.12904,0.5943 -0.12905,0.2547 -0.3396,0.43129 -0.21055,0.17659 -0.45507,0.28866 l 1.46028,2.16325 h -1.16822 l -1.1852,-1.90515 h -0.56034 v 1.90515 h -1.05276 v -4.96494 z m -0.0747,0.86258 h -0.31922 v 1.34142 h 0.3396 q 0.52298,0 0.74712,-0.1732 0.22753,-0.17659 0.22753,-0.51619 0,-0.35318 -0.24451,-0.5026 -0.24112,-0.14943 -0.75052,-0.14943 z"
           style="font-weight:bold;font-family:'Open Sans';-inkscape-font-specification:'Open Sans Bold'"
           id="path1174" /><path
           d="m 289.63329,184.00787 v 3.21261 q 0,0.51279 -0.22753,0.9271 -0.22413,0.41092 -0.68259,0.65203 -0.45507,0.24112 -1.14785,0.24112 -0.98484,0 -1.50103,-0.50261 -0.51619,-0.5026 -0.51619,-1.33123 v -3.19902 h 1.04936 v 3.03941 q 0,0.61468 0.25131,0.86258 0.2513,0.24791 0.74372,0.24791 0.34639,0 0.56034,-0.11886 0.21734,-0.11886 0.31922,-0.36677 0.10188,-0.2479 0.10188,-0.63165 v -3.03262 z"
           style="font-weight:bold;font-family:'Open Sans';-inkscape-font-specification:'Open Sans Bold'"
           id="path1176" /><path
           d="m 292.95797,184.81272 q -0.30224,0 -0.53657,0.11886 -0.23092,0.11546 -0.39054,0.3362 -0.15621,0.22074 -0.23772,0.53317 -0.0815,0.31243 -0.0815,0.70297 0,0.52638 0.12905,0.89994 0.13244,0.37016 0.40752,0.56713 0.27507,0.19357 0.70976,0.19357 0.30224,0 0.60449,-0.0679 0.30564,-0.0679 0.66221,-0.19357 v 0.88296 q -0.32941,0.13584 -0.64863,0.19357 -0.31922,0.0611 -0.71655,0.0611 -0.7675,0 -1.26331,-0.31583 -0.49242,-0.31922 -0.73014,-0.88975 -0.23772,-0.57392 -0.23772,-1.33802 0,-0.56373 0.15282,-1.03238 0.15282,-0.46865 0.44827,-0.81164 0.29545,-0.343 0.73014,-0.52978 0.43469,-0.18678 0.99842,-0.18678 0.37016,0 0.74033,0.0951 0.37356,0.0917 0.71315,0.2547 l -0.33959,0.85579 q -0.27848,-0.13244 -0.56034,-0.23093 -0.28187,-0.0985 -0.55355,-0.0985 z"
           style="font-weight:bold;font-family:'Open Sans';-inkscape-font-specification:'Open Sans Bold'"
           id="path1178" /><path
           d="m 299.27451,188.97281 h -1.19539 l -1.30066,-2.09193 -0.44488,0.31922 v 1.77271 h -1.05275 v -4.96494 h 1.05275 v 2.27192 q 0.10528,-0.14603 0.20716,-0.29206 0.10188,-0.14603 0.20715,-0.29205 l 1.34482,-1.68781 h 1.16822 l -1.73196,2.19721 z"
           style="font-weight:bold;font-family:'Open Sans';-inkscape-font-specification:'Open Sans Bold'"
           id="path1180" /><path
           d="m 303.81495,184.81272 q -0.30224,0 -0.53656,0.11886 -0.23093,0.11546 -0.39054,0.3362 -0.15622,0.22074 -0.23772,0.53317 -0.0815,0.31243 -0.0815,0.70297 0,0.52638 0.12905,0.89994 0.13245,0.37016 0.40752,0.56713 0.27508,0.19357 0.70976,0.19357 0.30225,0 0.60449,-0.0679 0.30564,-0.0679 0.66222,-0.19357 v 0.88296 q -0.32941,0.13584 -0.64864,0.19357 -0.31922,0.0611 -0.71655,0.0611 -0.76749,0 -1.26331,-0.31583 -0.49242,-0.31922 -0.73014,-0.88975 -0.23772,-0.57392 -0.23772,-1.33802 0,-0.56373 0.15282,-1.03238 0.15282,-0.46865 0.44827,-0.81164 0.29545,-0.343 0.73014,-0.52978 0.43469,-0.18678 0.99842,-0.18678 0.37017,0 0.74033,0.0951 0.37356,0.0917 0.71316,0.2547 l -0.3396,0.85579 q -0.27847,-0.13244 -0.56034,-0.23093 -0.28187,-0.0985 -0.55355,-0.0985 z"
           style="font-weight:bold;font-family:'Open Sans';-inkscape-font-specification:'Open Sans Bold'"
           id="path1182" /><path
           d="m 310.64429,186.48355 q 0,0.57392 -0.14263,1.04596 -0.14263,0.46865 -0.43469,0.80825 -0.28865,0.3396 -0.73353,0.52298 -0.44487,0.17999 -1.05276,0.17999 -0.60788,0 -1.05275,-0.17999 -0.44488,-0.18338 -0.73693,-0.52298 -0.28866,-0.3396 -0.43129,-0.81164 -0.14264,-0.47205 -0.14264,-1.04936 0,-0.77089 0.25131,-1.34142 0.2547,-0.57392 0.78107,-0.88975 0.52638,-0.31583 1.33803,-0.31583 0.80824,0 1.32783,0.31583 0.52298,0.31583 0.77428,0.88975 0.2547,0.57392 0.2547,1.34821 z m -3.62352,0 q 0,0.51958 0.12905,0.89654 0.13244,0.37356 0.41091,0.57732 0.27847,0.20036 0.71995,0.20036 0.44827,0 0.72675,-0.20036 0.27847,-0.20376 0.40412,-0.57732 0.12905,-0.37696 0.12905,-0.89654 0,-0.78108 -0.29206,-1.22935 -0.29205,-0.44827 -0.96106,-0.44827 -0.44488,0 -0.72675,0.20376 -0.27847,0.20036 -0.41091,0.57732 -0.12905,0.37355 -0.12905,0.89654 z"
           style="font-weight:bold;font-family:'Open Sans';-inkscape-font-specification:'Open Sans Bold'"
           id="path1184" /><path
           d="m 316.07787,188.97281 h -1.33802 L 312.58,185.21684 h -0.0306 q 0.0136,0.23433 0.0238,0.47205 0.0102,0.23771 0.0204,0.47543 0.0102,0.23433 0.0204,0.47205 v 2.33644 h -0.94069 v -4.96494 h 1.32784 l 2.15645,3.71861 h 0.0238 q -0.007,-0.23093 -0.017,-0.45846 -0.0102,-0.22753 -0.0204,-0.45506 -0.007,-0.22753 -0.0136,-0.45506 v -2.35003 h 0.94748 z"
           style="font-weight:bold;font-family:'Open Sans';-inkscape-font-specification:'Open Sans Bold'"
           id="path1186" /><path
           d="m 321.7322,188.97281 h -1.33802 l -2.15985,-3.75597 h -0.0306 q 0.0136,0.23433 0.0238,0.47205 0.0102,0.23771 0.0204,0.47543 0.0102,0.23433 0.0204,0.47205 v 2.33644 h -0.94069 v -4.96494 h 1.32783 l 2.15646,3.71861 h 0.0238 q -0.007,-0.23093 -0.017,-0.45846 -0.0102,-0.22753 -0.0204,-0.45506 -0.007,-0.22753 -0.0136,-0.45506 v -2.35003 h 0.94748 z"
           style="font-weight:bold;font-family:'Open Sans';-inkscape-font-specification:'Open Sans Bold'"
           id="path1188" /><path
           d="m 325.84135,188.97281 h -2.85942 v -4.96494 h 2.85942 v 0.86258 h -1.80666 v 1.09011 h 1.68101 v 0.86259 h -1.68101 v 1.28029 h 1.80666 z"
           style="font-weight:bold;font-family:'Open Sans';-inkscape-font-specification:'Open Sans Bold'"
           id="path1190" /><path
           d="m 328.98604,184.81272 q -0.30224,0 -0.53656,0.11886 -0.23093,0.11546 -0.39054,0.3362 -0.15622,0.22074 -0.23772,0.53317 -0.0815,0.31243 -0.0815,0.70297 0,0.52638 0.12905,0.89994 0.13244,0.37016 0.40752,0.56713 0.27508,0.19357 0.70976,0.19357 0.30225,0 0.60449,-0.0679 0.30564,-0.0679 0.66222,-0.19357 v 0.88296 q -0.32941,0.13584 -0.64864,0.19357 -0.31922,0.0611 -0.71655,0.0611 -0.7675,0 -1.26331,-0.31583 -0.49242,-0.31922 -0.73014,-0.88975 -0.23772,-0.57392 -0.23772,-1.33802 0,-0.56373 0.15282,-1.03238 0.15282,-0.46865 0.44827,-0.81164 0.29545,-0.343 0.73014,-0.52978 0.43469,-0.18678 0.99842,-0.18678 0.37017,0 0.74033,0.0951 0.37356,0.0917 0.71316,0.2547 l -0.3396,0.85579 q -0.27847,-0.13244 -0.56034,-0.23093 -0.28187,-0.0985 -0.55355,-0.0985 z"
           style="font-weight:bold;font-family:'Open Sans';-inkscape-font-specification:'Open Sans Bold'"
           id="path1192" /><path
           d="m 333.22423,188.97281 h -1.05275 v -4.08877 h -1.34821 v -0.87617 h 3.74917 v 0.87617 h -1.34821 z"
           style="font-weight:bold;font-family:'Open Sans';-inkscape-font-specification:'Open Sans Bold'"
           id="path1194" /><path
           d="m 335.33654,188.97281 v -4.96494 h 1.05276 v 4.96494 z"
           style="font-weight:bold;font-family:'Open Sans';-inkscape-font-specification:'Open Sans Bold'"
           id="path1196" /><path
           d="m 342.14551,186.48355 q 0,0.57392 -0.14264,1.04596 -0.14263,0.46865 -0.43468,0.80825 -0.28866,0.3396 -0.73354,0.52298 -0.44487,0.17999 -1.05275,0.17999 -0.60789,0 -1.05276,-0.17999 -0.44488,-0.18338 -0.73693,-0.52298 -0.28866,-0.3396 -0.43129,-0.81164 -0.14263,-0.47205 -0.14263,-1.04936 0,-0.77089 0.2513,-1.34142 0.2547,-0.57392 0.78108,-0.88975 0.52638,-0.31583 1.33802,-0.31583 0.80824,0 1.32783,0.31583 0.52298,0.31583 0.77429,0.88975 0.2547,0.57392 0.2547,1.34821 z m -3.62353,0 q 0,0.51958 0.12905,0.89654 0.13245,0.37356 0.41092,0.57732 0.27847,0.20036 0.71995,0.20036 0.44827,0 0.72674,-0.20036 0.27847,-0.20376 0.40412,-0.57732 0.12905,-0.37696 0.12905,-0.89654 0,-0.78108 -0.29206,-1.22935 -0.29205,-0.44827 -0.96106,-0.44827 -0.44488,0 -0.72674,0.20376 -0.27847,0.20036 -0.41092,0.57732 -0.12905,0.37355 -0.12905,0.89654 z"
           style="font-weight:bold;font-family:'Open Sans';-inkscape-font-specification:'Open Sans Bold'"
           id="path1198" /><path
           d="m 347.57909,188.97281 h -1.33802 l -2.15985,-3.75597 h -0.0306 q 0.0136,0.23433 0.0238,0.47205 0.0102,0.23771 0.0204,0.47543 0.0102,0.23433 0.0204,0.47205 v 2.33644 h -0.94069 v -4.96494 h 1.32783 l 2.15645,3.71861 h 0.0238 q -0.007,-0.23093 -0.017,-0.45846 -0.0102,-0.22753 -0.0204,-0.45506 -0.007,-0.22753 -0.0136,-0.45506 v -2.35003 h 0.94748 z"
           style="font-weight:bold;font-family:'Open Sans';-inkscape-font-specification:'Open Sans Bold'"
           id="path1200" /></g></g></g></svg>
